<svg width="476" height="569" viewBox="0 0 476 569" fill="none" xmlns="http://www.w3.org/2000/svg">
<path d="M94.0813 182.687C98.7443 180.378 102.545 182.252 102.584 186.804L102.898 281.591C102.898 286.176 99.1361 291.766 94.4732 294.075L8.81645 336.314C4.15353 338.623 0.352658 336.783 0.313474 332.197L0 237.377C0 232.825 3.76169 227.202 8.42461 224.893L94.0813 182.687Z" fill="#6CB7FF"/>
<path d="M102.312 196.444C106.975 194.134 110.776 196.009 110.815 200.56L111.128 295.347C111.128 299.933 107.367 305.522 102.704 307.831L17.0469 350.07C12.384 352.38 8.58313 350.539 8.54394 345.954L8.23047 251.133C8.23047 246.582 11.9922 240.959 16.6551 238.649L102.312 196.444Z" fill="#5C9DFF"/>
<path d="M109.212 205.778C113.875 203.468 117.676 205.342 117.715 209.894L118.029 304.681C118.029 309.266 114.267 314.856 109.604 317.165L23.9473 359.404C19.2844 361.714 15.4835 359.873 15.4443 355.288L15.1309 260.467C15.1309 255.915 18.8925 250.292 23.5555 247.983L109.212 205.778Z" fill="url(#paint0_linear_1495_2822)"/>
<path d="M105.136 226.663L105.175 232.119L29.9025 269.27L29.8633 263.781L105.136 226.663Z" fill="#FFB721"/>
<path d="M105.215 243.03V248.485L29.9419 285.603V280.148L105.215 243.03Z" fill="#FFB721"/>
<path d="M63.601 285.403V279.981L29.981 296.548L30.0201 302.004L63.601 285.403Z" fill="#FFB721"/>
<g clip-path="url(#clip0_1495_2822)">
<path d="M457.353 219.255C462.51 221.815 466.698 227.99 466.698 233.073L466.389 327.922C466.389 333.005 462.157 335.038 457 332.516L300.774 255.477C295.573 252.917 291.385 246.742 291.385 241.658L291.693 146.772C291.693 141.689 295.925 139.656 301.127 142.216L457.353 219.255Z" fill="url(#paint1_linear_1495_2822)"/>
<path d="M295.836 141.2C295.726 141.219 295.616 141.247 295.506 141.275C295.396 141.303 295.286 141.332 295.176 141.35C294.979 141.406 294.806 141.484 294.621 141.566C294.558 141.594 294.493 141.623 294.426 141.652L303.727 137.02C303.947 136.908 304.211 136.795 304.476 136.719C304.696 136.644 304.917 136.606 305.138 136.568C305.226 136.55 305.315 136.54 305.403 136.531C305.491 136.521 305.579 136.512 305.667 136.493L296.519 141.07L305.711 136.493H306.196L296.894 141.124L296.41 141.124C296.307 141.142 296.213 141.151 296.125 141.16C296.024 141.17 295.93 141.18 295.836 141.2Z" fill="url(#paint2_linear_1495_2822)"/>
<path d="M306.196 136.493L296.894 141.124L297.335 141.124C297.401 141.124 297.467 141.134 297.533 141.143C297.6 141.153 297.666 141.162 297.732 141.162C297.798 141.181 297.876 141.191 297.953 141.2C298.03 141.209 298.107 141.219 298.173 141.238C298.278 141.238 298.355 141.261 298.448 141.29C298.473 141.297 298.498 141.305 298.526 141.313C298.658 141.313 298.79 141.351 298.922 141.388L299.319 141.501L308.62 136.869C308.576 136.857 308.537 136.844 308.498 136.832C308.427 136.809 308.355 136.786 308.255 136.763L308.267 136.757C308.196 136.737 308.124 136.727 308.046 136.717C307.988 136.709 307.926 136.701 307.858 136.688L307.871 136.682C307.805 136.663 307.739 136.653 307.673 136.644C307.607 136.634 307.541 136.625 307.475 136.606L298.209 141.22L307.431 136.606C307.312 136.572 307.193 136.539 307.074 136.532L307.077 136.531C306.983 136.531 306.901 136.52 306.825 136.51C306.759 136.501 306.698 136.493 306.637 136.493H306.196Z" fill="url(#paint3_linear_1495_2822)"/>
<path d="M308.62 136.869L299.319 141.501C299.451 141.538 299.583 141.576 299.672 141.614C299.804 141.651 299.936 141.689 300.068 141.765C300.2 141.802 300.333 141.84 300.465 141.915C300.492 141.927 300.523 141.941 300.557 141.957C300.634 141.995 300.726 142.039 300.818 142.066C300.95 142.141 301.038 142.179 301.126 142.216L457.352 219.255L466.653 214.623L310.472 137.585C310.347 137.549 310.261 137.514 310.14 137.446L310.164 137.434C310.098 137.415 310.032 137.387 309.965 137.359C309.899 137.331 309.833 137.303 309.767 137.284C309.701 137.265 309.634 137.237 309.568 137.209C309.511 137.184 309.454 137.16 309.397 137.141L309.413 137.133C309.281 137.058 309.149 137.02 309.017 136.983L308.62 136.869Z" fill="url(#paint4_linear_1495_2822)"/>
<path d="M475.691 323.291V323.328L475.647 323.35V323.705C475.647 323.818 475.647 323.969 475.603 324.081C475.603 324.135 475.592 324.198 475.582 324.261L475.58 324.27C475.569 324.335 475.558 324.401 475.558 324.458L475.545 324.502L475.558 324.495C475.558 324.608 475.514 324.759 475.47 324.872L475.428 324.893L475.42 324.919L475.515 324.872C475.511 324.885 475.507 324.898 475.504 324.911C475.499 324.932 475.494 324.953 475.49 324.973L475.483 325.005C475.48 325.024 475.477 325.042 475.473 325.059C475.461 325.127 475.45 325.188 475.427 325.249C475.419 325.275 475.411 325.299 475.404 325.323L475.387 325.376L475.371 325.421L475.371 325.423L475.37 325.424L475.36 325.456L475.358 325.46C475.35 325.486 475.341 325.511 475.333 325.537C475.324 325.564 475.315 325.591 475.307 325.62L475.294 325.663L475.293 325.665C475.249 325.815 475.205 325.964 475.118 326.077C475.074 326.152 475.04 326.228 475.007 326.303C474.974 326.378 474.941 326.453 474.897 326.529C474.808 326.717 474.677 326.905 474.545 327.093C474.104 327.658 473.575 328.11 472.913 328.449L463.612 333.081C464.273 332.742 464.803 332.29 465.244 331.725C465.376 331.537 465.507 331.348 465.595 331.16C465.683 331.009 465.772 330.859 465.816 330.708C465.904 330.595 465.948 330.445 465.992 330.294C466.014 330.219 466.036 330.154 466.058 330.088L466.059 330.086C466.081 330.02 466.103 329.955 466.125 329.88C466.146 329.824 466.158 329.758 466.169 329.692C466.18 329.626 466.191 329.56 466.213 329.504L466.257 329.482V329.459L466.169 329.503C466.178 329.472 466.187 329.442 466.196 329.414C466.228 329.309 466.255 329.222 466.257 329.136V329.089C466.301 328.976 466.301 328.863 466.301 328.713C466.345 328.6 466.346 328.487 466.346 328.336L466.346 327.922L475.691 323.291Z" fill="url(#paint5_linear_1495_2822)"/>
<path d="M466.653 233.074L466.344 327.922L475.69 323.291L475.998 228.442L466.653 233.074Z" fill="url(#paint6_linear_1495_2822)"/>
<path d="M466.653 232.697L466.653 233.074L475.955 228.442V227.689C475.955 227.632 475.943 227.567 475.932 227.501C475.921 227.435 475.91 227.369 475.91 227.312L466.609 231.944C466.609 232 466.62 232.066 466.631 232.132C466.642 232.197 466.653 232.264 466.653 232.32L466.653 232.697Z" fill="url(#paint7_linear_1495_2822)"/>
<path d="M466.741 214.661C466.733 214.661 466.726 214.66 466.72 214.657C466.711 214.654 466.704 214.648 466.697 214.642L466.689 214.636C466.68 214.629 466.67 214.623 466.653 214.623L457.352 219.255C457.352 219.255 457.396 219.292 457.44 219.292L457.837 219.518L458.234 219.744C458.366 219.819 458.497 219.895 458.63 220.008L458.658 219.993C458.781 220.093 458.904 220.163 459.027 220.233C459.081 220.28 459.142 220.32 459.202 220.359C459.288 220.415 459.371 220.468 459.423 220.535L468.724 215.903C468.658 215.847 468.592 215.8 468.526 215.753C468.46 215.706 468.393 215.659 468.327 215.602C468.261 215.565 468.196 215.517 468.13 215.47C468.064 215.423 467.997 215.376 467.931 215.338L467.902 215.353C467.78 215.253 467.657 215.183 467.534 215.113L467.139 214.887L466.741 214.661Z" fill="url(#paint8_linear_1495_2822)"/>
<path d="M468.967 216.054C468.901 216.007 468.835 215.96 468.768 215.903L459.467 220.534C459.599 220.647 459.732 220.76 459.864 220.836L469.165 216.204C469.099 216.148 469.033 216.101 468.967 216.054Z" fill="url(#paint9_linear_1495_2822)"/>
<path d="M469.165 216.204L469.562 216.544L460.261 221.175L459.864 220.836L469.165 216.204Z" fill="url(#paint10_linear_1495_2822)"/>
<path d="M470.002 216.883L469.606 216.544L460.304 221.175L460.701 221.514C460.786 221.623 460.913 221.731 461.08 221.84L461.055 221.853C461.187 221.966 461.319 222.078 461.407 222.191C461.54 222.304 461.671 222.455 461.759 222.568L471.06 217.937C470.972 217.786 470.84 217.674 470.708 217.561C470.623 217.452 470.499 217.343 470.372 217.235L470.4 217.221L470.002 216.883Z" fill="url(#paint11_linear_1495_2822)"/>
<path d="M471.458 218.313C471.37 218.2 471.237 218.05 471.105 217.937L461.804 222.568C461.852 222.629 461.912 222.69 461.979 222.758C462.035 222.814 462.096 222.876 462.157 222.945L462.553 223.396C462.773 223.659 462.949 223.885 463.126 224.111L472.427 219.48C472.378 219.418 472.329 219.352 472.28 219.286L472.278 219.284C472.149 219.111 472.013 218.928 471.854 218.765L471.458 218.313Z" fill="url(#paint12_linear_1495_2822)"/>
<path d="M463.171 224.112L472.472 219.481C472.582 219.631 472.703 219.791 472.825 219.951C472.946 220.111 473.067 220.271 473.177 220.422L463.876 225.053C463.794 224.94 463.705 224.828 463.615 224.713C463.464 224.521 463.309 224.324 463.171 224.112Z" fill="url(#paint13_linear_1495_2822)"/>
<path d="M473.177 220.46L463.876 225.091C463.927 225.179 463.986 225.267 464.045 225.358C464.139 225.499 464.236 225.646 464.317 225.807L464.334 225.798L464.352 225.831L464.376 225.874L464.38 225.881L464.381 225.884C464.45 226.008 464.525 226.144 464.625 226.258C464.657 226.369 464.714 226.461 464.777 226.562C464.799 226.597 464.822 226.633 464.845 226.672C464.876 226.726 464.902 226.774 464.926 226.82C464.97 226.903 465.009 226.976 465.066 227.049C465.092 227.138 465.133 227.215 465.172 227.285C465.199 227.334 465.224 227.379 465.242 227.425L474.543 222.794C474.521 222.737 474.488 222.672 474.455 222.606L474.437 222.57L474.413 222.522C474.407 222.509 474.4 222.495 474.394 222.482C474.384 222.459 474.374 222.438 474.367 222.417C474.322 222.361 474.29 222.295 474.257 222.229C474.223 222.163 474.19 222.097 474.146 222.041C474.114 221.929 474.056 221.839 473.993 221.738C473.971 221.703 473.948 221.666 473.926 221.627C473.794 221.439 473.706 221.288 473.618 221.138L473.603 221.145C473.475 220.894 473.347 220.677 473.177 220.46Z" fill="url(#paint14_linear_1495_2822)"/>
<path d="M465.242 227.463L474.543 222.832C474.559 222.872 474.58 222.916 474.603 222.963L474.631 223.02C474.664 223.086 474.697 223.152 474.719 223.208L465.418 227.84C465.392 227.75 465.35 227.674 465.311 227.603C465.295 227.573 465.279 227.545 465.266 227.517C465.257 227.499 465.249 227.481 465.242 227.463Z" fill="url(#paint15_linear_1495_2822)"/>
<path d="M474.719 223.208C474.741 223.265 474.775 223.33 474.808 223.396C474.842 223.462 474.875 223.528 474.897 223.585C474.919 223.66 474.951 223.726 474.984 223.792C475.017 223.858 475.05 223.924 475.072 223.999C475.117 224.149 475.16 224.263 475.248 224.413L475.21 224.432C475.23 224.499 475.249 224.558 475.269 224.617L475.27 224.62C475.292 224.686 475.314 224.752 475.336 224.827L466.035 229.459C466.035 229.346 465.991 229.195 465.903 229.045L465.937 229.027C465.855 228.885 465.813 228.775 465.771 228.63L465.765 228.614L465.761 228.604C465.754 228.589 465.747 228.573 465.739 228.556C465.73 228.536 465.72 228.515 465.709 228.493L465.708 228.491C465.668 228.405 465.623 228.311 465.595 228.216C465.589 228.202 465.584 228.187 465.579 228.172L465.57 228.147C465.533 228.046 465.489 227.931 465.418 227.84L474.719 223.208Z" fill="url(#paint16_linear_1495_2822)"/>
<path d="M475.381 224.827L466.079 229.459C466.123 229.609 466.168 229.76 466.212 229.873L475.513 225.241C475.469 225.129 475.425 224.978 475.381 224.827Z" fill="url(#paint17_linear_1495_2822)"/>
<path d="M466.212 229.91L475.513 225.279C475.536 225.354 475.558 225.42 475.58 225.486C475.592 225.523 475.604 225.56 475.616 225.598C475.626 225.628 475.636 225.66 475.646 225.693L475.607 225.712L475.624 225.768C475.659 225.884 475.69 225.982 475.69 226.107L466.388 230.739C466.388 230.614 466.358 230.515 466.323 230.399L466.322 230.397C466.315 230.374 466.308 230.35 466.3 230.324L466.335 230.307C466.287 230.219 466.267 230.13 466.25 230.05C466.239 230 466.229 229.952 466.212 229.91Z" fill="url(#paint18_linear_1495_2822)"/>
<path d="M475.734 226.108C475.756 226.183 475.767 226.248 475.778 226.314C475.789 226.38 475.8 226.447 475.822 226.522L475.783 226.541C475.802 226.608 475.812 226.669 475.822 226.729C475.828 226.763 475.834 226.797 475.841 226.833C475.845 226.856 475.851 226.879 475.857 226.903L475.867 226.898C475.867 226.911 475.867 226.925 475.868 226.939C475.869 226.946 475.869 226.953 475.87 226.961C475.872 226.975 475.873 226.989 475.875 227.003C475.879 227.03 475.884 227.058 475.889 227.086C475.9 227.152 475.911 227.218 475.911 227.275L466.609 231.906C466.609 231.854 466.6 231.801 466.59 231.745C466.58 231.69 466.569 231.632 466.566 231.567L466.565 231.567C466.544 231.497 466.533 231.426 466.523 231.359C466.511 231.284 466.5 231.213 466.477 231.153L466.515 231.134L466.498 231.079C466.463 230.963 466.432 230.864 466.432 230.739L475.734 226.108Z" fill="url(#paint19_linear_1495_2822)"/>
<path d="M364.693 263.459V269.634L306.461 240.943L306.505 234.768L364.693 263.459Z" fill="#FFB721"/>
<path d="M367.38 191.58L371.833 198.094L352.26 208.26L371.7 237.705L367.204 239.738L343.576 203.968L367.38 191.58Z" fill="#FFB721"/>
<path d="M431.697 247.42L434.827 245.876L410.978 258.264L407.893 259.808L431.697 247.42Z" fill="#FFD06B"/>
<path d="M408.069 211.649L431.697 247.42L407.893 259.807L403.396 253.331L422.969 243.127L403.529 213.72L408.069 211.649Z" fill="#FFB721"/>
<path d="M403.527 213.72L406.657 212.176L411.153 210.105L408.068 211.649L403.527 213.72Z" fill="#FFD06B"/>
<path d="M390.657 204.194L396.564 209.126L380.915 245.349L375.008 240.416L390.657 204.194Z" fill="#FFB721"/>
<path d="M333.484 235.785L333.44 241.922L306.506 228.631L306.55 222.493L333.484 235.785Z" fill="#FFB721"/>
</g>
<g clip-path="url(#clip1_1495_2822)">
<path d="M443.588 481.52L271.334 567.002C266.436 569.445 260.362 569.445 255.425 567.035L81.9172 481.486C71.3767 476.265 71.3375 463.278 81.878 458.024L254.132 372.508C259.03 370.065 265.104 370.065 270.041 372.475L443.549 458.024C454.089 463.278 454.128 476.265 443.588 481.52Z" fill="#E1ECFB"/>
<path d="M402.507 427.952C407.496 430.404 407.564 434.374 402.575 436.826L282.765 496.314C272.103 501.626 254.674 501.626 243.944 496.314L133.77 441.963C123.04 436.651 122.972 428.069 133.634 422.757L243.124 368.406C253.786 363.093 271.146 363.152 281.876 368.406L402.507 427.952Z" fill="url(#paint20_linear_1495_2822)"/>
<path d="M406.061 433.556C406.061 433.615 406.06 433.615 405.992 433.673C405.855 434.023 405.65 434.374 405.377 434.666C405.309 434.724 405.309 434.782 405.24 434.841C404.967 435.191 404.625 435.483 404.215 435.775C403.942 435.95 403.668 436.125 403.327 436.3C403.053 436.475 402.848 436.65 402.507 436.767L282.696 496.255C281.056 497.073 279.21 497.715 277.297 498.299C276.613 498.474 275.93 498.649 275.246 498.824C274.358 499.057 273.401 499.233 272.512 499.408C271.419 499.583 270.325 499.758 269.163 499.875C268.89 499.933 268.617 499.933 268.343 499.992C266.84 500.108 265.268 500.225 263.696 500.225C263.422 500.225 263.217 500.225 262.944 500.225C261.44 500.225 259.868 500.167 258.365 499.992C258.16 499.992 257.886 499.933 257.681 499.933C256.178 499.758 254.742 499.583 253.239 499.291C252.965 499.233 252.692 499.174 252.487 499.116C251.188 498.824 249.89 498.532 248.728 498.123C248.523 498.065 248.25 498.007 248.045 497.948C246.609 497.481 245.174 496.897 243.875 496.255L133.702 441.904C130.968 440.562 128.986 439.044 127.619 437.409C126.252 435.775 125.568 434.023 125.637 432.272L125.568 460.819C125.568 464.322 128.234 467.825 133.633 470.51L243.807 524.861C245.037 525.445 246.336 526.029 247.771 526.496C247.839 526.496 247.908 526.554 247.976 526.554C248.181 526.612 248.455 526.671 248.66 526.729C249.48 526.963 250.232 527.196 251.052 527.43C251.53 527.546 251.94 527.605 252.419 527.722C252.692 527.78 252.965 527.838 253.17 527.897C253.376 527.955 253.649 528.013 253.854 528.072C254.742 528.247 255.631 528.364 256.588 528.48C256.93 528.539 257.271 528.539 257.613 528.597C257.818 528.597 258.091 528.656 258.296 528.656C258.638 528.714 258.98 528.714 259.322 528.772C260.21 528.831 261.099 528.889 262.055 528.889C262.329 528.889 262.602 528.889 262.876 528.889C263.149 528.889 263.354 528.889 263.627 528.889C264.037 528.889 264.448 528.889 264.858 528.889C265.883 528.831 266.908 528.772 267.933 528.714C268.07 528.714 268.138 528.656 268.275 528.656C268.548 528.656 268.822 528.597 269.095 528.539C269.915 528.48 270.667 528.364 271.487 528.247C271.829 528.189 272.171 528.072 272.444 528.013C273.401 527.838 274.289 527.663 275.178 527.43C275.656 527.313 276.203 527.254 276.613 527.138C276.818 527.079 277.023 526.963 277.228 526.904C279.142 526.32 280.987 525.678 282.628 524.861L402.438 465.373C402.507 465.373 402.575 465.314 402.575 465.314C402.848 465.198 402.985 465.023 403.19 464.906C403.463 464.731 403.805 464.556 404.078 464.38L404.147 464.322C404.42 464.088 404.694 463.855 404.899 463.621C404.967 463.563 404.967 463.505 405.035 463.446C405.104 463.388 405.104 463.33 405.172 463.271C405.24 463.154 405.309 463.096 405.377 462.979C405.514 462.804 405.65 462.571 405.719 462.337C405.719 462.279 405.719 462.279 405.719 462.22C405.719 462.162 405.719 462.162 405.787 462.104C405.855 461.987 405.855 461.87 405.924 461.695C405.992 461.461 405.992 461.286 405.992 461.053C405.992 460.994 405.992 460.994 405.992 460.936L406.061 432.389C406.334 432.797 406.197 433.148 406.061 433.556Z" fill="url(#paint21_linear_1495_2822)"/>
<path d="M201.619 423.392C202.173 423.695 202.173 424.186 201.624 424.489L188.232 431.819C187.039 432.47 185.099 432.47 183.902 431.819L171.588 425.122C170.391 424.471 170.386 423.414 171.579 422.759L183.812 416.062C185.004 415.411 186.94 415.407 188.137 416.062L201.619 423.392Z" fill="#4F8EFF" fill-opacity="0.9"/>
<path d="M272.152 389.922C272.706 390.225 272.706 390.716 272.157 391.019L258.765 398.349C257.572 399 255.632 399 254.435 398.349L242.122 391.652C240.924 391.001 240.92 389.944 242.112 389.289L254.345 382.592C255.537 381.941 257.473 381.937 258.67 382.592L272.152 389.922Z" fill="#4F8EFF" fill-opacity="0.9"/>
<path opacity="0.7" d="M354.437 423.392C354.991 423.695 354.991 424.186 354.442 424.489L341.05 431.819C339.857 432.47 337.917 432.47 336.72 431.819L324.407 425.122C323.21 424.471 323.205 423.414 324.397 422.759L336.63 416.062C337.823 415.411 339.758 415.407 340.955 416.062L354.437 423.392Z" fill="#4F8EFF" fill-opacity="0.9"/>
</g>
<path d="M216.284 0.990637C220.947 -1.31879 224.748 0.555528 224.787 5.10743L225.101 99.8942C225.101 104.48 221.339 110.069 216.676 112.378L131.02 154.617C126.357 156.927 122.556 155.086 122.517 150.501L122.203 55.6804C122.203 51.1285 125.965 45.5056 130.628 43.1962L216.284 0.990637Z" fill="#6CB7FF"/>
<g clip-path="url(#clip2_1495_2822)">
<path d="M228.339 24.8339C233.002 22.5245 236.803 24.3988 236.842 28.9507L237.156 123.737C237.156 128.323 233.394 133.912 228.731 136.222L143.074 178.461C138.411 180.77 134.61 178.929 134.571 174.344L134.258 79.5237C134.258 74.9718 138.019 69.3489 142.682 67.0394L228.339 24.8339Z" fill="url(#paint22_linear_1495_2822)"/>
<path d="M224.343 62.0859V67.5415L149.07 104.66V99.204L224.343 62.0859Z" fill="#FFB721"/>
<path d="M224.265 45.7192L224.304 51.1748L149.031 88.3264L148.992 82.8373L224.265 45.7192Z" fill="#FFB721"/>
<path d="M182.729 99.0369V104.459L149.149 121.06L149.109 115.604L182.729 99.0369Z" fill="#FFB721"/>
</g>
<defs>
<linearGradient id="paint0_linear_1495_2822" x1="3.81628" y1="282.274" x2="116.56" y2="263.885" gradientUnits="userSpaceOnUse">
<stop stop-color="#3C76FF"/>
<stop offset="1" stop-color="#69B2FF"/>
</linearGradient>
<linearGradient id="paint1_linear_1495_2822" x1="272.107" y1="236.958" x2="459.831" y2="194.784" gradientUnits="userSpaceOnUse">
<stop stop-color="#3C76FF"/>
<stop offset="1" stop-color="#69B2FF"/>
</linearGradient>
<linearGradient id="paint2_linear_1495_2822" x1="323.609" y1="231.282" x2="440.389" y2="247.931" gradientUnits="userSpaceOnUse">
<stop stop-color="#1447C2"/>
<stop offset="0.921875" stop-color="#4A7BFD"/>
</linearGradient>
<linearGradient id="paint3_linear_1495_2822" x1="323.609" y1="231.282" x2="440.389" y2="247.931" gradientUnits="userSpaceOnUse">
<stop stop-color="#1447C2"/>
<stop offset="0.921875" stop-color="#4A7BFD"/>
</linearGradient>
<linearGradient id="paint4_linear_1495_2822" x1="323.609" y1="231.282" x2="440.389" y2="247.931" gradientUnits="userSpaceOnUse">
<stop stop-color="#1447C2"/>
<stop offset="0.921875" stop-color="#4A7BFD"/>
</linearGradient>
<linearGradient id="paint5_linear_1495_2822" x1="323.609" y1="231.282" x2="440.389" y2="247.931" gradientUnits="userSpaceOnUse">
<stop stop-color="#1447C2"/>
<stop offset="0.921875" stop-color="#4A7BFD"/>
</linearGradient>
<linearGradient id="paint6_linear_1495_2822" x1="323.609" y1="231.282" x2="440.389" y2="247.931" gradientUnits="userSpaceOnUse">
<stop stop-color="#1447C2"/>
<stop offset="0.921875" stop-color="#4A7BFD"/>
</linearGradient>
<linearGradient id="paint7_linear_1495_2822" x1="323.609" y1="231.282" x2="440.389" y2="247.931" gradientUnits="userSpaceOnUse">
<stop stop-color="#1447C2"/>
<stop offset="0.921875" stop-color="#4A7BFD"/>
</linearGradient>
<linearGradient id="paint8_linear_1495_2822" x1="323.609" y1="231.282" x2="440.389" y2="247.931" gradientUnits="userSpaceOnUse">
<stop stop-color="#1447C2"/>
<stop offset="0.921875" stop-color="#4A7BFD"/>
</linearGradient>
<linearGradient id="paint9_linear_1495_2822" x1="323.609" y1="231.282" x2="440.389" y2="247.931" gradientUnits="userSpaceOnUse">
<stop stop-color="#1447C2"/>
<stop offset="0.921875" stop-color="#4A7BFD"/>
</linearGradient>
<linearGradient id="paint10_linear_1495_2822" x1="323.609" y1="231.282" x2="440.389" y2="247.931" gradientUnits="userSpaceOnUse">
<stop stop-color="#1447C2"/>
<stop offset="0.921875" stop-color="#4A7BFD"/>
</linearGradient>
<linearGradient id="paint11_linear_1495_2822" x1="323.609" y1="231.282" x2="440.389" y2="247.931" gradientUnits="userSpaceOnUse">
<stop stop-color="#1447C2"/>
<stop offset="0.921875" stop-color="#4A7BFD"/>
</linearGradient>
<linearGradient id="paint12_linear_1495_2822" x1="323.609" y1="231.282" x2="440.389" y2="247.931" gradientUnits="userSpaceOnUse">
<stop stop-color="#1447C2"/>
<stop offset="0.921875" stop-color="#4A7BFD"/>
</linearGradient>
<linearGradient id="paint13_linear_1495_2822" x1="323.609" y1="231.282" x2="440.389" y2="247.931" gradientUnits="userSpaceOnUse">
<stop stop-color="#1447C2"/>
<stop offset="0.921875" stop-color="#4A7BFD"/>
</linearGradient>
<linearGradient id="paint14_linear_1495_2822" x1="323.609" y1="231.282" x2="440.389" y2="247.931" gradientUnits="userSpaceOnUse">
<stop stop-color="#1447C2"/>
<stop offset="0.921875" stop-color="#4A7BFD"/>
</linearGradient>
<linearGradient id="paint15_linear_1495_2822" x1="323.609" y1="231.282" x2="440.389" y2="247.931" gradientUnits="userSpaceOnUse">
<stop stop-color="#1447C2"/>
<stop offset="0.921875" stop-color="#4A7BFD"/>
</linearGradient>
<linearGradient id="paint16_linear_1495_2822" x1="323.609" y1="231.282" x2="440.389" y2="247.931" gradientUnits="userSpaceOnUse">
<stop stop-color="#1447C2"/>
<stop offset="0.921875" stop-color="#4A7BFD"/>
</linearGradient>
<linearGradient id="paint17_linear_1495_2822" x1="323.609" y1="231.282" x2="440.389" y2="247.931" gradientUnits="userSpaceOnUse">
<stop stop-color="#1447C2"/>
<stop offset="0.921875" stop-color="#4A7BFD"/>
</linearGradient>
<linearGradient id="paint18_linear_1495_2822" x1="323.609" y1="231.282" x2="440.389" y2="247.931" gradientUnits="userSpaceOnUse">
<stop stop-color="#1447C2"/>
<stop offset="0.921875" stop-color="#4A7BFD"/>
</linearGradient>
<linearGradient id="paint19_linear_1495_2822" x1="323.609" y1="231.282" x2="440.389" y2="247.931" gradientUnits="userSpaceOnUse">
<stop stop-color="#1447C2"/>
<stop offset="0.921875" stop-color="#4A7BFD"/>
</linearGradient>
<linearGradient id="paint20_linear_1495_2822" x1="211.685" y1="411.722" x2="402.963" y2="419.72" gradientUnits="userSpaceOnUse">
<stop stop-color="#4A80FF"/>
<stop offset="1" stop-color="#6EBAFF"/>
</linearGradient>
<linearGradient id="paint21_linear_1495_2822" x1="170.677" y1="478.858" x2="324.02" y2="547.612" gradientUnits="userSpaceOnUse">
<stop stop-color="#1447C2"/>
<stop offset="0.921875" stop-color="#4A7BFD"/>
</linearGradient>
<linearGradient id="paint22_linear_1495_2822" x1="122.943" y1="101.331" x2="235.687" y2="82.9414" gradientUnits="userSpaceOnUse">
<stop stop-color="#3C76FF"/>
<stop offset="1" stop-color="#69B2FF"/>
</linearGradient>
<clipPath id="clip0_1495_2822">
<rect width="184.614" height="197.115" fill="white" transform="translate(291.385 136.493)"/>
</clipPath>
<clipPath id="clip1_1495_2822">
<rect width="377.462" height="224.181" fill="white" transform="translate(74.002 344.661)"/>
</clipPath>
<clipPath id="clip2_1495_2822">
<rect width="102.898" height="155.602" fill="white" transform="translate(134.258 23.8293)"/>
</clipPath>
</defs>
</svg>
