<svg width="463" height="486" viewBox="0 0 463 486" fill="none" xmlns="http://www.w3.org/2000/svg">
<path d="M137.116 233.194L137.123 233.198C138.755 233.362 140.347 233.565 141.858 233.892L127.488 225.524C126.809 225.381 126.129 225.261 125.442 225.158C124.578 225.028 123.703 224.925 122.803 224.835L122.794 224.83C122.117 224.77 121.43 224.72 120.738 224.685C120.012 224.647 119.28 224.626 118.549 224.626C117.283 224.626 116.018 224.667 114.711 224.748C113.528 224.83 112.303 224.952 111.079 225.116L125.447 233.484C125.712 233.448 125.98 233.413 126.249 233.38C126.617 233.336 126.989 233.295 127.363 233.258C127.581 233.237 127.8 233.217 128.019 233.198L128.508 233.158L128.746 233.14L129.081 233.116C130.346 233.035 131.652 232.994 132.918 232.994C134.33 232.994 135.743 233.074 137.116 233.194Z" fill="url(#paint0_linear_1495_2783)"/>
<path d="M147.498 235.417L147.614 235.484C147.917 235.592 148.218 235.704 148.518 235.82C149.374 236.149 150.218 236.507 151.05 236.894C151.473 237.091 151.892 237.295 152.309 237.506C152.955 237.835 153.595 238.181 154.227 238.546L139.857 230.177C137.798 228.966 135.58 227.955 133.321 227.143L133.203 227.075C131.367 226.422 129.448 225.891 127.488 225.483L141.858 233.851C143.15 234.141 144.392 234.449 145.604 234.806C146.243 234.995 146.873 235.196 147.498 235.417Z" fill="url(#paint1_linear_1495_2783)"/>
<path d="M125.406 233.484L111.038 225.116C110.024 225.256 109.011 225.425 107.973 225.599L107.446 225.687L121.815 234.056L122.33 233.969C122.777 233.894 123.22 233.82 123.66 233.749C124.246 233.654 124.826 233.564 125.406 233.484Z" fill="url(#paint2_linear_1495_2783)"/>
<path d="M107.486 225.728L121.855 234.096C120.712 234.3 119.61 234.546 118.508 234.831L104.139 226.462C105.241 226.177 106.384 225.932 107.486 225.728Z" fill="url(#paint3_linear_1495_2783)"/>
<path d="M118.467 234.831L104.098 226.462C103.692 226.568 103.28 226.673 102.865 226.782C102.533 226.87 102.198 226.96 101.862 227.055C101.479 227.164 101.095 227.278 100.71 227.402C100.21 227.55 99.7178 227.706 99.2269 227.868C98.8472 227.992 98.468 228.12 98.0853 228.248L97.444 228.463C96.7095 228.708 95.9755 228.989 95.241 229.27C94.8732 229.41 94.5055 229.551 94.1377 229.688L108.507 238.056L111.813 236.831L112.77 236.512C113.551 236.254 114.325 236.002 115.079 235.77C116.222 235.443 117.365 235.117 118.467 234.831Z" fill="url(#paint4_linear_1495_2783)"/>
<path d="M94.1377 229.728L108.507 238.097C107.405 238.505 106.343 238.995 105.241 239.485C104.139 239.975 103.036 240.505 101.934 241.036L87.5656 232.667C88.6673 232.137 89.7696 231.606 90.8718 231.116C91.9741 230.626 93.0355 230.177 94.1377 229.728Z" fill="url(#paint5_linear_1495_2783)"/>
<path d="M87.5247 232.667L101.894 241.036C100.792 241.608 99.6894 242.179 98.5463 242.791C97.6892 243.24 96.8316 243.73 95.9336 244.261L95.9007 244.242C95.7572 244.336 95.6003 244.43 95.4383 244.515C95.3327 244.57 95.225 244.623 95.1174 244.669L80.7482 236.301C80.9575 236.211 81.1449 236.099 81.3422 235.982L81.5645 235.852L81.5993 235.872C82.4853 235.349 83.331 234.866 84.1771 234.423C85.2793 233.811 86.4225 233.198 87.5247 232.667Z" fill="url(#paint6_linear_1495_2783)"/>
<path d="M95.1583 244.71L80.7891 236.341C80.522 236.504 80.2529 236.666 79.9823 236.828L79.8269 236.921C78.9902 237.425 78.1441 237.934 77.3194 238.464C76.7488 238.819 76.1877 239.182 75.6316 239.551C75.0336 239.947 74.4417 240.348 73.8492 240.75C72.6891 241.55 71.5296 242.389 70.3695 243.229L70.2977 243.281C69.0734 244.179 67.8894 245.077 66.7054 246.016L66.686 246.032C65.4682 247.007 64.2498 247.981 63.0723 248.996L77.4415 257.364C78.1889 256.72 78.9523 256.092 79.7217 255.47L80.3172 254.992L81.0387 254.414L81.0746 254.384C82.2586 253.445 83.4421 252.547 84.6669 251.649C85.81 250.792 86.9935 249.935 88.2183 249.119L88.2916 249.069L88.3619 249.021L89.211 248.447C89.4118 248.311 89.6131 248.176 89.8154 248.042C90.4318 247.631 91.0542 247.226 91.6886 246.832C92.8317 246.098 93.9743 245.404 95.1583 244.71Z" fill="url(#paint7_linear_1495_2783)"/>
<path d="M63.0314 248.996L77.4006 257.364C76.1758 258.385 74.9923 259.446 73.7674 260.548C73.4161 260.875 73.0619 261.202 72.7061 261.529L72.6223 261.607C71.8051 262.359 70.9804 263.118 70.1752 263.896L69.6385 264.413L69.2094 264.829L68.7939 265.233L68.3977 265.621L67.9173 266.096C67.5107 266.5 67.1056 266.91 66.7054 267.325L66.681 267.311C66.1404 267.89 65.5902 268.46 65.0401 269.03L65.0012 269.071C64.4501 269.642 63.8995 270.213 63.3583 270.795L63.3195 270.838C62.6836 271.547 62.0478 272.256 61.4119 272.957C60.9993 273.41 60.5867 273.861 60.1741 274.305L45.805 265.937C46.8664 264.753 47.9277 263.569 48.9891 262.426C50.0914 261.242 51.1932 260.059 52.3363 258.916L52.3612 258.93C53.4963 257.756 54.6713 256.622 55.806 255.527C56.2819 255.068 56.7578 254.615 57.2366 254.165C57.9487 253.498 58.6663 252.839 59.3983 252.18L59.5797 252.013L59.9135 251.706C60.4213 251.242 60.9356 250.785 61.4533 250.337C61.977 249.882 62.5042 249.435 63.0314 248.996Z" fill="url(#paint8_linear_1495_2783)"/>
<path d="M60.1741 274.346L45.805 265.978C44.7436 267.203 43.6822 268.427 42.6616 269.652C41.6003 270.917 40.5389 272.224 39.5183 273.53C38.294 275.081 37.0691 276.673 35.8852 278.265L50.2543 286.633L52.279 283.994C52.8117 283.298 53.3458 282.602 53.8875 281.898C54.908 280.592 55.9694 279.326 57.0308 278.02C57.3597 277.641 57.6846 277.261 58.008 276.882L58.6075 276.178C59.1262 275.567 59.6449 274.957 60.1741 274.346Z" fill="url(#paint9_linear_1495_2783)"/>
<path d="M35.8852 278.306L50.2952 286.674C48.5103 289.068 46.8056 291.502 45.1014 294.016L45.1113 294.022C43.9293 295.794 42.7728 297.593 41.6416 299.402C40.7412 300.842 39.8567 302.29 38.9881 303.737L24.619 295.369C26.5688 292.079 28.5994 288.869 30.7108 285.701L30.7008 285.695C32.3746 283.163 34.0893 280.714 35.8852 278.306Z" fill="url(#paint10_linear_1495_2783)"/>
<path d="M24.619 295.41L38.9881 303.778C37.6003 306.146 36.2529 308.554 34.9469 310.963C34.0898 312.595 33.2322 314.228 32.416 315.861C31.6805 317.29 30.9868 318.719 30.3335 320.148L15.9644 311.78L18.0468 307.493C18.8635 305.86 19.7206 304.227 20.5777 302.594L20.5941 302.604C21.8957 300.166 23.2372 297.767 24.619 295.41Z" fill="url(#paint11_linear_1495_2783)"/>
<path d="M30.334 320.189L15.9649 311.82L15.7003 312.388L15.5373 312.739C15.0694 313.752 14.6075 314.778 14.169 315.78C13.5969 317.086 13.0253 318.392 12.4946 319.698C11.964 321.005 11.3924 322.352 10.9026 323.658L25.2717 332.027C25.5064 331.401 25.7501 330.766 26.0038 330.131C26.2793 329.44 26.5658 328.747 26.8638 328.067L27.0048 327.723L27.2171 327.212C27.3173 326.972 27.4184 326.732 27.5206 326.493C27.854 325.711 28.1958 324.929 28.5376 324.148C29.1092 322.801 29.7216 321.495 30.334 320.189Z" fill="url(#paint12_linear_1495_2783)"/>
<path d="M9.35182 327.659C9.54567 327.125 9.73952 326.599 9.93584 326.074C10.1043 325.623 10.2747 325.173 10.4486 324.72L10.6404 324.224L10.8622 323.658L25.2314 332.027C24.9294 332.857 24.612 333.687 24.298 334.508C24.1027 335.019 23.9089 335.526 23.721 336.027C23.5576 336.49 23.3941 336.957 23.2307 337.424C22.9043 338.358 22.5779 339.293 22.2515 340.191L7.88232 331.822L9.35182 327.659Z" fill="url(#paint13_linear_1495_2783)"/>
<path d="M7.92268 331.863L22.2919 340.232C21.802 341.62 21.353 343.048 20.9449 344.477L20.9404 344.499L20.6529 345.415L20.4646 346.025C20.1835 346.942 19.9149 347.864 19.6797 348.804C19.2711 350.233 18.863 351.702 18.5361 353.131C18.1694 354.56 17.8425 355.989 17.5569 357.418L3.18777 349.049C3.29691 348.505 3.412 347.961 3.53259 347.417C3.58742 347.17 3.64322 346.923 3.70003 346.677C3.77428 346.356 3.85052 346.035 3.92924 345.714L4.04935 345.226L4.16695 344.763C4.5347 343.334 4.90195 341.864 5.31056 340.436L5.5323 339.655L5.53529 339.643C5.86966 338.468 6.209 337.274 6.57576 336.109C6.98387 334.68 7.43285 333.292 7.92268 331.863Z" fill="url(#paint14_linear_1495_2783)"/>
<path d="M3.14691 349.049L17.5161 357.418C17.2306 358.846 16.9037 360.275 16.659 361.703C16.4133 363.092 16.1687 364.439 15.9235 365.827L15.8582 366.269C15.7491 367.009 15.6414 367.739 15.5413 368.472C15.4745 368.962 15.4107 369.453 15.3524 369.949C15.189 371.297 15.026 372.644 14.9035 373.95L14.8781 374.225L14.8751 374.259C14.7624 375.499 14.6528 376.707 14.5771 377.951C14.4953 379.249 14.4545 380.588 14.3738 381.887L14.4136 381.91C14.3937 382.507 14.3738 383.105 14.3633 383.707C14.3523 384.339 14.3518 384.976 14.3728 385.625V385.87C14.3728 386.217 14.3728 386.561 14.3743 386.904L14.3763 387.248L14.3822 387.775C14.3922 388.45 14.4126 389.119 14.4545 389.789C14.4724 390.378 14.4993 390.966 14.5342 391.551C14.5502 391.816 14.5676 392.08 14.587 392.344C14.6015 392.545 14.6174 392.745 14.6339 392.944L14.6598 393.241L14.6992 393.667C14.7305 394.187 14.7744 394.7 14.8257 395.21C14.9055 396.006 15.0031 396.794 15.1018 397.583L15.1073 397.586C15.2707 398.932 15.4745 400.239 15.6788 401.504C15.924 402.893 16.1692 404.199 16.4956 405.505C16.8224 406.975 17.1897 408.362 17.5978 409.668L3.22864 401.3C2.82053 399.953 2.45326 398.565 2.12637 397.137C1.79999 395.831 1.55482 394.483 1.30965 393.136C1.10783 391.884 0.906021 390.592 0.743576 389.261L0.738098 389.258C0.69873 388.939 0.661362 388.621 0.625977 388.302C0.595581 388.031 0.566681 387.759 0.538773 387.487C0.464523 386.765 0.397247 386.038 0.329987 385.298C0.256729 384.545 0.198425 383.776 0.154572 383.002C0.12468 382.477 0.101761 381.949 0.0853119 381.42C0.0449524 380.127 0.0045929 378.834 0.00358582 377.501V377.257C0.00358582 376.857 0.00358582 376.462 0.00508118 376.07C0.00758362 375.227 0.0160522 374.396 0.043457 373.565L0.00358582 373.542C0.0439606 372.236 0.125671 370.888 0.207901 369.582C0.289612 368.235 0.411697 366.929 0.534286 365.582C0.65538 364.292 0.81633 362.961 0.97728 361.631L0.983261 361.581C1.12479 360.379 1.2972 359.207 1.4731 358.013L1.48058 357.961L1.55482 357.458L1.77657 356.226L1.93353 355.347L2.28983 353.335C2.34813 352.995 2.40842 352.655 2.47121 352.315C2.58681 351.691 2.7099 351.068 2.84096 350.444L2.92018 350.071L2.98297 349.781C3.03629 349.537 3.09109 349.293 3.14691 349.049Z" fill="url(#paint15_linear_1495_2783)"/>
<path d="M17.5569 409.71L3.18777 401.341C3.63675 402.811 4.08572 404.28 4.61642 405.668C4.95776 406.577 5.31155 407.462 5.67781 408.321C5.96883 409.004 6.26831 409.671 6.57576 410.322L6.63257 410.355C7.56689 412.302 8.58244 414.169 9.71909 415.914L24.0883 424.283C22.9451 422.527 21.9246 420.65 20.9858 418.69L20.9305 418.658C20.8134 418.402 20.6973 418.146 20.5822 417.888C20.4197 417.523 20.2598 417.157 20.1018 416.788C19.7156 415.885 19.3439 414.968 18.9856 414.037C18.4958 412.608 18.0059 411.179 17.5569 409.71Z" fill="url(#paint16_linear_1495_2783)"/>
<path d="M9.67822 415.914L24.0474 424.283C27.8261 430.215 32.6168 434.853 38.136 438.076L23.8431 429.753C18.2506 426.528 13.4743 421.874 9.67822 415.914Z" fill="url(#paint17_linear_1495_2783)"/>
<path d="M95.9319 244.22C50.7019 270.346 14.2077 333.618 14.3301 385.584C14.4526 437.549 51.2326 458.532 96.4626 432.406C141.693 406.28 178.228 343.007 178.105 291.042C177.983 239.076 141.203 218.094 95.9319 244.22Z" fill="url(#paint18_linear_1495_2783)"/>
<path fill-rule="evenodd" clip-rule="evenodd" d="M144.272 253.816C156.086 260.585 163.748 275.353 163.786 297.133L163.786 297.135C163.842 318.906 156.258 343.177 143.844 364.804C131.431 386.431 114.292 405.235 95.4289 416.18C76.5728 427.112 59.9262 427.947 48.1055 421.169C36.2895 414.395 28.6187 399.625 28.5624 377.845C28.5061 356.075 36.0995 331.814 48.5178 310.196C60.9358 288.578 78.0753 269.783 96.9204 258.839C115.796 247.887 132.452 247.044 144.272 253.816ZM146.166 250.475C132.749 242.788 114.575 244.155 95.0076 255.508L95.0069 255.509C75.4463 266.869 57.8715 286.223 45.2053 308.273C32.5393 330.322 24.6787 355.246 24.7371 377.855C24.7956 400.454 32.7893 416.815 46.2105 424.51C59.627 432.202 77.7904 430.845 97.34 419.511L97.3405 419.511C116.921 408.15 134.496 388.786 147.158 366.726C159.819 344.668 167.669 319.734 167.611 297.126C167.572 274.528 159.588 258.165 146.166 250.475Z" fill="#FF9B14"/>
<path d="M421.499 64.3814L421.505 64.3854C423.138 64.5488 424.73 64.7526 426.24 65.0795L411.871 56.7109C411.192 56.5679 410.512 56.4483 409.825 56.3452C408.961 56.2156 408.086 56.1125 407.186 56.0223L407.177 56.0173C406.5 55.9575 405.813 55.9072 405.121 55.8718C404.395 55.8344 403.663 55.813 402.932 55.813C401.666 55.813 400.401 55.8538 399.094 55.9356C397.911 56.0173 396.686 56.1394 395.461 56.3028L409.83 64.6714C410.095 64.635 410.362 64.6001 410.631 64.5677C411 64.5234 411.372 64.4825 411.746 64.4457C411.964 64.4242 412.183 64.4038 412.402 64.3849L412.891 64.345L413.128 64.3271L413.463 64.3036C414.729 64.2224 416.035 64.1816 417.301 64.1816C418.713 64.1816 420.126 64.2613 421.499 64.3814Z" fill="url(#paint19_linear_1495_2783)"/>
<path d="M431.881 66.6043L431.996 66.6716C432.299 66.7797 432.601 66.8913 432.901 67.007C433.756 67.3358 434.6 67.6941 435.433 68.0813C435.856 68.2781 436.275 68.4819 436.692 68.6937C437.338 69.0221 437.978 69.3684 438.609 69.7332L424.24 61.3646C422.181 60.1537 419.963 59.1427 417.703 58.3304L417.586 58.2622C415.75 57.6089 413.831 57.0787 411.871 56.6701L426.24 65.0386C427.533 65.3287 428.775 65.6361 429.987 65.9934C430.626 66.1818 431.255 66.3836 431.881 66.6043Z" fill="url(#paint20_linear_1495_2783)"/>
<path d="M409.789 64.6714L395.421 56.3028C394.407 56.4428 393.394 56.6123 392.356 56.7862L391.828 56.8744L406.198 65.2429L406.713 65.1567C407.16 65.0815 407.603 65.0072 408.043 64.936C408.629 64.8408 409.209 64.7511 409.789 64.6714Z" fill="url(#paint21_linear_1495_2783)"/>
<path d="M391.869 56.9152L406.238 65.2833C405.095 65.4876 403.993 65.7328 402.891 66.0183L388.522 57.6497C389.624 57.3642 390.767 57.1191 391.869 56.9152Z" fill="url(#paint22_linear_1495_2783)"/>
<path d="M402.85 66.0183L388.481 57.6497C388.075 57.7549 387.663 57.86 387.248 57.9697C386.916 58.0574 386.581 58.1476 386.245 58.2427C385.862 58.3509 385.477 58.4655 385.093 58.5891C384.592 58.7371 384.101 58.8935 383.61 59.055C383.23 59.1795 382.851 59.3071 382.468 59.4357L381.827 59.6504C381.092 59.8951 380.358 60.1762 379.624 60.4572C379.256 60.5977 378.888 60.7388 378.521 60.8748L392.89 69.2434L396.196 68.0185L397.153 67.6996C397.934 67.4415 398.708 67.1893 399.462 66.9571C400.605 66.6307 401.748 66.3038 402.85 66.0183Z" fill="url(#paint23_linear_1495_2783)"/>
<path d="M378.521 60.9157L392.89 69.2842C391.787 69.6923 390.726 70.1822 389.624 70.672C388.522 71.1618 387.419 71.6925 386.317 72.2232L371.948 63.8547C373.05 63.324 374.152 62.7933 375.255 62.3034C376.357 61.8136 377.418 61.3646 378.521 60.9157Z" fill="url(#paint24_linear_1495_2783)"/>
<path d="M371.908 63.8547L386.277 72.2232C385.174 72.7948 384.072 73.3663 382.929 73.9783C382.072 74.4277 381.214 74.9176 380.316 75.4483L380.284 75.4293C380.14 75.5235 379.983 75.6172 379.821 75.7024C379.715 75.7577 379.608 75.81 379.5 75.8564L365.131 67.4878C365.34 67.3981 365.528 67.2865 365.725 67.1689L365.947 67.0388L365.982 67.0593C366.868 66.5366 367.714 66.0532 368.56 65.6102C369.662 64.9978 370.805 64.3854 371.908 63.8547Z" fill="url(#paint25_linear_1495_2783)"/>
<path d="M379.541 75.8972L365.172 67.5287C364.905 67.6911 364.636 67.8531 364.365 68.0155L364.21 68.1087C363.373 68.612 362.527 69.1213 361.702 69.6515C361.132 70.0058 360.571 70.369 360.014 70.7378C359.416 71.1339 358.824 71.5356 358.232 71.9377C357.072 72.737 355.912 73.5761 354.752 74.4158L354.681 74.4681C353.456 75.366 352.272 76.264 351.088 77.2033L351.069 77.2198C349.851 78.1939 348.633 79.1681 347.455 80.1832L361.824 88.5517C362.572 87.9074 363.335 87.2796 364.105 86.6577L364.7 86.1788L365.422 85.6013L365.457 85.5714C366.641 84.6326 367.825 83.7346 369.05 82.8367C370.193 81.9791 371.376 81.122 372.601 80.3058L372.674 80.2564L372.745 80.2086L373.594 79.634C373.795 79.4985 373.996 79.3635 374.198 79.2289C374.815 78.8183 375.437 78.4132 376.071 78.0195C377.214 77.285 378.357 76.5909 379.541 75.8972Z" fill="url(#paint26_linear_1495_2783)"/>
<path d="M347.414 80.1832L361.783 88.5517C360.559 89.5723 359.375 90.6337 358.15 91.7354C357.799 92.0623 357.445 92.3892 357.089 92.7161L357.005 92.7938C356.188 93.5463 355.363 94.3052 354.558 95.0831L354.021 95.6003L353.592 96.0159L353.177 96.4205L352.781 96.8082L352.3 97.2831C351.894 97.6877 351.488 98.0973 351.088 98.5119L351.064 98.498C350.523 99.0775 349.973 99.6475 349.423 100.218L349.384 100.258C348.833 100.83 348.282 101.401 347.741 101.982L347.702 102.025C347.066 102.735 346.431 103.444 345.795 104.144C345.382 104.598 344.97 105.048 344.557 105.493L330.188 97.1241C331.249 95.9401 332.311 94.7567 333.372 93.6135C334.474 92.4296 335.576 91.2461 336.719 90.103L336.744 90.1174C337.879 88.9429 339.054 87.8088 340.189 86.7145C340.665 86.2551 341.141 85.8021 341.619 85.3526C342.332 84.6849 343.049 84.0261 343.781 83.3674L343.962 83.1999L344.296 82.893C344.804 82.4291 345.318 81.9726 345.836 81.5241C346.36 81.0697 346.887 80.6227 347.414 80.1832Z" fill="url(#paint27_linear_1495_2783)"/>
<path d="M344.557 105.534L330.188 97.165C329.126 98.3898 328.065 99.6142 327.044 100.839C325.983 102.105 324.922 103.411 323.901 104.717C322.677 106.268 321.452 107.86 320.268 109.452L334.637 117.82L336.662 115.181C337.194 114.486 337.729 113.789 338.27 113.085C339.291 111.779 340.352 110.514 341.414 109.207C341.743 108.828 342.067 108.448 342.391 108.069L342.99 107.365C343.509 106.754 344.028 106.144 344.557 105.534Z" fill="url(#paint28_linear_1495_2783)"/>
<path d="M320.268 109.493L334.678 117.862C332.893 120.255 331.188 122.689 329.484 125.204L329.494 125.209C328.312 126.982 327.156 128.78 326.024 130.589C325.124 132.03 324.239 133.477 323.371 134.925L309.002 126.556C310.952 123.266 312.982 120.057 315.094 116.888L315.084 116.882C316.757 114.351 318.472 111.901 320.268 109.493Z" fill="url(#paint29_linear_1495_2783)"/>
<path d="M309.002 126.597L323.371 134.966C321.983 137.333 320.636 139.741 319.33 142.15C318.473 143.783 317.615 145.416 316.799 147.048C316.063 148.478 315.37 149.906 314.716 151.335L300.347 142.967L302.43 138.68C303.246 137.047 304.103 135.415 304.96 133.782L304.977 133.791C306.279 131.353 307.62 128.954 309.002 126.597Z" fill="url(#paint30_linear_1495_2783)"/>
<path d="M314.717 151.376L300.348 143.007L300.083 143.575L299.92 143.927C299.452 144.94 298.99 145.965 298.552 146.967C297.98 148.273 297.408 149.579 296.877 150.885C296.347 152.192 295.775 153.539 295.285 154.845L309.655 163.214C309.889 162.588 310.133 161.953 310.387 161.318C310.662 160.627 310.949 159.935 311.247 159.254L311.388 158.91L311.6 158.399C311.7 158.159 311.801 157.92 311.903 157.68C312.237 156.898 312.579 156.117 312.92 155.335C313.492 153.988 314.104 152.682 314.717 151.376Z" fill="url(#paint31_linear_1495_2783)"/>
<path d="M293.735 158.846C293.928 158.313 294.122 157.786 294.319 157.261C294.487 156.81 294.658 156.36 294.831 155.907L295.023 155.411L295.245 154.845L309.614 163.214C309.312 164.044 308.995 164.874 308.681 165.695C308.486 166.206 308.292 166.713 308.104 167.214C307.94 167.677 307.777 168.144 307.613 168.611C307.287 169.546 306.961 170.48 306.634 171.378L292.265 163.01L293.735 158.846Z" fill="url(#paint32_linear_1495_2783)"/>
<path d="M292.305 163.051L306.675 171.419C306.185 172.807 305.736 174.236 305.328 175.664L305.323 175.687L305.036 176.603L304.847 177.212C304.566 178.129 304.298 179.052 304.063 179.992C303.654 181.42 303.246 182.89 302.919 184.318C302.552 185.747 302.225 187.176 301.94 188.605L287.571 180.237C287.68 179.692 287.795 179.148 287.915 178.604C287.97 178.357 288.026 178.11 288.083 177.864C288.157 177.543 288.233 177.222 288.312 176.901L288.432 176.414L288.55 175.95C288.918 174.521 289.285 173.052 289.693 171.623L289.915 170.843L289.918 170.831C290.252 169.655 290.592 168.462 290.959 167.296C291.367 165.867 291.816 164.479 292.305 163.051Z" fill="url(#paint33_linear_1495_2783)"/>
<path d="M287.53 180.236L301.899 188.605C301.613 190.033 301.286 191.462 301.042 192.891C300.796 194.279 300.551 195.626 300.306 197.014L300.241 197.457C300.132 198.196 300.024 198.926 299.924 199.66C299.857 200.149 299.794 200.64 299.735 201.137C299.572 202.484 299.409 203.831 299.286 205.138L299.261 205.412L299.258 205.447C299.145 206.686 299.036 207.894 298.96 209.138C298.878 210.436 298.837 211.775 298.757 213.074L298.796 213.098C298.777 213.695 298.757 214.292 298.746 214.894C298.735 215.526 298.735 216.164 298.756 216.812V217.057C298.756 217.404 298.756 217.749 298.757 218.092L298.759 218.435L298.765 218.963C298.775 219.637 298.795 220.307 298.837 220.976C298.855 221.565 298.882 222.153 298.917 222.738C298.933 223.003 298.95 223.268 298.97 223.531C298.984 223.732 299 223.932 299.017 224.132L299.043 224.429L299.082 224.854C299.113 225.374 299.157 225.887 299.209 226.397C299.288 227.194 299.386 227.981 299.485 228.77L299.49 228.773C299.654 230.12 299.857 231.426 300.062 232.691C300.307 234.08 300.552 235.386 300.878 236.692C301.205 238.162 301.573 239.55 301.981 240.856L287.611 232.488C287.203 231.14 286.836 229.752 286.509 228.324C286.183 227.018 285.938 225.67 285.692 224.323C285.491 223.072 285.289 221.78 285.126 220.448L285.121 220.445C285.082 220.127 285.044 219.808 285.009 219.489C284.978 219.218 284.949 218.947 284.922 218.674C284.847 217.953 284.78 217.225 284.713 216.486C284.64 215.732 284.581 214.964 284.537 214.189C284.507 213.664 284.485 213.136 284.468 212.608C284.428 211.315 284.387 210.021 284.386 208.689V208.444C284.386 208.045 284.386 207.65 284.388 207.257C284.39 206.414 284.399 205.583 284.426 204.752L284.386 204.729C284.427 203.423 284.508 202.076 284.591 200.769C284.672 199.423 284.795 198.116 284.917 196.769C285.038 195.479 285.199 194.148 285.36 192.818L285.366 192.769C285.508 191.566 285.68 190.394 285.856 189.2L285.863 189.148L285.938 188.646L286.159 187.413L286.316 186.534L286.673 184.523C286.731 184.182 286.791 183.842 286.854 183.503C286.97 182.879 287.093 182.255 287.224 181.631L287.303 181.259L287.366 180.969C287.419 180.725 287.474 180.48 287.53 180.236Z" fill="url(#paint34_linear_1495_2783)"/>
<path d="M301.94 240.897L287.571 232.529C288.02 233.998 288.469 235.468 288.999 236.855C289.341 237.765 289.694 238.649 290.061 239.508C290.352 240.191 290.651 240.858 290.959 241.509L291.015 241.542C291.95 243.489 292.965 245.356 294.102 247.102L308.471 255.47C307.328 253.715 306.307 251.837 305.369 249.878L305.313 249.845C305.196 249.59 305.08 249.333 304.965 249.075C304.803 248.711 304.643 248.344 304.485 247.975C304.098 247.072 303.727 246.155 303.368 245.224C302.879 243.795 302.389 242.367 301.94 240.897Z" fill="url(#paint35_linear_1495_2783)"/>
<path d="M294.061 247.102L308.43 255.47C312.209 261.402 317 266.041 322.519 269.264L308.226 260.94C302.633 257.715 297.857 253.061 294.061 247.102Z" fill="url(#paint36_linear_1495_2783)"/>
<path d="M380.315 75.4076C335.085 101.533 298.59 164.806 298.713 216.772C298.835 268.737 335.615 289.719 380.845 263.594C426.075 237.468 462.61 174.195 462.488 122.23C462.366 70.2642 425.586 49.282 380.315 75.4076Z" fill="url(#paint37_linear_1495_2783)"/>
<path fill-rule="evenodd" clip-rule="evenodd" d="M428.657 85.0034C440.471 91.7726 448.133 106.541 448.171 128.321L448.171 128.322C448.227 150.093 440.643 174.364 428.229 195.992C415.816 217.619 398.677 236.422 379.814 247.367C360.958 258.299 344.311 259.134 332.49 252.357C320.674 245.582 313.003 230.813 312.947 209.033C312.891 187.263 320.484 163.001 332.903 141.383C345.321 119.766 362.46 100.971 381.305 90.026C400.181 79.0746 416.837 78.2312 428.657 85.0034ZM430.551 81.6622C417.133 73.9748 398.96 75.3425 379.392 86.6956L379.392 86.696C359.831 98.0562 342.256 117.41 329.59 139.46C316.924 161.509 309.063 186.434 309.122 209.043C309.18 231.641 317.174 248.003 330.595 255.697C344.012 263.389 362.175 262.032 381.725 250.698L381.725 250.698C401.306 239.337 418.881 219.973 431.542 197.914C444.203 175.855 452.054 150.921 451.996 128.313C451.957 105.715 443.973 89.3526 430.551 81.6622Z" fill="#FF9B14"/>
<path d="M236.929 18.3973C207.293 35.5014 180.473 64.6478 160.879 98.0804L143.897 89.0181L124.67 196.092L129.079 192.092L168.716 155.802L205.701 121.92L193.658 115.511C210.681 92.8961 231.01 73.7509 252.89 61.1372C291.833 38.6446 326.083 42.441 345.473 66.6072C339.023 7.90621 292.854 -13.8924 236.929 18.3973Z" fill="url(#paint38_linear_1495_2783)"/>
<path d="M297.875 4.59937C295.834 4.19126 293.793 3.90573 291.67 3.70143C289.874 3.53798 288.037 3.45626 286.159 3.45626C284.486 3.45626 282.73 3.49712 281.016 3.6197C280.22 3.6795 279.425 3.74876 278.624 3.828C277.782 3.91121 276.935 4.00489 276.076 4.10954C275.181 4.22764 274.3 4.37264 273.417 4.52911C272.91 4.61881 272.401 4.71299 271.891 4.80767L271.805 4.82262L271.464 4.8854L265.708 1.53778C266.391 1.39426 267.074 1.2662 267.753 1.15059C268.617 1.00359 269.475 0.876523 270.321 0.762411C271.025 0.676204 271.722 0.597472 272.415 0.526214C273.369 0.428047 274.314 0.343335 275.26 0.272576C275.787 0.235203 276.319 0.204806 276.85 0.181385C277.114 0.169426 277.379 0.15946 277.643 0.150989C278.574 0.12109 279.501 0.109131 280.404 0.109131C282.281 0.109131 284.118 0.190853 285.915 0.354298C288.037 0.558105 290.119 0.844133 292.119 1.25225C294.773 1.78294 297.345 2.47659 299.835 3.37503C302.937 4.43643 305.876 5.82421 308.693 7.45716L314.449 10.8043C311.632 9.17134 308.693 7.78356 305.59 6.72216C303.1 5.82421 300.528 5.13007 297.875 4.59937Z" fill="url(#paint39_linear_1495_2783)"/>
<path d="M330.45 53.5441L324.695 50.1969C330.369 53.5037 335.431 57.8714 339.717 63.2596L345.473 66.6072C341.145 61.2185 336.124 56.8508 330.45 53.5441Z" fill="url(#paint40_linear_1495_2783)"/>
<path d="M205.66 121.92L199.904 118.572L187.903 112.163L193.658 115.511L205.66 121.92Z" fill="url(#paint41_linear_1495_2783)"/>
<path d="M271.423 4.8854L265.667 1.53778C264.157 1.8238 262.647 2.1502 261.095 2.55831L261.107 2.56529L260.726 2.66146C260.429 2.7367 260.131 2.81394 259.832 2.89267C259.578 2.95945 259.324 3.02771 259.069 3.09698C258.271 3.31424 257.473 3.54296 256.686 3.78315L262.442 7.13027C263.912 6.6813 265.422 6.27319 266.892 5.90593L266.88 5.89896C268.421 5.5337 269.962 5.16894 271.423 4.8854Z" fill="url(#paint42_linear_1495_2783)"/>
<path d="M262.401 7.13027L256.645 3.78315C255.176 4.23212 253.747 4.6811 252.278 5.21179C250.808 5.74249 249.339 6.27319 247.869 6.84475L253.625 10.1919C255.135 9.62031 256.564 9.08962 258.034 8.55892C259.503 8.06909 260.973 7.57925 262.401 7.13027Z" fill="url(#paint43_linear_1495_2783)"/>
<path d="M253.625 10.2327L247.869 6.88561C246.44 7.45716 244.971 8.06909 243.501 8.72237L243.519 8.73283C242.057 9.38312 240.596 10.0733 239.133 10.8043C237.663 11.5393 236.153 12.3147 234.684 13.1309L240.44 16.4785C241.909 15.6623 243.379 14.8864 244.889 14.1514C245.571 13.8106 246.252 13.4787 246.934 13.1558L247.472 12.9027L247.886 12.7103L248.145 12.5907C248.529 12.4143 248.914 12.2404 249.298 12.07L249.281 12.06C250.172 11.6743 251.035 11.3031 251.887 10.9458C252.47 10.7016 253.047 10.4639 253.625 10.2327Z" fill="url(#paint44_linear_1495_2783)"/>
<path d="M234.643 13.1309L240.399 16.4785C239.664 16.8722 238.93 17.2823 238.185 17.6984C237.77 17.9301 237.352 18.1633 236.929 18.397C236.696 18.543 236.442 18.689 236.182 18.8345L235.868 19.0094C235.099 19.4659 234.32 19.9333 233.536 20.4116C232.785 20.8696 232.03 21.337 231.274 21.8139L231.296 21.8263C229.744 22.806 228.193 23.8265 226.642 24.8879C226.002 25.3424 225.355 25.7969 224.705 26.2543L224.401 26.4681C223.579 27.0451 222.752 27.6281 221.925 28.2221L221.947 28.2351C220.927 28.9746 219.923 29.73 218.935 30.5019C218.342 30.9653 217.754 31.4342 217.172 31.9091L211.416 28.562C212.961 27.3012 214.587 26.0809 216.174 24.9014L216.151 24.8879C216.974 24.2969 217.787 23.7164 218.599 23.1414C219 22.8583 219.401 22.5763 219.803 22.2948C220.162 22.0426 220.523 21.7915 220.886 21.5403C221.483 21.1312 222.081 20.7286 222.678 20.3319C222.97 20.1386 223.261 19.9462 223.553 19.7554C224.209 19.3268 224.864 18.9053 225.52 18.4912L225.499 18.4787C226.035 18.1404 226.567 17.8065 227.096 17.4771L227.713 17.0964C228.004 16.9175 228.295 16.7401 228.587 16.5642C229.093 16.2593 229.6 15.9583 230.112 15.6623C230.479 15.458 230.806 15.2542 231.173 15.0499L231.207 15.0698C232.34 14.3836 233.512 13.7373 234.643 13.1309Z" fill="url(#paint45_linear_1495_2783)"/>
<path d="M211.375 28.562L217.131 31.9091C215.883 32.8758 214.661 33.8904 213.424 34.9144L213.387 34.9458C213.017 35.2527 212.646 35.5607 212.273 35.8686C211.407 36.6041 210.553 37.3401 209.698 38.0881C208.941 38.7513 208.183 39.4235 207.415 40.1142C205.823 41.5429 204.231 43.0532 202.639 44.5636C201.966 45.2009 201.293 45.8542 200.623 46.516C199.749 47.3795 198.881 48.2575 198.026 49.1356C196.516 50.6459 195.046 52.1971 193.618 53.7892L187.862 50.4421C189.29 48.85 190.76 47.2988 192.271 45.7884C193.772 44.2467 195.313 42.7448 196.855 41.2434L196.883 41.2165C198.043 40.0868 199.249 38.9796 200.449 37.8783L200.474 37.8559C200.87 37.4921 201.266 37.1293 201.659 36.7666C203.251 35.2971 204.884 33.9093 206.517 32.5215C208.109 31.1741 209.742 29.868 211.375 28.562Z" fill="url(#paint46_linear_1495_2783)"/>
<path d="M193.577 53.7892L187.821 50.4421C186.875 51.4691 185.929 52.4961 184.995 53.5351C184.519 54.0653 184.045 54.5985 183.576 55.1362C182.784 56.0436 181.993 56.951 181.209 57.8664C180.618 58.5565 180.032 59.2512 179.453 59.9533C178.024 61.668 176.636 63.3821 175.248 65.1377C173.697 67.097 172.186 69.0972 170.676 71.0974C169.964 72.0567 169.26 73.0204 168.563 73.9906C167.183 75.9101 165.827 77.8535 164.471 79.8333L164.501 79.8502C161.198 84.7027 158.099 89.6364 155.123 94.7331L138.101 85.6704L118.874 192.785L124.63 196.133L143.856 89.0175L160.879 98.0802C163.818 93.0184 166.961 88.0384 170.268 83.1804L170.239 83.1634C172.276 80.2299 174.354 77.2969 176.432 74.4451L176.456 74.4137C177.958 72.4239 179.461 70.4342 181.004 68.4848C182.392 66.7298 183.78 65.0151 185.208 63.3004C185.876 62.4907 186.555 61.6909 187.239 60.8961L187.605 60.4715L187.94 60.0839L188.106 59.8925L189.331 58.4838C190.719 56.8917 192.148 55.2996 193.577 53.7892Z" fill="url(#paint47_linear_1495_2783)"/>
<path d="M369.969 293.247L365.56 297.288L325.923 333.578L288.938 367.46L300.981 373.869C283.958 396.484 263.629 415.629 241.749 428.243C202.765 450.735 168.516 446.98 149.166 422.773C155.616 481.474 201.785 503.272 257.71 470.983C287.346 453.879 314.166 424.773 333.76 391.3L350.742 400.362L369.969 293.247Z" fill="url(#paint48_linear_1495_2783)"/>
<path d="M364.213 289.94L369.969 293.247L288.939 367.5L283.183 364.153L359.804 293.94L364.213 289.94Z" fill="url(#paint49_linear_1495_2783)"/>
<path d="M295.225 370.562L300.981 373.909C299.878 375.379 298.735 376.849 297.593 378.277C296.245 380.032 294.857 381.747 293.429 383.421C292.806 384.175 292.175 384.93 291.539 385.676C290.988 386.323 290.433 386.965 289.877 387.595L289.587 387.922L289.306 388.237C287.918 389.83 286.53 391.381 285.101 392.891L279.345 389.544C280.774 388.034 282.162 386.482 283.55 384.89L283.577 384.859L284.139 384.214L284.53 383.764C284.71 383.558 284.89 383.351 285.069 383.143L285.245 382.939C286.063 381.993 286.875 381.04 287.673 380.073C289.061 378.4 290.449 376.685 291.837 374.93C292.98 373.501 294.122 372.032 295.225 370.562Z" fill="url(#paint50_linear_1495_2783)"/>
<path d="M285.101 392.932L279.345 389.585C278.879 390.09 278.413 390.586 277.947 391.079C277.434 391.621 276.92 392.159 276.406 392.696L276.26 392.849C275.822 393.307 275.385 393.766 274.947 394.228L274.896 394.198C273.385 395.749 271.834 397.259 270.283 398.77C268.691 400.28 267.099 401.75 265.507 403.219C265.216 403.48 264.924 403.741 264.631 404.002L264.002 404.559L263.393 405.095C262.484 405.892 261.567 406.685 260.649 407.465C259.057 408.812 257.424 410.158 255.792 411.424C254.2 412.689 252.608 413.914 251.015 415.098L256.771 418.445L257.392 417.981C257.728 417.73 258.063 417.476 258.399 417.22C259.032 416.739 259.664 416.251 260.296 415.757C260.713 415.431 261.13 415.103 261.547 414.771C263.18 413.506 264.813 412.159 266.405 410.812C268.038 409.424 269.671 408.036 271.263 406.566C272.896 405.138 274.488 403.627 276.039 402.117C276.522 401.659 277.005 401.194 277.486 400.724C277.84 400.378 278.193 400.029 278.545 399.678C278.938 399.287 279.329 398.893 279.718 398.499C280.027 398.185 280.335 397.87 280.641 397.556L280.693 397.586L285.101 392.932Z" fill="url(#paint51_linear_1495_2783)"/>
<path d="M250.975 415.098L256.731 418.445C255.185 419.584 253.64 420.682 252.014 421.78L252.036 421.793C250.485 422.854 248.934 423.874 247.382 424.855C246.673 425.315 245.954 425.766 245.235 426.208C244.423 426.707 243.611 427.195 242.81 427.671L242.774 427.69L242.41 427.895C242.302 427.955 242.195 428.016 242.091 428.077C241.974 428.146 241.859 428.215 241.749 428.283C240.606 428.978 239.422 429.63 238.279 430.243C237.376 430.731 236.487 431.19 235.604 431.646L235.548 431.675C234.974 431.972 234.402 432.267 233.83 432.569L233.774 432.536C232.316 433.264 230.86 433.953 229.403 434.6L229.421 434.61C227.951 435.264 226.482 435.876 225.053 436.448C223.584 437.06 222.114 437.591 220.685 438.081L214.93 434.733C216.358 434.243 217.828 433.672 219.297 433.1C220.759 432.532 222.18 431.923 223.642 431.273L223.625 431.263C224.732 430.771 225.84 430.256 226.948 429.717L227.432 429.479L228.033 429.181L228.09 429.214C228.644 428.937 229.198 428.654 229.754 428.366C230.668 427.891 231.588 427.401 232.523 426.896C233.666 426.242 234.85 425.589 235.993 424.936C236.361 424.732 236.687 424.528 237.054 424.324C238.565 423.425 240.116 422.487 241.626 421.507C242.442 420.992 243.258 420.465 244.074 419.928C244.803 419.447 245.532 418.957 246.261 418.458L246.239 418.445L246.659 418.164C246.863 418.026 247.067 417.887 247.272 417.746C247.745 417.421 248.217 417.09 248.688 416.756L249.16 416.418C249.769 415.981 250.375 415.54 250.975 415.098Z" fill="url(#paint52_linear_1495_2783)"/>
<path d="M220.685 438.121L214.93 434.774C213.46 435.305 211.99 435.753 210.521 436.202C209.499 436.506 208.495 436.791 207.498 437.058C207.022 437.186 206.547 437.309 206.071 437.427C204.561 437.795 203.05 438.162 201.54 438.448L200.945 438.557C200.548 438.629 200.149 438.701 199.751 438.771C199.311 438.847 198.873 438.922 198.437 438.992C198.123 439.042 197.811 439.091 197.502 439.136L197.267 439.17L196.886 439.223C195.253 439.428 193.62 439.632 192.028 439.713C190.273 439.836 188.559 439.876 186.885 439.876L192.641 443.224C194.315 443.224 196.029 443.183 197.784 443.061L198.216 443.026L198.674 442.988C199.044 442.956 199.414 442.922 199.786 442.885C200.509 442.815 201.237 442.737 201.98 442.65L202.642 442.571C204.153 442.367 205.704 442.081 207.296 441.795C208.806 441.509 210.317 441.142 211.827 440.774C213.297 440.407 214.766 439.999 216.276 439.55C216.774 439.398 217.266 439.242 217.759 439.082C218.134 438.96 218.509 438.837 218.886 438.712L219.122 438.635C219.637 438.464 220.156 438.293 220.685 438.121Z" fill="url(#paint53_linear_1495_2783)"/>
<path d="M186.844 439.876L192.6 443.224C191.924 443.224 191.248 443.214 190.573 443.192C190.145 443.179 189.717 443.161 189.291 443.139C188.524 443.1 187.762 443.046 187.007 442.979C184.885 442.775 182.803 442.489 180.762 442.081C178.15 441.55 175.619 440.856 173.169 439.999C170.026 438.897 167.046 437.55 164.188 435.876L158.433 432.529C161.249 434.161 164.27 435.55 167.413 436.651C169.863 437.509 172.394 438.203 175.006 438.733C175.353 438.803 175.7 438.868 176.048 438.931C176.607 439.031 177.17 439.123 177.735 439.206C178.895 439.378 180.067 439.518 181.252 439.632C183.089 439.795 184.966 439.876 186.844 439.876Z" fill="url(#paint54_linear_1495_2783)"/>
<path d="M149.167 422.813L143.411 419.466C143.492 420.078 143.533 420.691 143.615 421.303L143.653 421.625L143.702 422.017C143.791 422.716 143.892 423.414 143.999 424.108L144.076 424.607L144.189 425.309C144.25 425.684 144.312 426.056 144.374 426.426L144.39 426.528C144.717 428.365 145.084 430.161 145.452 431.917L145.498 431.944C145.906 433.812 146.393 435.599 146.921 437.386L152.677 440.734C152.146 438.938 151.657 437.141 151.248 435.264L151.202 435.237C150.836 433.49 150.471 431.703 150.146 429.875C149.86 428.161 149.575 426.446 149.37 424.65C149.334 424.38 149.298 424.109 149.266 423.838C149.225 423.497 149.189 423.155 149.167 422.813Z" fill="url(#paint55_linear_1495_2783)"/>
<path d="M146.88 437.386L152.636 440.734C153.205 442.682 153.854 444.551 154.503 446.419L154.555 446.449C154.677 446.773 154.8 447.096 154.924 447.418C155.256 448.276 155.596 449.127 155.949 449.968C156.349 450.918 156.766 451.855 157.208 452.776C158.422 455.324 159.755 457.752 161.209 460.059L161.249 460.083C166.277 467.989 172.593 474.163 179.997 478.486L174.394 475.228C166.944 470.913 160.59 464.729 155.535 456.8L155.494 456.777C154.024 454.449 152.677 452 151.452 449.429C150.518 447.437 149.623 445.325 148.81 443.131L148.758 443.102C148.297 441.805 147.837 440.469 147.404 439.106C147.283 438.724 147.165 438.341 147.049 437.955L146.963 437.669L146.88 437.386Z" fill="url(#paint56_linear_1495_2783)"/>
<defs>
<linearGradient id="paint0_linear_1495_2783" x1="128.269" y1="206.066" x2="20.6594" y2="423.221" gradientUnits="userSpaceOnUse">
<stop stop-color="#FEAD37"/>
<stop offset="0.457924" stop-color="#FFDFA0"/>
<stop offset="1" stop-color="#FEAD37"/>
</linearGradient>
<linearGradient id="paint1_linear_1495_2783" x1="128.269" y1="206.066" x2="20.6594" y2="423.221" gradientUnits="userSpaceOnUse">
<stop stop-color="#FEAD37"/>
<stop offset="0.457924" stop-color="#FFDFA0"/>
<stop offset="1" stop-color="#FEAD37"/>
</linearGradient>
<linearGradient id="paint2_linear_1495_2783" x1="128.269" y1="206.066" x2="20.6594" y2="423.221" gradientUnits="userSpaceOnUse">
<stop stop-color="#FEAD37"/>
<stop offset="0.457924" stop-color="#FFDFA0"/>
<stop offset="1" stop-color="#FEAD37"/>
</linearGradient>
<linearGradient id="paint3_linear_1495_2783" x1="128.269" y1="206.066" x2="20.6594" y2="423.221" gradientUnits="userSpaceOnUse">
<stop stop-color="#FEAD37"/>
<stop offset="0.457924" stop-color="#FFDFA0"/>
<stop offset="1" stop-color="#FEAD37"/>
</linearGradient>
<linearGradient id="paint4_linear_1495_2783" x1="128.269" y1="206.066" x2="20.6594" y2="423.221" gradientUnits="userSpaceOnUse">
<stop stop-color="#FEAD37"/>
<stop offset="0.457924" stop-color="#FFDFA0"/>
<stop offset="1" stop-color="#FEAD37"/>
</linearGradient>
<linearGradient id="paint5_linear_1495_2783" x1="128.269" y1="206.066" x2="20.6594" y2="423.221" gradientUnits="userSpaceOnUse">
<stop stop-color="#FEAD37"/>
<stop offset="0.457924" stop-color="#FFDFA0"/>
<stop offset="1" stop-color="#FEAD37"/>
</linearGradient>
<linearGradient id="paint6_linear_1495_2783" x1="128.269" y1="206.066" x2="20.6594" y2="423.221" gradientUnits="userSpaceOnUse">
<stop stop-color="#FEAD37"/>
<stop offset="0.457924" stop-color="#FFDFA0"/>
<stop offset="1" stop-color="#FEAD37"/>
</linearGradient>
<linearGradient id="paint7_linear_1495_2783" x1="128.269" y1="206.066" x2="20.6594" y2="423.221" gradientUnits="userSpaceOnUse">
<stop stop-color="#FEAD37"/>
<stop offset="0.457924" stop-color="#FFDFA0"/>
<stop offset="1" stop-color="#FEAD37"/>
</linearGradient>
<linearGradient id="paint8_linear_1495_2783" x1="128.269" y1="206.066" x2="20.6594" y2="423.221" gradientUnits="userSpaceOnUse">
<stop stop-color="#FEAD37"/>
<stop offset="0.457924" stop-color="#FFDFA0"/>
<stop offset="1" stop-color="#FEAD37"/>
</linearGradient>
<linearGradient id="paint9_linear_1495_2783" x1="128.269" y1="206.066" x2="20.6594" y2="423.221" gradientUnits="userSpaceOnUse">
<stop stop-color="#FEAD37"/>
<stop offset="0.457924" stop-color="#FFDFA0"/>
<stop offset="1" stop-color="#FEAD37"/>
</linearGradient>
<linearGradient id="paint10_linear_1495_2783" x1="128.269" y1="206.066" x2="20.6594" y2="423.221" gradientUnits="userSpaceOnUse">
<stop stop-color="#FEAD37"/>
<stop offset="0.457924" stop-color="#FFDFA0"/>
<stop offset="1" stop-color="#FEAD37"/>
</linearGradient>
<linearGradient id="paint11_linear_1495_2783" x1="128.269" y1="206.066" x2="20.6594" y2="423.221" gradientUnits="userSpaceOnUse">
<stop stop-color="#FEAD37"/>
<stop offset="0.457924" stop-color="#FFDFA0"/>
<stop offset="1" stop-color="#FEAD37"/>
</linearGradient>
<linearGradient id="paint12_linear_1495_2783" x1="128.269" y1="206.066" x2="20.6594" y2="423.221" gradientUnits="userSpaceOnUse">
<stop stop-color="#FEAD37"/>
<stop offset="0.457924" stop-color="#FFDFA0"/>
<stop offset="1" stop-color="#FEAD37"/>
</linearGradient>
<linearGradient id="paint13_linear_1495_2783" x1="128.269" y1="206.066" x2="20.6594" y2="423.221" gradientUnits="userSpaceOnUse">
<stop stop-color="#FEAD37"/>
<stop offset="0.457924" stop-color="#FFDFA0"/>
<stop offset="1" stop-color="#FEAD37"/>
</linearGradient>
<linearGradient id="paint14_linear_1495_2783" x1="128.269" y1="206.066" x2="20.6594" y2="423.221" gradientUnits="userSpaceOnUse">
<stop stop-color="#FEAD37"/>
<stop offset="0.457924" stop-color="#FFDFA0"/>
<stop offset="1" stop-color="#FEAD37"/>
</linearGradient>
<linearGradient id="paint15_linear_1495_2783" x1="128.269" y1="206.066" x2="20.6594" y2="423.221" gradientUnits="userSpaceOnUse">
<stop stop-color="#FEAD37"/>
<stop offset="0.457924" stop-color="#FFDFA0"/>
<stop offset="1" stop-color="#FEAD37"/>
</linearGradient>
<linearGradient id="paint16_linear_1495_2783" x1="128.269" y1="206.066" x2="20.6594" y2="423.221" gradientUnits="userSpaceOnUse">
<stop stop-color="#FEAD37"/>
<stop offset="0.457924" stop-color="#FFDFA0"/>
<stop offset="1" stop-color="#FEAD37"/>
</linearGradient>
<linearGradient id="paint17_linear_1495_2783" x1="128.269" y1="206.066" x2="20.6594" y2="423.221" gradientUnits="userSpaceOnUse">
<stop stop-color="#FEAD37"/>
<stop offset="0.457924" stop-color="#FFDFA0"/>
<stop offset="1" stop-color="#FEAD37"/>
</linearGradient>
<linearGradient id="paint18_linear_1495_2783" x1="96.2176" y1="232.982" x2="96.2176" y2="443.644" gradientUnits="userSpaceOnUse">
<stop stop-color="#FFCF6B"/>
<stop offset="1" stop-color="#FFDD99"/>
</linearGradient>
<linearGradient id="paint19_linear_1495_2783" x1="412.651" y1="37.2537" x2="305.042" y2="254.409" gradientUnits="userSpaceOnUse">
<stop stop-color="#FEAD37"/>
<stop offset="0.457924" stop-color="#FFDFA0"/>
<stop offset="1" stop-color="#FEAD37"/>
</linearGradient>
<linearGradient id="paint20_linear_1495_2783" x1="412.651" y1="37.2537" x2="305.042" y2="254.409" gradientUnits="userSpaceOnUse">
<stop stop-color="#FEAD37"/>
<stop offset="0.457924" stop-color="#FFDFA0"/>
<stop offset="1" stop-color="#FEAD37"/>
</linearGradient>
<linearGradient id="paint21_linear_1495_2783" x1="412.651" y1="37.2537" x2="305.042" y2="254.409" gradientUnits="userSpaceOnUse">
<stop stop-color="#FEAD37"/>
<stop offset="0.457924" stop-color="#FFDFA0"/>
<stop offset="1" stop-color="#FEAD37"/>
</linearGradient>
<linearGradient id="paint22_linear_1495_2783" x1="412.651" y1="37.2537" x2="305.042" y2="254.409" gradientUnits="userSpaceOnUse">
<stop stop-color="#FEAD37"/>
<stop offset="0.457924" stop-color="#FFDFA0"/>
<stop offset="1" stop-color="#FEAD37"/>
</linearGradient>
<linearGradient id="paint23_linear_1495_2783" x1="412.651" y1="37.2537" x2="305.042" y2="254.409" gradientUnits="userSpaceOnUse">
<stop stop-color="#FEAD37"/>
<stop offset="0.457924" stop-color="#FFDFA0"/>
<stop offset="1" stop-color="#FEAD37"/>
</linearGradient>
<linearGradient id="paint24_linear_1495_2783" x1="412.651" y1="37.2537" x2="305.042" y2="254.409" gradientUnits="userSpaceOnUse">
<stop stop-color="#FEAD37"/>
<stop offset="0.457924" stop-color="#FFDFA0"/>
<stop offset="1" stop-color="#FEAD37"/>
</linearGradient>
<linearGradient id="paint25_linear_1495_2783" x1="412.651" y1="37.2537" x2="305.042" y2="254.409" gradientUnits="userSpaceOnUse">
<stop stop-color="#FEAD37"/>
<stop offset="0.457924" stop-color="#FFDFA0"/>
<stop offset="1" stop-color="#FEAD37"/>
</linearGradient>
<linearGradient id="paint26_linear_1495_2783" x1="412.651" y1="37.2537" x2="305.042" y2="254.409" gradientUnits="userSpaceOnUse">
<stop stop-color="#FEAD37"/>
<stop offset="0.457924" stop-color="#FFDFA0"/>
<stop offset="1" stop-color="#FEAD37"/>
</linearGradient>
<linearGradient id="paint27_linear_1495_2783" x1="412.651" y1="37.2537" x2="305.042" y2="254.409" gradientUnits="userSpaceOnUse">
<stop stop-color="#FEAD37"/>
<stop offset="0.457924" stop-color="#FFDFA0"/>
<stop offset="1" stop-color="#FEAD37"/>
</linearGradient>
<linearGradient id="paint28_linear_1495_2783" x1="412.651" y1="37.2537" x2="305.042" y2="254.409" gradientUnits="userSpaceOnUse">
<stop stop-color="#FEAD37"/>
<stop offset="0.457924" stop-color="#FFDFA0"/>
<stop offset="1" stop-color="#FEAD37"/>
</linearGradient>
<linearGradient id="paint29_linear_1495_2783" x1="412.651" y1="37.2537" x2="305.042" y2="254.409" gradientUnits="userSpaceOnUse">
<stop stop-color="#FEAD37"/>
<stop offset="0.457924" stop-color="#FFDFA0"/>
<stop offset="1" stop-color="#FEAD37"/>
</linearGradient>
<linearGradient id="paint30_linear_1495_2783" x1="412.651" y1="37.2537" x2="305.042" y2="254.409" gradientUnits="userSpaceOnUse">
<stop stop-color="#FEAD37"/>
<stop offset="0.457924" stop-color="#FFDFA0"/>
<stop offset="1" stop-color="#FEAD37"/>
</linearGradient>
<linearGradient id="paint31_linear_1495_2783" x1="412.651" y1="37.2537" x2="305.042" y2="254.409" gradientUnits="userSpaceOnUse">
<stop stop-color="#FEAD37"/>
<stop offset="0.457924" stop-color="#FFDFA0"/>
<stop offset="1" stop-color="#FEAD37"/>
</linearGradient>
<linearGradient id="paint32_linear_1495_2783" x1="412.651" y1="37.2537" x2="305.042" y2="254.409" gradientUnits="userSpaceOnUse">
<stop stop-color="#FEAD37"/>
<stop offset="0.457924" stop-color="#FFDFA0"/>
<stop offset="1" stop-color="#FEAD37"/>
</linearGradient>
<linearGradient id="paint33_linear_1495_2783" x1="412.651" y1="37.2537" x2="305.042" y2="254.409" gradientUnits="userSpaceOnUse">
<stop stop-color="#FEAD37"/>
<stop offset="0.457924" stop-color="#FFDFA0"/>
<stop offset="1" stop-color="#FEAD37"/>
</linearGradient>
<linearGradient id="paint34_linear_1495_2783" x1="412.651" y1="37.2537" x2="305.042" y2="254.409" gradientUnits="userSpaceOnUse">
<stop stop-color="#FEAD37"/>
<stop offset="0.457924" stop-color="#FFDFA0"/>
<stop offset="1" stop-color="#FEAD37"/>
</linearGradient>
<linearGradient id="paint35_linear_1495_2783" x1="412.651" y1="37.2537" x2="305.042" y2="254.409" gradientUnits="userSpaceOnUse">
<stop stop-color="#FEAD37"/>
<stop offset="0.457924" stop-color="#FFDFA0"/>
<stop offset="1" stop-color="#FEAD37"/>
</linearGradient>
<linearGradient id="paint36_linear_1495_2783" x1="412.651" y1="37.2537" x2="305.042" y2="254.409" gradientUnits="userSpaceOnUse">
<stop stop-color="#FEAD37"/>
<stop offset="0.457924" stop-color="#FFDFA0"/>
<stop offset="1" stop-color="#FEAD37"/>
</linearGradient>
<linearGradient id="paint37_linear_1495_2783" x1="380.6" y1="64.1699" x2="380.6" y2="274.831" gradientUnits="userSpaceOnUse">
<stop stop-color="#FFCF6B"/>
<stop offset="1" stop-color="#FFDD99"/>
</linearGradient>
<linearGradient id="paint38_linear_1495_2783" x1="277.797" y1="70.4896" x2="127.101" y2="73.986" gradientUnits="userSpaceOnUse">
<stop stop-color="#4A80FF"/>
<stop offset="1" stop-color="#6EBAFF"/>
</linearGradient>
<linearGradient id="paint39_linear_1495_2783" x1="309.052" y1="94.6268" x2="164.939" y2="120.341" gradientUnits="userSpaceOnUse">
<stop stop-color="#1447C2"/>
<stop offset="0.921875" stop-color="#4A7BFD"/>
</linearGradient>
<linearGradient id="paint40_linear_1495_2783" x1="309.052" y1="94.6268" x2="164.939" y2="120.341" gradientUnits="userSpaceOnUse">
<stop stop-color="#1447C2"/>
<stop offset="0.921875" stop-color="#4A7BFD"/>
</linearGradient>
<linearGradient id="paint41_linear_1495_2783" x1="309.052" y1="94.6268" x2="164.939" y2="120.341" gradientUnits="userSpaceOnUse">
<stop stop-color="#1447C2"/>
<stop offset="0.921875" stop-color="#4A7BFD"/>
</linearGradient>
<linearGradient id="paint42_linear_1495_2783" x1="309.052" y1="94.6268" x2="164.939" y2="120.341" gradientUnits="userSpaceOnUse">
<stop stop-color="#1447C2"/>
<stop offset="0.921875" stop-color="#4A7BFD"/>
</linearGradient>
<linearGradient id="paint43_linear_1495_2783" x1="309.052" y1="94.6268" x2="164.939" y2="120.341" gradientUnits="userSpaceOnUse">
<stop stop-color="#1447C2"/>
<stop offset="0.921875" stop-color="#4A7BFD"/>
</linearGradient>
<linearGradient id="paint44_linear_1495_2783" x1="309.052" y1="94.6268" x2="164.939" y2="120.341" gradientUnits="userSpaceOnUse">
<stop stop-color="#1447C2"/>
<stop offset="0.921875" stop-color="#4A7BFD"/>
</linearGradient>
<linearGradient id="paint45_linear_1495_2783" x1="309.052" y1="94.6268" x2="164.939" y2="120.341" gradientUnits="userSpaceOnUse">
<stop stop-color="#1447C2"/>
<stop offset="0.921875" stop-color="#4A7BFD"/>
</linearGradient>
<linearGradient id="paint46_linear_1495_2783" x1="309.052" y1="94.6268" x2="164.939" y2="120.341" gradientUnits="userSpaceOnUse">
<stop stop-color="#1447C2"/>
<stop offset="0.921875" stop-color="#4A7BFD"/>
</linearGradient>
<linearGradient id="paint47_linear_1495_2783" x1="309.052" y1="94.6268" x2="164.939" y2="120.341" gradientUnits="userSpaceOnUse">
<stop stop-color="#1447C2"/>
<stop offset="0.921875" stop-color="#4A7BFD"/>
</linearGradient>
<linearGradient id="paint48_linear_1495_2783" x1="302.293" y1="360.304" x2="151.597" y2="363.799" gradientUnits="userSpaceOnUse">
<stop stop-color="#4A80FF"/>
<stop offset="1" stop-color="#6EBAFF"/>
</linearGradient>
<linearGradient id="paint49_linear_1495_2783" x1="333.555" y1="380.852" x2="189.825" y2="407.51" gradientUnits="userSpaceOnUse">
<stop stop-color="#1447C2"/>
<stop offset="0.921875" stop-color="#4A7BFD"/>
</linearGradient>
<linearGradient id="paint50_linear_1495_2783" x1="333.555" y1="380.852" x2="189.825" y2="407.51" gradientUnits="userSpaceOnUse">
<stop stop-color="#1447C2"/>
<stop offset="0.921875" stop-color="#4A7BFD"/>
</linearGradient>
<linearGradient id="paint51_linear_1495_2783" x1="333.555" y1="380.852" x2="189.825" y2="407.51" gradientUnits="userSpaceOnUse">
<stop stop-color="#1447C2"/>
<stop offset="0.921875" stop-color="#4A7BFD"/>
</linearGradient>
<linearGradient id="paint52_linear_1495_2783" x1="333.555" y1="380.852" x2="189.825" y2="407.51" gradientUnits="userSpaceOnUse">
<stop stop-color="#1447C2"/>
<stop offset="0.921875" stop-color="#4A7BFD"/>
</linearGradient>
<linearGradient id="paint53_linear_1495_2783" x1="333.555" y1="380.852" x2="189.825" y2="407.51" gradientUnits="userSpaceOnUse">
<stop stop-color="#1447C2"/>
<stop offset="0.921875" stop-color="#4A7BFD"/>
</linearGradient>
<linearGradient id="paint54_linear_1495_2783" x1="333.555" y1="380.852" x2="189.825" y2="407.51" gradientUnits="userSpaceOnUse">
<stop stop-color="#1447C2"/>
<stop offset="0.921875" stop-color="#4A7BFD"/>
</linearGradient>
<linearGradient id="paint55_linear_1495_2783" x1="333.555" y1="380.852" x2="189.825" y2="407.51" gradientUnits="userSpaceOnUse">
<stop stop-color="#1447C2"/>
<stop offset="0.921875" stop-color="#4A7BFD"/>
</linearGradient>
<linearGradient id="paint56_linear_1495_2783" x1="333.555" y1="380.852" x2="189.825" y2="407.51" gradientUnits="userSpaceOnUse">
<stop stop-color="#1447C2"/>
<stop offset="0.921875" stop-color="#4A7BFD"/>
</linearGradient>
</defs>
</svg>
