<svg width="332" height="219" viewBox="0 0 332 219" fill="none" xmlns="http://www.w3.org/2000/svg">
<g filter="url(#filter0_dddd_1431_865)">
<rect x="32" y="8" width="256" height="145" rx="25" fill="white"/>
</g>
<path d="M66.592 39.488C66.592 38.208 66.176 37.216 65.328 36.528C64.496 35.824 63.424 35.472 62.112 35.472H57.456V48H60.048V43.584H62.016C63.392 43.584 64.496 43.232 65.328 42.544C66.176 41.84 66.592 40.816 66.592 39.488ZM63.984 39.552C63.984 40.64 63.056 41.168 61.904 41.168H60.048V37.92H61.888C63.088 37.92 63.984 38.416 63.984 39.552ZM73.6381 39.424C73.5101 39.376 73.3501 39.36 73.1421 39.36C72.0061 39.36 71.0941 39.984 70.7261 40.768H70.7101V39.456H68.2301V48H70.7261V44.384C70.7261 42.848 71.4301 41.84 73.0461 41.84C73.2541 41.84 73.4461 41.856 73.6381 41.888V39.424ZM76.259 34.928C75.427 34.928 74.723 35.632 74.723 36.48C74.723 37.328 75.427 38.016 76.259 38.016C77.139 38.016 77.827 37.328 77.827 36.48C77.827 35.6 77.139 34.928 76.259 34.928ZM77.539 48V39.456H75.027V48H77.539ZM89.2635 41.6C90.1915 41.6 90.6555 42.144 90.6555 43.232V48H93.1515V42.672C93.1515 40.608 92.1435 39.264 90.1435 39.264C88.9435 39.264 88.1435 39.68 87.3115 40.624C86.8315 39.712 85.9995 39.264 84.8155 39.264C83.7915 39.264 82.7835 39.744 82.3195 40.576H82.2875V39.456H79.8395V48H82.3355V43.264C82.3355 42.256 82.8475 41.6 83.8555 41.6C84.7835 41.6 85.2475 42.16 85.2475 43.264V48H87.7275V43.232C87.7275 42.224 88.2875 41.6 89.2635 41.6ZM103.595 44.416C103.611 44.224 103.627 43.92 103.627 43.52C103.627 42.256 103.227 41.216 102.443 40.432C101.659 39.648 100.635 39.248 99.3708 39.248C98.1388 39.248 97.0668 39.68 96.1708 40.56C95.2908 41.44 94.8428 42.48 94.8428 43.712C94.8428 45.024 95.2908 46.096 96.1868 46.944C97.0988 47.776 98.2028 48.192 99.5308 48.192C101.275 48.192 102.491 47.552 103.211 46.256L101.403 45.072C101.019 45.696 100.251 46.096 99.4988 46.096C98.4268 46.096 97.5308 45.456 97.3868 44.416H103.595ZM97.4508 42.768C97.4988 42.432 97.6908 42.096 98.0268 41.776C98.3628 41.44 98.7948 41.28 99.3068 41.28C100.443 41.28 101.067 42.016 101.131 42.768H97.4508ZM114.721 48L117.457 38.912H117.489L120.209 48H123.009L126.721 35.472H124.049L121.585 44.432L118.881 35.472H116.113L113.409 44.368L111.025 35.472H108.257L111.937 48H114.721ZM129.802 48.16C130.938 48.16 131.786 47.744 132.362 46.928L132.394 46.944V48H134.698V42.704C134.698 40.464 133.242 39.264 130.986 39.264C129.114 39.264 127.802 39.936 127.066 41.296L128.97 42.432C129.402 41.664 130.026 41.28 130.874 41.28C131.77 41.28 132.25 41.744 132.25 42.336C132.25 42.752 132.026 42.96 131.578 42.96H130.73C129.77 42.96 128.97 43.104 128.186 43.472C127.418 43.84 126.922 44.576 126.922 45.584V45.616C126.922 46.384 127.194 47.008 127.754 47.472C128.314 47.936 129.002 48.16 129.802 48.16ZM130.522 46.336C129.882 46.336 129.434 46.048 129.434 45.472C129.434 44.832 130.01 44.496 130.73 44.496H132.234V44.688C132.234 45.632 131.594 46.336 130.522 46.336ZM139.43 34.96H136.918V48H139.43V34.96ZM144.242 34.96H141.73V48H144.242V34.96ZM154.767 44.416C154.783 44.224 154.799 43.92 154.799 43.52C154.799 42.256 154.399 41.216 153.615 40.432C152.831 39.648 151.807 39.248 150.543 39.248C149.311 39.248 148.239 39.68 147.343 40.56C146.463 41.44 146.015 42.48 146.015 43.712C146.015 45.024 146.463 46.096 147.359 46.944C148.271 47.776 149.375 48.192 150.703 48.192C152.447 48.192 153.663 47.552 154.383 46.256L152.575 45.072C152.191 45.696 151.423 46.096 150.671 46.096C149.599 46.096 148.703 45.456 148.559 44.416H154.767ZM148.623 42.768C148.671 42.432 148.863 42.096 149.199 41.776C149.535 41.44 149.967 41.28 150.479 41.28C151.615 41.28 152.239 42.016 152.303 42.768H148.623ZM161.666 45.888C161.49 45.936 161.298 45.952 161.09 45.952C160.114 45.952 159.602 45.568 159.602 44.592V41.616H161.714V39.456H159.602V36.784H157.138V39.456H155.57V41.616H157.106V44.896C157.106 46.896 158.274 48.112 160.498 48.112C160.914 48.112 161.298 48.064 161.666 47.952V45.888Z" fill="black"/>
<path opacity="0.57" d="M62.118 77H63.238V74.368H65.072V73.374H63.238V66.038H61.796L56.42 73.108V74.368H62.118V77ZM62.118 73.374H57.442L62.118 67.228V73.374ZM71.7453 77.112C72.9913 77.112 74.0553 76.79 74.9093 76.132C75.7773 75.474 76.3793 74.676 76.7013 73.738L75.6653 73.248C75.0353 74.97 73.7333 76.02 71.7873 76.02C70.5413 76.02 69.5193 75.586 68.7073 74.732C67.8953 73.878 67.4893 72.786 67.4893 71.484C67.4893 70.182 67.9093 69.118 68.7353 68.278C69.5753 67.438 70.5833 67.018 71.7733 67.018C72.8233 67.018 73.6633 67.284 74.2933 67.816C74.9373 68.334 75.3853 68.992 75.6513 69.762L76.6873 69.286C76.3933 68.362 75.8193 67.578 74.9653 66.92C74.1113 66.262 73.0613 65.926 71.8013 65.926C70.2753 65.926 68.9733 66.458 67.8953 67.522C66.8173 68.572 66.2853 69.916 66.2853 71.554C66.2853 73.178 66.8033 74.508 67.8533 75.558C68.9033 76.594 70.2053 77.112 71.7453 77.112ZM83.4341 74.872C83.4341 74.41 83.2521 73.99 82.9021 73.64C82.4961 73.22 81.8381 72.912 80.9421 72.716C79.5561 72.422 79.1921 72.156 79.1921 71.54C79.1921 71.218 79.3461 70.952 79.6401 70.714C79.9341 70.476 80.2981 70.364 80.7041 70.364C81.4741 70.364 82.0621 70.784 82.4541 71.624L83.3501 71.134C82.8461 69.972 81.9641 69.398 80.7041 69.398C80.0321 69.398 79.4301 69.608 78.8981 70.028C78.3661 70.448 78.1001 70.98 78.1001 71.624C78.1001 72.058 78.2401 72.422 78.5061 72.744C78.9121 73.206 79.4301 73.444 80.4521 73.668C81.8101 73.99 82.3281 74.312 82.3281 74.942C82.3281 75.684 81.5861 76.16 80.7321 76.16C79.8501 76.16 79.1781 75.67 78.7161 74.704L77.8201 75.194C78.3941 76.482 79.3741 77.126 80.7461 77.126C81.5161 77.126 82.1601 76.916 82.6641 76.496C83.1821 76.062 83.4341 75.53 83.4341 74.872ZM86.5724 74.2H92.5504L93.7404 77H94.9584L90.2264 66.038H88.9244L84.1924 77H85.3684L86.5724 74.2ZM87.0064 73.15L89.5544 67.228L92.1024 73.15H87.0064ZM95.8179 74.004C95.8179 74.984 96.1959 75.754 96.9659 76.3C97.7359 76.846 98.6459 77.112 99.6679 77.112C100.69 77.112 101.586 76.832 102.356 76.272C103.126 75.712 103.518 74.956 103.518 74.004C103.518 72.814 102.692 71.778 101.222 71.344C101.852 71.162 102.356 70.826 102.72 70.364C103.084 69.888 103.266 69.384 103.266 68.838C103.266 67.606 102.398 66.64 101.334 66.234C100.802 66.024 100.242 65.926 99.6679 65.926C98.7719 65.926 97.9459 66.192 97.2039 66.724C96.4619 67.242 96.0839 67.956 96.0839 68.838C96.0839 69.356 96.2659 69.846 96.6159 70.336C96.9799 70.826 97.4839 71.162 98.1139 71.344C96.6579 71.806 95.8179 72.828 95.8179 74.004ZM99.6679 66.962C100.27 66.962 100.83 67.144 101.348 67.494C101.866 67.844 102.132 68.306 102.132 68.894C102.132 69.51 101.866 70 101.32 70.364C100.774 70.714 100.228 70.896 99.6679 70.896C99.1079 70.896 98.5619 70.714 98.0159 70.364C97.4839 70 97.2179 69.51 97.2179 68.88C97.2179 68.292 97.4839 67.83 98.0019 67.48C98.5199 67.13 99.0799 66.962 99.6679 66.962ZM99.6679 76.076C98.9819 76.076 98.3519 75.894 97.8059 75.544C97.2599 75.18 96.9799 74.662 96.9799 73.976C96.9799 73.318 97.2599 72.814 97.8199 72.436C98.3939 72.058 99.0099 71.876 99.6679 71.876C100.34 71.876 100.956 72.072 101.516 72.45C102.076 72.828 102.356 73.346 102.356 74.004C102.356 74.662 102.076 75.18 101.502 75.544C100.942 75.894 100.326 76.076 99.6679 76.076ZM108.32 76.02C107.466 76.02 106.654 75.656 105.884 74.914L105.268 75.824C106.15 76.678 107.172 77.112 108.334 77.112C111.526 77.112 112.954 74.256 112.954 71.12C112.954 70.28 112.912 69.622 112.814 69.132C112.716 68.642 112.548 68.18 112.282 67.718C111.624 66.584 110.294 65.926 108.936 65.926C107.872 65.926 106.962 66.262 106.22 66.92C105.478 67.578 105.1 68.474 105.1 69.594C105.1 70.616 105.436 71.47 106.094 72.142C106.752 72.8 107.648 73.136 108.782 73.136C109.328 73.136 109.874 73.01 110.448 72.758C111.022 72.492 111.47 72.1 111.806 71.554C111.778 72.856 111.47 73.92 110.882 74.76C110.308 75.6 109.454 76.02 108.32 76.02ZM108.95 72.128C108.124 72.128 107.452 71.89 106.962 71.4C106.472 70.91 106.234 70.294 106.234 69.538C106.234 68.754 106.5 68.138 107.018 67.676C107.55 67.214 108.194 66.99 108.95 66.99C109.664 66.99 110.294 67.228 110.84 67.704C111.386 68.18 111.666 68.81 111.666 69.594C111.666 70.308 111.4 70.91 110.882 71.4C110.364 71.89 109.72 72.128 108.95 72.128ZM119.979 74.872C119.979 74.41 119.797 73.99 119.447 73.64C119.041 73.22 118.383 72.912 117.487 72.716C116.101 72.422 115.737 72.156 115.737 71.54C115.737 71.218 115.891 70.952 116.185 70.714C116.479 70.476 116.843 70.364 117.249 70.364C118.019 70.364 118.607 70.784 118.999 71.624L119.895 71.134C119.391 69.972 118.509 69.398 117.249 69.398C116.577 69.398 115.975 69.608 115.443 70.028C114.911 70.448 114.645 70.98 114.645 71.624C114.645 72.058 114.785 72.422 115.051 72.744C115.457 73.206 115.975 73.444 116.997 73.668C118.355 73.99 118.873 74.312 118.873 74.942C118.873 75.684 118.131 76.16 117.277 76.16C116.395 76.16 115.723 75.67 115.261 74.704L114.365 75.194C114.939 76.482 115.919 77.126 117.291 77.126C118.061 77.126 118.705 76.916 119.209 76.496C119.727 76.062 119.979 75.53 119.979 74.872ZM121.395 73.248C121.395 74.312 121.717 75.222 122.361 75.978C123.019 76.734 123.859 77.112 124.895 77.112C126.141 77.112 127.121 76.538 127.807 75.404V77H128.871V65.604H127.793V71.092C127.023 69.958 126.057 69.398 124.895 69.398C123.873 69.398 123.033 69.79 122.375 70.56C121.717 71.33 121.395 72.226 121.395 73.248ZM125.119 76.146C124.321 76.146 123.691 75.866 123.215 75.32C122.739 74.76 122.501 74.074 122.501 73.276C122.501 72.45 122.739 71.75 123.215 71.204C123.691 70.644 124.321 70.364 125.119 70.364C125.875 70.364 126.505 70.658 127.023 71.232C127.541 71.806 127.807 72.464 127.807 73.234C127.807 74.032 127.555 74.718 127.037 75.292C126.533 75.866 125.889 76.146 125.119 76.146ZM134.189 66.528C134.511 66.528 134.777 66.556 134.973 66.626V65.702C134.693 65.604 134.413 65.562 134.147 65.562C132.761 65.562 131.851 66.458 131.851 68.138V69.524H130.465V70.476H131.851V77H132.943V70.476H134.903V69.524H132.943V68.11C132.943 66.948 133.517 66.528 134.189 66.528ZM141.266 74.872C141.266 74.41 141.084 73.99 140.734 73.64C140.328 73.22 139.67 72.912 138.774 72.716C137.388 72.422 137.024 72.156 137.024 71.54C137.024 71.218 137.178 70.952 137.472 70.714C137.766 70.476 138.13 70.364 138.536 70.364C139.306 70.364 139.894 70.784 140.286 71.624L141.182 71.134C140.678 69.972 139.796 69.398 138.536 69.398C137.864 69.398 137.262 69.608 136.73 70.028C136.198 70.448 135.932 70.98 135.932 71.624C135.932 72.058 136.072 72.422 136.338 72.744C136.744 73.206 137.262 73.444 138.284 73.668C139.642 73.99 140.16 74.312 140.16 74.942C140.16 75.684 139.418 76.16 138.564 76.16C137.682 76.16 137.01 75.67 136.548 74.704L135.652 75.194C136.226 76.482 137.206 77.126 138.578 77.126C139.348 77.126 139.992 76.916 140.496 76.496C141.014 76.062 141.266 75.53 141.266 74.872ZM144.404 74.2H150.382L151.572 77H152.79L148.058 66.038H146.756L142.024 77H143.2L144.404 74.2ZM144.838 73.15L147.386 67.228L149.934 73.15H144.838ZM155.512 77V72.716H157.836C159.11 72.716 160.104 72.394 160.818 71.764C161.532 71.12 161.882 70.308 161.882 69.328C161.882 68.404 161.56 67.62 160.902 66.99C160.244 66.36 159.292 66.038 158.032 66.038H154.364V77H155.512ZM155.512 67.116H157.934C158.928 67.116 159.628 67.34 160.062 67.774C160.496 68.208 160.706 68.74 160.706 69.37C160.706 69.986 160.468 70.518 159.992 70.98C159.516 71.428 158.816 71.652 157.878 71.652H155.512V67.116ZM174.141 71.484C174.141 69.916 173.609 68.6 172.559 67.536C171.509 66.458 170.207 65.926 168.653 65.926C167.071 65.926 165.755 66.472 164.705 67.55C163.655 68.628 163.123 69.972 163.123 71.554C163.123 73.122 163.641 74.438 164.691 75.516C165.741 76.58 167.057 77.112 168.611 77.112C170.193 77.112 171.509 76.566 172.559 75.488C173.609 74.41 174.141 73.066 174.141 71.484ZM172.951 71.554C172.951 72.8 172.545 73.85 171.733 74.732C170.921 75.6 169.899 76.034 168.653 76.034C167.407 76.034 166.371 75.586 165.545 74.704C164.719 73.822 164.313 72.744 164.313 71.484C164.313 70.238 164.719 69.188 165.531 68.32C166.343 67.438 167.365 67.004 168.611 67.004C169.857 67.004 170.893 67.452 171.719 68.334C172.545 69.216 172.951 70.294 172.951 71.554ZM181.457 77V76.062H176.781L181.443 70.448V69.524H175.577V70.462H180.141L175.479 76.062V77H181.457ZM184.042 75.11C183.482 75.11 183.034 75.558 183.034 76.118C183.034 76.678 183.482 77.126 184.042 77.126C184.588 77.126 185.036 76.678 185.036 76.118C185.036 75.558 184.588 75.11 184.042 75.11ZM187.952 75.11C187.392 75.11 186.944 75.558 186.944 76.118C186.944 76.678 187.392 77.126 187.952 77.126C188.498 77.126 188.946 76.678 188.946 76.118C188.946 75.558 188.498 75.11 187.952 75.11ZM198.064 73.976C198.064 72.702 197.294 71.75 196.062 71.358V71.344C197.224 70.812 197.812 69.972 197.812 68.824C197.812 68.054 197.504 67.368 196.874 66.794C196.244 66.206 195.39 65.912 194.284 65.912C192.506 65.912 191.204 66.92 190.7 68.432L191.736 68.894C192.254 67.62 193.094 66.99 194.256 66.99C194.998 66.99 195.586 67.186 196.006 67.564C196.426 67.942 196.636 68.404 196.636 68.922C196.636 69.468 196.412 69.944 195.978 70.322C195.544 70.7 194.97 70.896 194.242 70.896H193.178V71.96H194.27C195.964 71.96 196.888 72.814 196.888 73.99C196.888 74.536 196.664 75.026 196.202 75.432C195.74 75.838 195.11 76.034 194.284 76.034C193.01 76.034 192.114 75.39 191.596 74.088L190.588 74.592C191.148 76.16 192.45 77.112 194.284 77.112C195.39 77.112 196.3 76.818 197 76.216C197.714 75.614 198.064 74.858 198.064 73.976ZM206.472 67.116V66.038H200.69L199.85 71.82L200.914 72.254C201.474 71.568 202.398 71.134 203.196 71.134C204.778 71.134 205.828 72.086 205.828 73.542C205.828 74.312 205.576 74.914 205.072 75.362C204.582 75.81 203.952 76.034 203.196 76.034C201.964 76.034 201.082 75.39 200.55 74.102L199.556 74.634C200.13 76.188 201.446 77.112 203.168 77.112C204.26 77.112 205.17 76.79 205.898 76.132C206.64 75.474 207.004 74.606 207.004 73.514C207.004 72.464 206.668 71.638 206.01 71.036C205.352 70.42 204.484 70.112 203.406 70.112C202.552 70.112 201.53 70.448 201.026 71.008L201.6 67.116H206.472ZM208.052 69.524L211.23 77H212.392L215.584 69.524H214.422L211.818 75.796L209.256 69.524H208.052Z" fill="black"/>
<path opacity="0.7" d="M85.122 131.404V122.038H83.4V133H90.064V131.404H85.122ZM91.4612 123.872C91.8952 124.306 92.5672 124.306 93.0012 123.872C93.4352 123.438 93.4352 122.766 93.0012 122.332C92.5672 121.884 91.8952 121.884 91.4612 122.332C91.0272 122.766 91.0272 123.438 91.4612 123.872ZM93.0712 125.524H91.4052V133H93.0712V125.524ZM102.008 133V128.394C102.008 126.602 101.042 125.37 99.2076 125.37C98.2556 125.37 97.4996 125.762 96.9256 126.532V125.524H95.3016V133H96.9676V128.842C96.9676 127.708 97.6396 126.952 98.6896 126.952C99.7956 126.952 100.342 127.694 100.342 128.814V133H102.008ZM104.161 133H105.827V129.346H105.869L108.991 133H111.189L107.633 128.912L111.007 125.524H108.739L105.841 128.464H105.827V121.604H104.161V133ZM118.746 129.752C118.76 129.626 118.774 129.458 118.774 129.234C118.774 128.072 118.452 127.148 117.808 126.434C117.164 125.72 116.268 125.37 115.134 125.37C114.056 125.37 113.16 125.748 112.446 126.504C111.732 127.26 111.368 128.17 111.368 129.248C111.368 130.354 111.746 131.292 112.488 132.034C113.244 132.776 114.182 133.14 115.288 133.14C116.632 133.14 117.85 132.496 118.48 131.334L117.276 130.536C116.87 131.306 116.198 131.698 115.26 131.698C114.686 131.698 114.182 131.516 113.748 131.152C113.314 130.774 113.09 130.312 113.076 129.752H118.746ZM115.134 126.798C116.198 126.798 117.024 127.442 117.08 128.492H113.16C113.314 127.47 114.112 126.798 115.134 126.798ZM119.967 129.248C119.967 130.284 120.317 131.194 121.017 131.964C121.717 132.734 122.599 133.112 123.649 133.112C124.041 133.112 124.489 133.014 124.993 132.804C125.511 132.594 125.889 132.272 126.155 131.838V133H127.779V121.604H126.113V126.588C125.861 126.182 125.497 125.888 125.007 125.692C124.531 125.482 124.097 125.384 123.691 125.384C122.585 125.384 121.675 125.776 120.989 126.56C120.303 127.344 119.967 128.24 119.967 129.248ZM123.901 126.882C124.559 126.882 125.091 127.106 125.511 127.568C125.931 128.03 126.141 128.59 126.141 129.248C126.141 129.906 125.931 130.466 125.511 130.928C125.105 131.376 124.559 131.6 123.901 131.6C123.243 131.6 122.697 131.376 122.277 130.928C121.871 130.466 121.661 129.906 121.661 129.248C121.661 128.59 121.871 128.03 122.277 127.568C122.697 127.106 123.243 126.882 123.901 126.882Z" fill="#0F4FE1"/>
<line opacity="0.05" x1="32" y1="102.5" x2="288" y2="102.5" stroke="black"/>
<circle cx="66" cy="127" r="10" fill="#E0EAFF"/>
<path d="M66.0388 121.39L68.7603 126.855L66.0388 128.397L63.3174 126.855L66.0388 121.39Z" fill="#0F4FE1"/>
<path d="M66.0388 132.881L68.7603 127.416L66.0388 129.377L63.3174 127.416L66.0388 132.881Z" fill="#0F4FE1"/>
<g filter="url(#filter1_dddd_1431_865)">
<circle cx="262" cy="133" r="46" fill="white"/>
</g>
<path d="M248.281 117.652C248.046 117.649 247.818 117.573 247.628 117.435C247.439 117.296 247.297 117.102 247.223 116.879C247.148 116.656 247.145 116.416 247.214 116.191C247.282 115.967 247.419 115.769 247.605 115.626C251.658 112.758 256.539 111.298 261.5 111.469C265.407 111.469 271.017 112.13 275.453 115.317C275.696 115.491 275.859 115.754 275.909 116.048C275.958 116.343 275.89 116.645 275.717 116.889C275.538 117.13 275.272 117.291 274.975 117.338C274.679 117.385 274.375 117.313 274.131 117.138C270.364 114.745 265.96 113.551 261.5 113.716C257.047 113.565 252.666 114.864 249.015 117.417C248.808 117.583 248.546 117.666 248.281 117.652Z" fill="#0F4FE1"/>
<path d="M279.463 128.007C279.281 128.005 279.102 127.96 278.942 127.876C278.781 127.792 278.642 127.67 278.537 127.522C275.996 123.938 271.458 119.165 261.5 119.165C258.189 119.082 254.907 119.799 251.933 121.257C248.959 122.714 246.381 124.869 244.418 127.537C244.242 127.777 243.978 127.938 243.684 127.985C243.39 128.032 243.089 127.96 242.847 127.786C242.72 127.698 242.613 127.584 242.532 127.452C242.451 127.32 242.399 127.173 242.378 127.02C242.358 126.866 242.369 126.711 242.412 126.562C242.454 126.413 242.528 126.275 242.626 126.156C244.802 123.217 247.652 120.844 250.937 119.236C254.221 117.628 257.844 116.833 261.5 116.918C269.74 116.918 275.908 119.973 280.359 126.23C280.529 126.475 280.596 126.778 280.544 127.073C280.491 127.368 280.325 127.629 280.08 127.801C279.898 127.927 279.684 127.998 279.463 128.007Z" fill="#0F4FE1"/>
<path d="M256.036 155.531C255.808 155.53 255.586 155.461 255.398 155.333C255.209 155.205 255.063 155.023 254.979 154.812C254.92 154.673 254.89 154.524 254.891 154.374C254.892 154.224 254.924 154.075 254.984 153.938C255.045 153.8 255.133 153.676 255.243 153.574C255.353 153.472 255.483 153.393 255.625 153.343C262.043 150.875 265.906 145.823 265.906 139.816C265.95 139.226 265.866 138.633 265.66 138.079C265.454 137.524 265.131 137.021 264.713 136.603C264.295 136.184 263.791 135.861 263.237 135.655C262.682 135.449 262.09 135.366 261.5 135.409C258.768 135.409 257.446 136.878 257.094 140.33C256.93 141.944 256.147 143.432 254.909 144.481C253.671 145.53 252.074 146.058 250.455 145.955C249.584 145.968 248.72 145.799 247.918 145.459C247.116 145.12 246.394 144.617 245.797 143.982C245.2 143.348 244.742 142.597 244.451 141.776C244.161 140.955 244.045 140.082 244.11 139.213C244.191 134.672 246.065 130.348 249.323 127.183C252.581 124.019 256.958 122.272 261.5 122.323C266.157 122.323 270.624 124.166 273.927 127.449C277.229 130.732 279.098 135.188 279.125 139.845C279.021 143.124 278.33 146.357 277.083 149.392C276.964 149.663 276.744 149.876 276.47 149.989C276.196 150.101 275.89 150.103 275.615 149.994C275.478 149.938 275.354 149.855 275.25 149.751C275.146 149.646 275.063 149.522 275.007 149.385C274.951 149.249 274.923 149.102 274.924 148.955C274.925 148.807 274.955 148.661 275.012 148.525C276.14 145.764 276.772 142.826 276.878 139.845C276.858 135.782 275.229 131.893 272.346 129.029C269.463 126.166 265.563 124.562 261.5 124.57C259.534 124.531 257.58 124.88 255.749 125.598C253.918 126.315 252.246 127.387 250.83 128.751C249.414 130.115 248.281 131.746 247.496 133.549C246.711 135.351 246.289 137.291 246.254 139.258C246.194 139.829 246.256 140.407 246.435 140.953C246.614 141.499 246.907 142 247.294 142.425C247.681 142.85 248.154 143.187 248.681 143.416C249.208 143.645 249.778 143.759 250.352 143.752C250.881 143.805 251.415 143.752 251.924 143.597C252.432 143.442 252.905 143.188 253.314 142.849C253.724 142.51 254.063 142.094 254.311 141.624C254.558 141.153 254.711 140.639 254.758 140.109C255.287 135.542 257.534 133.221 261.456 133.221C262.345 133.176 263.233 133.319 264.063 133.641C264.892 133.962 265.645 134.455 266.271 135.087C266.898 135.719 267.384 136.476 267.698 137.308C268.012 138.141 268.147 139.03 268.095 139.918C268.095 146.88 263.688 152.726 256.345 155.531C256.242 155.543 256.139 155.543 256.036 155.531Z" fill="#0F4FE1"/>
<path d="M267.037 154.474C266.756 154.469 266.485 154.365 266.274 154.18C266.169 154.076 266.086 153.953 266.029 153.817C265.972 153.68 265.943 153.534 265.943 153.387C265.943 153.239 265.972 153.093 266.029 152.957C266.086 152.821 266.169 152.698 266.274 152.594C269.578 149.169 271.44 144.604 271.473 139.845C271.473 137.554 270.768 130.078 261.632 130.078C260.301 130.031 258.974 130.25 257.728 130.721C256.483 131.193 255.343 131.908 254.377 132.824C253.512 133.68 252.828 134.701 252.367 135.826C251.905 136.952 251.674 138.159 251.689 139.375C251.685 139.672 251.564 139.956 251.353 140.165C251.141 140.374 250.855 140.491 250.558 140.491C250.41 140.493 250.263 140.466 250.126 140.411C249.989 140.355 249.864 140.273 249.759 140.17C249.654 140.066 249.57 139.942 249.513 139.806C249.456 139.669 249.427 139.523 249.427 139.375C249.404 137.87 249.681 136.376 250.24 134.979C250.8 133.582 251.632 132.311 252.688 131.238C253.858 130.115 255.239 129.235 256.752 128.651C258.265 128.066 259.879 127.787 261.5 127.831C270.43 127.831 273.603 134.293 273.603 139.845C273.584 145.143 271.533 150.231 267.875 154.063C267.774 154.188 267.646 154.29 267.502 154.361C267.357 154.432 267.199 154.471 267.037 154.474Z" fill="#0F4FE1"/>
<path d="M250.719 150.743C249.954 150.741 249.189 150.697 248.428 150.611C248.281 150.594 248.14 150.549 248.01 150.478C247.881 150.407 247.767 150.311 247.675 150.195C247.583 150.08 247.515 149.948 247.474 149.806C247.433 149.665 247.42 149.516 247.437 149.37C247.453 149.223 247.498 149.081 247.569 148.952C247.641 148.823 247.737 148.709 247.852 148.617C247.967 148.525 248.099 148.456 248.241 148.415C248.383 148.374 248.531 148.362 248.678 148.378C252.335 148.789 255.214 148.143 257.255 146.439C258.196 145.598 258.957 144.575 259.492 143.431C260.028 142.288 260.326 141.048 260.369 139.786C260.376 139.637 260.414 139.492 260.479 139.358C260.544 139.224 260.636 139.105 260.748 139.007C260.861 138.91 260.992 138.836 261.134 138.791C261.276 138.745 261.425 138.729 261.573 138.743C261.869 138.766 262.145 138.902 262.342 139.124C262.54 139.346 262.643 139.636 262.631 139.933C262.569 141.504 262.188 143.046 261.511 144.465C260.835 145.884 259.876 147.15 258.695 148.187C256.427 149.966 253.598 150.873 250.719 150.743Z" fill="#0F4FE1"/>
<defs>
<filter id="filter0_dddd_1431_865" x="0" y="0" width="320" height="209" filterUnits="userSpaceOnUse" color-interpolation-filters="sRGB">
<feFlood flood-opacity="0" result="BackgroundImageFix"/>
<feColorMatrix in="SourceAlpha" type="matrix" values="0 0 0 0 0 0 0 0 0 0 0 0 0 0 0 0 0 0 127 0" result="hardAlpha"/>
<feOffset/>
<feGaussianBlur stdDeviation="0.5"/>
<feColorMatrix type="matrix" values="0 0 0 0 0 0 0 0 0 0 0 0 0 0 0 0 0 0 0.04 0"/>
<feBlend mode="normal" in2="BackgroundImageFix" result="effect1_dropShadow_1431_865"/>
<feColorMatrix in="SourceAlpha" type="matrix" values="0 0 0 0 0 0 0 0 0 0 0 0 0 0 0 0 0 0 127 0" result="hardAlpha"/>
<feOffset dy="4"/>
<feGaussianBlur stdDeviation="4"/>
<feColorMatrix type="matrix" values="0 0 0 0 0 0 0 0 0 0 0 0 0 0 0 0 0 0 0.04 0"/>
<feBlend mode="normal" in2="effect1_dropShadow_1431_865" result="effect2_dropShadow_1431_865"/>
<feColorMatrix in="SourceAlpha" type="matrix" values="0 0 0 0 0 0 0 0 0 0 0 0 0 0 0 0 0 0 127 0" result="hardAlpha"/>
<feOffset dy="16"/>
<feGaussianBlur stdDeviation="12"/>
<feColorMatrix type="matrix" values="0 0 0 0 0 0 0 0 0 0 0 0 0 0 0 0 0 0 0.04 0"/>
<feBlend mode="normal" in2="effect2_dropShadow_1431_865" result="effect3_dropShadow_1431_865"/>
<feColorMatrix in="SourceAlpha" type="matrix" values="0 0 0 0 0 0 0 0 0 0 0 0 0 0 0 0 0 0 127 0" result="hardAlpha"/>
<feOffset dy="24"/>
<feGaussianBlur stdDeviation="16"/>
<feColorMatrix type="matrix" values="0 0 0 0 0 0 0 0 0 0 0 0 0 0 0 0 0 0 0.04 0"/>
<feBlend mode="normal" in2="effect3_dropShadow_1431_865" result="effect4_dropShadow_1431_865"/>
<feBlend mode="normal" in="SourceGraphic" in2="effect4_dropShadow_1431_865" result="shape"/>
</filter>
<filter id="filter1_dddd_1431_865" x="182" y="60" width="150" height="159" filterUnits="userSpaceOnUse" color-interpolation-filters="sRGB">
<feFlood flood-opacity="0" result="BackgroundImageFix"/>
<feColorMatrix in="SourceAlpha" type="matrix" values="0 0 0 0 0 0 0 0 0 0 0 0 0 0 0 0 0 0 127 0" result="hardAlpha"/>
<feOffset/>
<feGaussianBlur stdDeviation="0.5"/>
<feColorMatrix type="matrix" values="0 0 0 0 0 0 0 0 0 0 0 0 0 0 0 0 0 0 0.04 0"/>
<feBlend mode="normal" in2="BackgroundImageFix" result="effect1_dropShadow_1431_865"/>
<feColorMatrix in="SourceAlpha" type="matrix" values="0 0 0 0 0 0 0 0 0 0 0 0 0 0 0 0 0 0 127 0" result="hardAlpha"/>
<feOffset dy="2"/>
<feGaussianBlur stdDeviation="3"/>
<feColorMatrix type="matrix" values="0 0 0 0 0 0 0 0 0 0 0 0 0 0 0 0 0 0 0.04 0"/>
<feBlend mode="normal" in2="effect1_dropShadow_1431_865" result="effect2_dropShadow_1431_865"/>
<feColorMatrix in="SourceAlpha" type="matrix" values="0 0 0 0 0 0 0 0 0 0 0 0 0 0 0 0 0 0 127 0" result="hardAlpha"/>
<feOffset dy="16"/>
<feGaussianBlur stdDeviation="12"/>
<feColorMatrix type="matrix" values="0 0 0 0 0 0 0 0 0 0 0 0 0 0 0 0 0 0 0.06 0"/>
<feBlend mode="normal" in2="effect2_dropShadow_1431_865" result="effect3_dropShadow_1431_865"/>
<feColorMatrix in="SourceAlpha" type="matrix" values="0 0 0 0 0 0 0 0 0 0 0 0 0 0 0 0 0 0 127 0" result="hardAlpha"/>
<feOffset dx="-14" dy="-7"/>
<feGaussianBlur stdDeviation="10"/>
<feComposite in2="hardAlpha" operator="out"/>
<feColorMatrix type="matrix" values="0 0 0 0 0.9875 0 0 0 0 0.9875 0 0 0 0 0.9875 0 0 0 0.82 0"/>
<feBlend mode="normal" in2="effect3_dropShadow_1431_865" result="effect4_dropShadow_1431_865"/>
<feBlend mode="normal" in="SourceGraphic" in2="effect4_dropShadow_1431_865" result="shape"/>
</filter>
</defs>
</svg>
