<svg width="800" height="500" viewBox="0 0 800 500" fill="none" xmlns="http://www.w3.org/2000/svg">
<path opacity="0.08" d="M15.2 343.799L0 354.399L0.2 372.899L0.5 391.499L14.8 398.799L29 406.099V419.999C29 427.599 29.4 434.099 29.9 434.399C30.4 434.699 37.4 430.299 45.6 424.699L60.5 414.399V395.399V376.499L46.3 369.499L32.2 362.499L32.1 348.299C32 340.499 31.7 333.899 31.3 333.699C30.8 333.399 23.6 337.999 15.2 343.799ZM29 370.499V403.099L16 396.299L3 389.499V372.499V355.399L15.8 346.699C22.8 341.899 28.6 337.999 28.8 337.999C28.9 337.999 29 352.599 29 370.499ZM58 395.599V412.799L48.8 419.099C43.7 422.499 37.8 426.699 35.8 428.299L32 431.199V398.299V365.399L45 371.899L58 378.499V395.599Z" fill="white"/>
<path opacity="0.08" d="M96.2 191.112L81 201.712L81.2 220.212L81.5 238.812L95.8 246.112L110 253.412V267.312C110 274.912 110.4 281.412 110.9 281.712C111.4 282.012 118.4 277.612 126.6 272.012L141.5 261.712V242.712V223.812L127.3 216.812L113.2 209.812L113.1 195.612C113 187.812 112.7 181.212 112.3 181.012C111.8 180.712 104.6 185.312 96.2 191.112ZM110 217.812V250.412L97 243.612L84 236.812V219.812V202.712L96.8 194.012C103.8 189.212 109.6 185.312 109.8 185.312C109.9 185.312 110 199.912 110 217.812ZM139 242.912V260.112L129.8 266.412C124.7 269.812 118.8 274.012 116.8 275.612L113 278.512V245.612V212.712L126 219.212L139 225.812V242.912Z" fill="white"/>
<path opacity="0.08" d="M15.2 30.114L0 40.714L0.2 59.214L0.5 77.814L14.8 85.114L29 92.414V106.314C29 113.914 29.4 120.414 29.9 120.714C30.4 121.014 37.4 116.614 45.6 111.014L60.5 100.714V81.714V62.814L46.3 55.814L32.2 48.814L32.1 34.614C32 26.814 31.7 20.214 31.3 20.014C30.8 19.714 23.6 24.314 15.2 30.114ZM29 56.814V89.414L16 82.614L3 75.814V58.814V41.714L15.8 33.014C22.8 28.214 28.6 24.314 28.8 24.314C28.9 24.314 29 38.914 29 56.814ZM58 81.914V99.114L48.8 105.414C43.7 108.814 37.8 113.014 35.8 114.614L32 117.514V84.614V51.714L45 58.214L58 64.814V81.914Z" fill="white"/>
<path opacity="0.08" d="M242.2 68.114L227 78.714L227.2 97.214L227.5 115.814L241.8 123.114L256 130.414V144.314C256 151.914 256.4 158.414 256.9 158.714C257.4 159.014 264.4 154.614 272.6 149.014L287.5 138.714V119.714V100.814L273.3 93.814L259.2 86.814L259.1 72.614C259 64.814 258.7 58.214 258.3 58.014C257.8 57.714 250.6 62.314 242.2 68.114ZM256 94.814V127.414L243 120.614L230 113.814V96.814V79.714L242.8 71.014C249.8 66.214 255.6 62.314 255.8 62.314C255.9 62.314 256 76.914 256 94.814ZM285 119.914V137.114L275.8 143.414C270.7 146.814 264.8 151.014 262.8 152.614L259 155.514V122.614V89.714L272 96.214L285 102.814V119.914Z" fill="white"/>
<path opacity="0.08" d="M242.2 314.112L227 324.712L227.2 343.212L227.5 361.812L241.8 369.112L256 376.412V390.312C256 397.912 256.4 404.412 256.9 404.712C257.4 405.012 264.4 400.612 272.6 395.012L287.5 384.712V365.712V346.812L273.3 339.812L259.2 332.812L259.1 318.612C259 310.812 258.7 304.212 258.3 304.012C257.8 303.712 250.6 308.312 242.2 314.112ZM256 340.812V373.412L243 366.612L230 359.812V342.812V325.712L242.8 317.012C249.8 312.212 255.6 308.312 255.8 308.312C255.9 308.312 256 322.912 256 340.812ZM285 365.912V383.112L275.8 389.412C270.7 392.812 264.8 397.012 262.8 398.612L259 401.512V368.612V335.712L272 342.212L285 348.812V365.912Z" fill="white"/>
<path opacity="0.08" d="M374.2 191.112L359 201.712L359.2 220.212L359.5 238.812L373.8 246.112L388 253.412V267.312C388 274.912 388.4 281.412 388.9 281.712C389.4 282.012 396.4 277.612 404.6 272.012L419.5 261.712V242.712V223.812L405.3 216.812L391.2 209.812L391.1 195.612C391 187.812 390.7 181.212 390.3 181.012C389.8 180.712 382.6 185.312 374.2 191.112ZM388 217.812V250.412L375 243.612L362 236.812V219.812V202.712L374.8 194.012C381.8 189.212 387.6 185.312 387.8 185.312C387.9 185.312 388 199.912 388 217.812ZM417 242.912V260.112L407.8 266.412C402.7 269.812 396.8 274.012 394.8 275.612L391 278.512V245.612V212.712L404 219.212L417 225.812V242.912Z" fill="white"/>
<path opacity="0.08" d="M485.2 10.114L470 20.714L470.2 39.214L470.5 57.814L484.8 65.114L499 72.414V86.314C499 93.914 499.4 100.414 499.9 100.714C500.4 101.014 507.4 96.614 515.6 91.014L530.5 80.714V61.714V42.814L516.3 35.814L502.2 28.814L502.1 14.614C502 6.81403 501.7 0.214035 501.3 0.0140381C500.8 -0.285965 493.6 4.31403 485.2 10.114ZM499 36.814V69.414L486 62.614L473 55.814V38.814V21.714L485.8 13.014C492.8 8.21404 498.6 4.31403 498.8 4.31403C498.9 4.31403 499 18.914 499 36.814ZM528 61.914V79.114L518.8 85.414C513.7 88.814 507.8 93.014 505.8 94.614L502 97.514V64.614V31.714L515 38.214L528 44.814V61.914Z" fill="white"/>
<path opacity="0.08" d="M661.2 100.114L646 110.714L646.2 129.214L646.5 147.814L660.8 155.114L675 162.414V176.314C675 183.914 675.4 190.414 675.9 190.714C676.4 191.014 683.4 186.614 691.6 181.014L706.5 170.714V151.714V132.814L692.3 125.814L678.2 118.814L678.1 104.614C678 96.814 677.7 90.214 677.3 90.014C676.8 89.714 669.6 94.314 661.2 100.114ZM675 126.814V159.414L662 152.614L649 145.814V128.814V111.714L661.8 103.014C668.8 98.214 674.6 94.314 674.8 94.314C674.9 94.314 675 108.914 675 126.814ZM704 151.914V169.114L694.8 175.414C689.7 178.814 683.8 183.014 681.8 184.614L678 187.514V154.614V121.714L691 128.214L704 134.814V151.914Z" fill="white"/>
<path opacity="0.08" d="M619.2 285.112L604 295.712L604.2 314.212L604.5 332.812L618.8 340.112L633 347.412V361.312C633 368.912 633.4 375.412 633.9 375.712C634.4 376.012 641.4 371.612 649.6 366.012L664.5 355.712V336.712V317.812L650.3 310.812L636.2 303.812L636.1 289.612C636 281.812 635.7 275.212 635.3 275.012C634.8 274.712 627.6 279.312 619.2 285.112ZM633 311.812V344.412L620 337.612L607 330.812V313.812V296.712L619.8 288.012C626.8 283.212 632.6 279.312 632.8 279.312C632.9 279.312 633 293.912 633 311.812ZM662 336.912V354.112L652.8 360.412C647.7 363.812 641.8 368.012 639.8 369.612L636 372.512V339.612V306.712L649 313.212L662 319.812V336.912Z" fill="white"/>
<path opacity="0.08" d="M485.2 343.113L470 353.713L470.2 372.213L470.5 390.813L484.8 398.113L499 405.413V419.313C499 426.913 499.4 433.413 499.9 433.713C500.4 434.013 507.4 429.613 515.6 424.013L530.5 413.713V394.713V375.813L516.3 368.813L502.2 361.813L502.1 347.613C502 339.813 501.7 333.213 501.3 333.013C500.8 332.713 493.6 337.313 485.2 343.113ZM499 369.813V402.413L486 395.613L473 388.813V371.813V354.713L485.8 346.013C492.8 341.213 498.6 337.313 498.8 337.313C498.9 337.313 499 351.913 499 369.813ZM528 394.913V412.113L518.8 418.413C513.7 421.813 507.8 426.013 505.8 427.613L502 430.513V397.613V364.713L515 371.213L528 377.813V394.913Z" fill="white"/>
</svg>
