<svg width="956" height="857" viewBox="0 0 956 857" fill="none" xmlns="http://www.w3.org/2000/svg">
<g clip-path="url(#clip0_1492_2324)">
<path d="M617.994 666.893C621.42 669.166 621.42 672.802 618.038 675.075L536.04 729.875C528.75 734.774 516.847 734.774 509.513 729.875L434.103 679.772C426.768 674.873 426.724 666.943 434.015 662.095L508.942 611.992C516.233 607.093 528.135 607.143 535.469 611.992L617.994 666.893Z" fill="url(#paint0_linear_1492_2324)"/>
<path d="M620.41 672.044C620.41 672.095 620.41 672.095 620.366 672.145C620.278 672.448 620.146 672.751 619.97 673.055C619.926 673.105 619.926 673.156 619.882 673.206C619.707 673.509 619.443 673.812 619.18 674.065C619.004 674.267 618.784 674.418 618.565 674.62C618.389 674.772 618.257 674.923 618.038 675.024L536.04 729.824C534.898 730.582 533.668 731.188 532.351 731.693C531.911 731.895 531.428 732.047 530.945 732.198C530.33 732.4 529.715 732.602 529.057 732.754C528.31 732.905 527.563 733.107 526.817 733.208C526.641 733.259 526.421 733.259 526.246 733.309C525.192 733.461 524.138 733.511 523.083 733.511C522.908 733.511 522.732 733.511 522.556 733.511C521.502 733.511 520.492 733.461 519.438 733.309C519.262 733.309 519.131 733.259 518.955 733.259C517.945 733.107 516.935 732.905 515.925 732.653C515.749 732.602 515.573 732.552 515.398 732.501C514.519 732.249 513.641 731.946 512.806 731.592C512.675 731.541 512.499 731.491 512.323 731.39C511.313 730.935 510.347 730.43 509.468 729.824L434.058 679.721C431.291 677.903 429.535 675.58 428.876 673.206C428.656 672.398 428.524 671.59 428.524 670.782L428.48 687.247C428.48 690.479 430.325 693.712 434.014 696.136L509.424 746.239C510.259 746.795 511.181 747.3 512.104 747.704C512.147 747.704 512.191 747.754 512.279 747.754C512.411 747.805 512.587 747.855 512.762 747.956C513.289 748.158 513.86 748.411 514.387 748.613C514.695 748.714 515.002 748.815 515.354 748.865C515.529 748.916 515.705 748.966 515.881 749.017C516.056 749.067 516.188 749.118 516.364 749.168C516.979 749.32 517.594 749.421 518.208 749.522C518.428 749.572 518.692 749.572 518.911 749.623C519.087 749.623 519.219 749.673 519.394 749.673C519.614 749.724 519.833 749.724 520.053 749.774C520.668 749.825 521.283 749.875 521.898 749.875C522.117 749.875 522.293 749.875 522.513 749.875C522.688 749.875 522.864 749.875 522.996 749.875C523.259 749.875 523.523 749.875 523.83 749.875C524.533 749.825 525.236 749.774 525.894 749.724C525.982 749.724 526.07 749.673 526.158 749.673C526.334 749.673 526.553 749.623 526.729 749.572C527.256 749.471 527.783 749.421 528.31 749.32C528.53 749.269 528.749 749.168 529.013 749.118C529.671 748.966 530.286 748.764 530.901 748.562C531.209 748.461 531.56 748.411 531.911 748.259C532.043 748.209 532.175 748.108 532.351 748.057C533.668 747.552 534.942 746.946 536.04 746.188L618.038 691.389C618.082 691.389 618.126 691.338 618.126 691.338C618.301 691.237 618.389 691.085 618.565 690.984C618.784 690.833 619.004 690.631 619.18 690.429L619.224 690.378C619.443 690.176 619.619 689.924 619.751 689.722C619.795 689.671 619.795 689.621 619.839 689.57C619.883 689.52 619.882 689.469 619.926 689.419C619.97 689.318 620.058 689.217 620.102 689.116C620.19 688.914 620.278 688.762 620.322 688.56C620.322 688.51 620.322 688.51 620.322 688.459C620.322 688.409 620.322 688.409 620.366 688.358C620.41 688.257 620.453 688.106 620.453 688.005C620.497 687.803 620.497 687.601 620.497 687.449C620.497 687.398 620.497 687.398 620.497 687.348L620.541 670.883C620.541 671.337 620.497 671.691 620.41 672.044Z" fill="url(#paint1_linear_1492_2324)"/>
<path fill-rule="evenodd" clip-rule="evenodd" d="M465.984 364.043C465.984 364.044 465.983 364.044 465.982 364.045L360.291 434.443C360.29 434.443 360.289 434.444 360.288 434.444C355.597 437.588 353.819 441.294 353.832 444.417C353.845 447.545 355.659 451.247 360.378 454.368L466.774 524.771C466.774 524.771 466.773 524.771 466.774 524.771C471.479 527.882 477.814 529.52 484.277 529.52C490.741 529.52 497.06 527.882 501.738 524.774L617.433 447.703L617.439 447.698C619.393 446.406 619.777 445.128 619.771 444.438C619.764 443.722 619.33 442.419 617.384 441.117C617.383 441.116 617.381 441.115 617.38 441.114L500.847 364.048C500.847 364.047 500.847 364.048 500.847 364.048C496.14 360.935 489.83 359.298 483.394 359.298C476.958 359.298 470.664 360.935 465.984 364.043ZM483.394 353.598C490.475 353.598 497.694 355.381 503.333 359.11L619.886 436.189C622.711 438.078 624.714 440.935 624.745 444.38C624.776 447.85 622.798 450.734 619.929 452.633C619.928 452.634 619.927 452.635 619.926 452.635L504.235 529.704L504.233 529.706C498.615 533.438 491.379 535.221 484.277 535.221C477.174 535.221 469.928 533.438 464.288 529.709L357.892 459.306C352.266 455.585 348.882 450.309 348.858 444.444C348.833 438.575 352.177 433.275 357.781 429.521L463.485 359.114L463.488 359.113C469.104 355.381 476.314 353.598 483.394 353.598Z" fill="#B5D0FF"/>
<path d="M566.081 430.874C568.584 432.541 568.584 435.217 566.125 436.884L505.955 477.088C500.597 480.674 491.857 480.674 486.454 477.088L431.116 440.319C425.714 436.733 425.714 430.924 431.072 427.338L486.059 390.569C491.417 386.983 500.113 386.983 505.516 390.569L566.081 430.874Z" stroke="#DC3FDC" stroke-width="2.19688" stroke-miterlimit="10"/>
<path d="M591.786 418.826C595.695 421.453 595.739 425.695 591.83 428.271L497.095 491.607C488.663 497.213 474.916 497.213 466.483 491.607L379.303 433.776C370.826 428.12 370.782 418.978 379.215 413.372L465.781 355.541C474.213 349.885 487.916 349.885 496.393 355.541L591.786 418.826Z" fill="url(#paint2_linear_1492_2324)"/>
<path d="M594.554 424.787C594.554 424.837 594.554 424.888 594.51 424.938C594.379 425.292 594.247 425.645 594.027 425.999C593.983 426.049 593.939 426.15 593.895 426.201C593.676 426.554 593.412 426.908 593.105 427.211C592.885 427.413 592.666 427.615 592.402 427.817C592.183 427.969 592.007 428.171 591.787 428.322L497.053 491.658C495.779 492.516 494.33 493.223 492.792 493.829C492.265 494.032 491.694 494.234 491.167 494.385C490.465 494.638 489.718 494.84 488.971 494.991C488.093 495.193 487.215 495.395 486.336 495.496C486.117 495.547 485.897 495.597 485.677 495.597C484.491 495.749 483.262 495.799 482.032 495.85C481.856 495.85 481.637 495.85 481.461 495.85C480.275 495.85 479.045 495.749 477.86 495.597C477.684 495.597 477.508 495.547 477.333 495.547C476.147 495.395 475.005 495.143 473.863 494.84C473.643 494.789 473.468 494.739 473.248 494.688C472.238 494.385 471.228 494.032 470.262 493.627C470.086 493.577 469.91 493.476 469.691 493.425C468.549 492.92 467.407 492.314 466.397 491.658L379.304 433.777C375.044 430.948 372.892 427.211 372.892 423.524L372.848 439.989C372.848 443.727 374.956 447.414 379.26 450.242L466.397 508.072C467.363 508.729 468.417 509.285 469.515 509.79C469.559 509.84 469.647 509.84 469.691 509.84C469.866 509.941 470.042 509.992 470.262 510.042C470.876 510.295 471.491 510.547 472.15 510.8C472.501 510.901 472.897 511.002 473.248 511.103C473.468 511.153 473.643 511.204 473.863 511.254C474.039 511.305 474.214 511.355 474.39 511.406C475.093 511.557 475.795 511.709 476.542 511.86C476.806 511.911 477.069 511.911 477.333 511.961C477.508 511.961 477.684 512.012 477.86 512.012C478.123 512.062 478.387 512.113 478.65 512.113C479.353 512.163 480.056 512.214 480.802 512.264C481.022 512.264 481.241 512.264 481.461 512.264C481.637 512.264 481.856 512.264 482.032 512.264C482.339 512.264 482.691 512.264 482.998 512.264C483.789 512.214 484.623 512.163 485.414 512.062C485.502 512.062 485.589 512.012 485.677 512.012C485.897 511.961 486.117 511.961 486.292 511.911C486.907 511.81 487.566 511.759 488.181 511.608C488.444 511.557 488.708 511.456 488.971 511.406C489.718 511.254 490.421 511.002 491.123 510.8C491.519 510.699 491.914 510.598 492.265 510.446C492.441 510.396 492.573 510.295 492.748 510.194C494.242 509.588 495.691 508.931 497.009 508.022L591.743 444.686C591.787 444.636 591.831 444.636 591.875 444.585C592.051 444.434 592.227 444.282 592.358 444.181C592.578 443.979 592.841 443.777 593.061 443.575L593.105 443.525C593.324 443.272 593.544 443.02 593.72 442.767C593.764 442.717 593.808 442.666 593.852 442.565C593.895 442.515 593.939 442.464 593.983 442.363C594.027 442.262 594.115 442.161 594.159 442.06C594.247 441.858 594.335 441.605 594.422 441.403C594.422 441.353 594.422 441.353 594.466 441.302C594.466 441.252 594.466 441.201 594.51 441.151C594.554 440.999 594.598 440.848 594.598 440.747C594.642 440.545 594.642 440.292 594.686 440.09C594.686 440.04 594.686 440.04 594.686 439.989L594.73 423.524C594.73 424.029 594.642 424.383 594.554 424.787Z" fill="url(#paint3_linear_1492_2324)"/>
<path d="M389.082 524.968C392.596 527.292 392.596 531.08 389.126 533.403L304.844 589.718C297.334 594.718 285.124 594.769 277.614 589.718L200.096 538.252C192.541 533.201 192.497 525.069 200.008 520.069L276.999 468.603C284.509 463.602 296.719 463.552 304.273 468.603L389.082 524.968Z" fill="url(#paint4_linear_1492_2324)"/>
<path d="M391.543 530.272C391.543 530.322 391.543 530.373 391.499 530.373C391.411 530.676 391.236 531.03 391.06 531.333C391.016 531.383 391.016 531.434 390.972 531.484C390.796 531.787 390.533 532.09 390.269 532.393C390.094 532.595 389.874 532.747 389.655 532.898C389.479 533.05 389.303 533.201 389.084 533.353L304.802 589.668C303.66 590.426 302.342 591.032 301.025 591.587C300.542 591.789 300.058 591.941 299.575 592.092C298.916 592.294 298.302 592.496 297.643 592.648C296.896 592.85 296.106 593.001 295.315 593.102C295.139 593.153 294.92 593.153 294.744 593.203C293.69 593.355 292.592 593.406 291.494 593.406C291.318 593.406 291.143 593.406 290.967 593.406C289.913 593.406 288.815 593.355 287.761 593.203C287.585 593.203 287.453 593.153 287.278 593.153C286.224 593.001 285.17 592.799 284.159 592.547C283.984 592.496 283.808 592.446 283.632 592.395C282.71 592.143 281.832 591.84 280.953 591.486C280.778 591.436 280.646 591.385 280.47 591.284C279.416 590.83 278.45 590.325 277.528 589.719L200.009 538.252C196.188 535.727 194.3 532.393 194.3 529.11L194.256 553.808C194.256 557.091 196.144 560.425 199.965 562.95L277.484 614.416C278.362 614.972 279.284 615.477 280.251 615.932C280.295 615.932 280.382 615.982 280.426 615.982C280.602 616.033 280.734 616.083 280.909 616.184C281.48 616.437 282.007 616.639 282.578 616.841C282.886 616.942 283.237 617.043 283.545 617.093C283.72 617.144 283.896 617.194 284.072 617.245C284.247 617.295 284.379 617.346 284.555 617.396C285.17 617.548 285.828 617.649 286.443 617.8C286.663 617.851 286.926 617.851 287.146 617.901C287.322 617.901 287.453 617.952 287.629 617.952C287.849 618.002 288.068 618.002 288.288 618.053C288.903 618.103 289.562 618.154 290.176 618.154C290.396 618.154 290.572 618.154 290.791 618.154C290.967 618.154 291.143 618.154 291.318 618.154C291.582 618.154 291.889 618.154 292.153 618.154C292.856 618.103 293.602 618.053 294.305 618.002C294.393 618.002 294.481 617.952 294.568 617.952C294.788 617.952 294.964 617.901 295.139 617.851C295.666 617.75 296.237 617.699 296.764 617.598C296.984 617.548 297.204 617.447 297.467 617.396C298.126 617.245 298.785 617.043 299.4 616.841C299.751 616.74 300.102 616.689 300.41 616.538C300.585 616.487 300.673 616.386 300.849 616.336C302.21 615.78 303.484 615.174 304.626 614.416L388.908 558.101C388.952 558.101 388.996 558.051 388.996 558.051C389.171 557.95 389.303 557.798 389.435 557.647C389.655 557.495 389.874 557.293 390.05 557.142L390.094 557.091C390.313 556.889 390.489 556.637 390.665 556.384C390.709 556.334 390.709 556.283 390.753 556.232C390.797 556.182 390.84 556.131 390.84 556.081C390.884 555.98 390.972 555.879 391.016 555.778C391.104 555.576 391.192 555.374 391.236 555.172C391.236 555.121 391.236 555.121 391.28 555.071C391.28 555.02 391.28 554.97 391.324 554.97C391.367 554.869 391.411 554.717 391.411 554.616C391.455 554.414 391.455 554.212 391.455 554.01C391.455 553.96 391.455 553.96 391.455 553.909L391.499 529.211C391.719 529.565 391.675 529.918 391.543 530.272Z" fill="url(#paint5_linear_1492_2324)"/>
<path d="M908.786 309.506C911.992 311.627 912.036 315.062 908.83 317.183L831.839 368.65C824.987 373.246 813.788 373.246 806.892 368.65L736.094 321.628C729.198 317.032 729.154 309.607 736.006 305.011L806.365 257.989C813.217 253.393 824.372 253.444 831.268 257.989L908.786 309.506Z" fill="url(#paint6_linear_1492_2324)"/>
<path d="M911.071 314.355C911.071 314.405 911.071 314.405 911.027 314.456C910.939 314.759 910.807 315.062 910.632 315.314C910.588 315.365 910.588 315.415 910.544 315.466C910.368 315.769 910.148 316.022 909.885 316.274C909.709 316.426 909.534 316.577 909.314 316.729C909.138 316.88 909.007 317.032 908.787 317.133L831.796 368.599C830.742 369.306 829.556 369.862 828.326 370.367C827.887 370.518 827.448 370.67 827.008 370.821C826.437 371.023 825.823 371.175 825.252 371.327C824.549 371.478 823.846 371.63 823.1 371.731C822.924 371.781 822.748 371.781 822.572 371.832C821.606 371.933 820.596 372.034 819.586 372.034C819.41 372.034 819.279 372.034 819.103 372.034C818.137 372.034 817.126 371.983 816.16 371.832C816.028 371.832 815.853 371.781 815.721 371.781C814.755 371.63 813.833 371.478 812.866 371.226C812.691 371.175 812.515 371.125 812.383 371.074C811.549 370.821 810.714 370.569 809.968 370.215C809.836 370.165 809.66 370.114 809.528 370.064C808.606 369.66 807.684 369.155 806.849 368.599L736.051 321.577C734.294 320.416 733.02 319.102 732.142 317.688C731.263 316.274 730.824 314.759 730.868 313.244L730.824 337.942C730.824 340.972 732.537 344.002 736.007 346.326L806.805 393.348C807.596 393.853 808.43 394.358 809.353 394.762C809.397 394.762 809.441 394.812 809.484 394.812C809.616 394.863 809.792 394.913 809.924 394.964C810.451 395.166 810.934 395.368 811.461 395.57C811.768 395.671 812.032 395.721 812.339 395.822C812.515 395.873 812.691 395.923 812.822 395.974C812.954 396.024 813.13 396.075 813.262 396.125C813.832 396.277 814.403 396.378 815.018 396.479C815.238 396.529 815.458 396.529 815.677 396.58C815.809 396.58 815.985 396.63 816.116 396.63C816.336 396.681 816.556 396.681 816.775 396.731C817.346 396.782 817.917 396.832 818.532 396.832C818.708 396.832 818.883 396.832 819.059 396.832C819.235 396.832 819.366 396.832 819.542 396.832C819.806 396.832 820.069 396.832 820.333 396.832C820.991 396.782 821.65 396.731 822.309 396.681C822.397 396.681 822.441 396.63 822.529 396.63C822.704 396.63 822.88 396.58 823.056 396.529C823.583 396.479 824.066 396.378 824.593 396.277C824.812 396.226 825.032 396.125 825.208 396.075C825.823 395.923 826.394 395.772 826.964 395.57C827.272 395.469 827.623 395.418 827.887 395.317C828.019 395.267 828.15 395.166 828.282 395.115C829.512 394.61 830.698 394.055 831.752 393.348L908.743 341.881C908.787 341.881 908.831 341.831 908.831 341.831C909.006 341.73 909.094 341.578 909.226 341.477C909.402 341.325 909.621 341.174 909.797 341.022L909.841 340.972C910.017 340.77 910.192 340.568 910.324 340.366C910.368 340.315 910.368 340.265 910.412 340.214C910.456 340.164 910.456 340.113 910.5 340.063C910.544 339.962 910.588 339.911 910.632 339.81C910.719 339.659 910.807 339.457 910.851 339.255C910.851 339.204 910.851 339.204 910.851 339.154C910.851 339.103 910.851 339.103 910.895 339.053C910.939 338.952 910.939 338.851 910.983 338.699C911.027 338.497 911.027 338.346 911.027 338.144C911.027 338.093 911.027 338.093 911.027 338.043L911.071 313.345C911.246 313.698 911.159 314.001 911.071 314.355Z" fill="url(#paint7_linear_1492_2324)"/>
<path d="M908.786 274.151C911.992 276.272 912.036 279.707 908.83 281.828L831.839 333.295C824.987 337.891 813.788 337.891 806.892 333.295L736.094 286.273C729.198 281.677 729.154 274.252 736.006 269.656L806.365 222.634C813.217 218.038 824.372 218.089 831.268 222.634L908.786 274.151Z" fill="url(#paint8_linear_1492_2324)"/>
<path d="M911.071 279C911.071 279.05 911.071 279.05 911.027 279.101C910.939 279.404 910.807 279.707 910.632 279.959C910.588 280.01 910.588 280.06 910.544 280.111C910.368 280.414 910.148 280.667 909.885 280.919C909.709 281.071 909.534 281.222 909.314 281.374C909.138 281.525 909.007 281.677 908.787 281.778L831.796 333.244C830.742 333.951 829.556 334.507 828.326 335.012C827.887 335.163 827.448 335.315 827.008 335.466C826.437 335.668 825.823 335.82 825.252 335.972C824.549 336.123 823.846 336.275 823.1 336.376C822.924 336.426 822.748 336.426 822.572 336.477C821.606 336.578 820.596 336.679 819.586 336.679C819.41 336.679 819.279 336.679 819.103 336.679C818.137 336.679 817.126 336.628 816.16 336.477C816.028 336.477 815.853 336.426 815.721 336.426C814.755 336.275 813.833 336.123 812.866 335.871C812.691 335.82 812.515 335.77 812.383 335.719C811.549 335.466 810.714 335.214 809.968 334.86C809.836 334.81 809.66 334.759 809.528 334.709C808.606 334.305 807.684 333.8 806.849 333.244L736.051 286.222C734.294 285.061 733.02 283.747 732.142 282.333C731.263 280.919 730.824 279.404 730.868 277.889L730.824 302.587C730.824 305.617 732.537 308.647 736.007 310.971L806.805 357.992C807.596 358.498 808.43 359.003 809.353 359.407C809.397 359.407 809.441 359.457 809.484 359.457C809.616 359.508 809.792 359.558 809.924 359.609C810.451 359.811 810.934 360.013 811.461 360.215C811.768 360.316 812.032 360.366 812.339 360.467C812.515 360.518 812.691 360.568 812.822 360.619C812.954 360.669 813.13 360.72 813.262 360.77C813.832 360.922 814.403 361.023 815.018 361.124C815.238 361.174 815.458 361.174 815.677 361.225C815.809 361.225 815.985 361.275 816.116 361.275C816.336 361.326 816.556 361.326 816.775 361.376C817.346 361.427 817.917 361.477 818.532 361.477C818.708 361.477 818.883 361.477 819.059 361.477C819.235 361.477 819.366 361.477 819.542 361.477C819.806 361.477 820.069 361.477 820.333 361.477C820.991 361.427 821.65 361.376 822.309 361.326C822.397 361.326 822.441 361.275 822.529 361.275C822.704 361.275 822.88 361.225 823.056 361.174C823.583 361.124 824.066 361.023 824.593 360.922C824.812 360.871 825.032 360.77 825.208 360.72C825.823 360.568 826.394 360.417 826.964 360.215C827.272 360.114 827.623 360.063 827.887 359.962C828.019 359.912 828.15 359.811 828.282 359.76C829.512 359.255 830.698 358.7 831.752 357.992L908.743 306.526C908.787 306.526 908.831 306.476 908.831 306.476C909.006 306.375 909.094 306.223 909.226 306.122C909.402 305.97 909.621 305.819 909.797 305.667L909.841 305.617C910.017 305.415 910.192 305.213 910.324 305.011C910.368 304.96 910.368 304.91 910.412 304.859C910.456 304.809 910.456 304.758 910.5 304.708C910.544 304.607 910.588 304.556 910.632 304.455C910.719 304.304 910.807 304.102 910.851 303.9C910.851 303.849 910.851 303.849 910.851 303.799C910.851 303.748 910.851 303.748 910.895 303.698C910.939 303.597 910.939 303.496 910.983 303.344C911.027 303.142 911.027 302.991 911.027 302.789C911.027 302.738 911.027 302.738 911.027 302.688L911.071 277.99C911.246 278.343 911.159 278.646 911.071 279Z" fill="url(#paint9_linear_1492_2324)"/>
<path d="M908.786 238.797C911.992 240.918 912.036 244.352 908.83 246.474L831.839 297.94C824.987 302.536 813.788 302.536 806.892 297.94L736.094 250.918C729.198 246.322 729.154 238.898 736.006 234.302L806.365 187.28C813.217 182.684 824.372 182.734 831.268 187.28L908.786 238.797Z" fill="url(#paint10_linear_1492_2324)"/>
<path d="M911.071 243.645C911.071 243.696 911.071 243.696 911.027 243.746C910.939 244.049 910.807 244.352 910.632 244.605C910.588 244.655 910.588 244.706 910.544 244.756C910.368 245.06 910.148 245.312 909.885 245.565C909.709 245.716 909.534 245.868 909.314 246.019C909.138 246.171 909.007 246.322 908.787 246.423L831.796 297.89C830.742 298.597 829.556 299.152 828.326 299.657C827.887 299.809 827.448 299.96 827.008 300.112C826.437 300.314 825.823 300.466 825.252 300.617C824.549 300.769 823.846 300.92 823.1 301.021C822.924 301.072 822.748 301.072 822.572 301.122C821.606 301.223 820.596 301.324 819.586 301.324C819.41 301.324 819.279 301.324 819.103 301.324C818.137 301.324 817.126 301.274 816.16 301.122C816.028 301.122 815.853 301.072 815.721 301.072C814.755 300.92 813.833 300.769 812.866 300.516C812.691 300.466 812.515 300.415 812.383 300.365C811.549 300.112 810.714 299.859 809.968 299.506C809.836 299.455 809.66 299.405 809.528 299.354C808.606 298.95 807.684 298.445 806.849 297.89L736.051 250.868C734.294 249.706 733.02 248.393 732.142 246.979C731.263 245.565 730.824 244.049 730.868 242.534L730.824 267.232C730.824 270.262 732.537 273.293 736.007 275.616L806.805 322.638C807.596 323.143 808.43 323.648 809.353 324.052C809.397 324.052 809.441 324.103 809.484 324.103C809.616 324.153 809.792 324.204 809.924 324.254C810.451 324.456 810.934 324.658 811.461 324.86C811.768 324.961 812.032 325.012 812.339 325.113C812.515 325.163 812.691 325.214 812.822 325.264C812.954 325.315 813.13 325.365 813.262 325.416C813.832 325.567 814.403 325.668 815.018 325.769C815.238 325.82 815.458 325.82 815.677 325.87C815.809 325.87 815.985 325.921 816.116 325.921C816.336 325.971 816.556 325.971 816.775 326.022C817.346 326.072 817.917 326.123 818.532 326.123C818.708 326.123 818.883 326.123 819.059 326.123C819.235 326.123 819.366 326.123 819.542 326.123C819.806 326.123 820.069 326.123 820.333 326.123C820.991 326.072 821.65 326.022 822.309 325.971C822.397 325.971 822.441 325.921 822.529 325.921C822.704 325.921 822.88 325.87 823.056 325.82C823.583 325.769 824.066 325.668 824.593 325.567C824.812 325.517 825.032 325.416 825.208 325.365C825.823 325.214 826.394 325.062 826.964 324.86C827.272 324.759 827.623 324.709 827.887 324.608C828.019 324.557 828.15 324.456 828.282 324.406C829.512 323.901 830.698 323.345 831.752 322.638L908.743 271.172C908.787 271.172 908.831 271.121 908.831 271.121C909.006 271.02 909.094 270.869 909.226 270.768C909.402 270.616 909.621 270.464 909.797 270.313L909.841 270.262C910.017 270.06 910.192 269.858 910.324 269.656C910.368 269.606 910.368 269.555 910.412 269.505C910.456 269.454 910.456 269.404 910.5 269.353C910.544 269.252 910.588 269.202 910.632 269.101C910.719 268.949 910.807 268.747 910.851 268.545C910.851 268.495 910.851 268.495 910.851 268.444C910.851 268.394 910.851 268.394 910.895 268.343C910.939 268.242 910.939 268.141 910.983 267.99C911.027 267.788 911.027 267.636 911.027 267.434C911.027 267.384 911.027 267.384 911.027 267.333L911.071 242.635C911.246 242.989 911.159 243.292 911.071 243.645Z" fill="url(#paint11_linear_1492_2324)"/>
<path d="M759.152 468.603C761.348 470.067 761.391 472.441 759.195 473.906L706.009 509.463C701.265 512.645 693.536 512.645 688.792 509.463L639.91 476.987C635.166 473.805 635.122 468.704 639.866 465.522L688.441 433.046C693.184 429.864 700.87 429.914 705.657 433.046L759.152 468.603Z" fill="url(#paint12_linear_1492_2324)"/>
<path d="M760.732 471.936V471.987C760.688 472.189 760.6 472.391 760.469 472.593C760.469 472.643 760.425 472.643 760.425 472.694C760.293 472.896 760.161 473.098 759.985 473.249C759.854 473.35 759.722 473.451 759.59 473.603C759.458 473.704 759.371 473.805 759.239 473.906L706.052 509.463C705.305 509.968 704.515 510.322 703.68 510.675C703.373 510.776 703.066 510.877 702.758 510.978C702.363 511.13 701.968 511.231 701.528 511.332C701.045 511.433 700.562 511.534 700.035 511.635C699.903 511.635 699.815 511.685 699.684 511.685C699.025 511.786 698.322 511.786 697.619 511.837C697.532 511.837 697.4 511.837 697.312 511.837C696.653 511.837 695.951 511.786 695.292 511.685C695.204 511.685 695.072 511.685 694.984 511.635C694.326 511.534 693.667 511.433 693.008 511.231C692.876 511.18 692.788 511.18 692.657 511.13C692.086 510.978 691.515 510.776 690.988 510.524C690.9 510.473 690.768 510.473 690.68 510.423C690.021 510.119 689.407 509.816 688.836 509.412L639.953 476.936C638.767 476.128 637.845 475.219 637.274 474.26C636.659 473.3 636.395 472.239 636.395 471.179L636.352 488.25C636.352 490.321 637.537 492.442 639.953 494.008L688.836 526.484C689.363 526.837 689.978 527.191 690.592 527.443C690.636 527.443 690.68 527.443 690.68 527.494C690.768 527.544 690.9 527.595 690.988 527.595C691.339 527.746 691.69 527.898 692.042 527.999C692.261 528.049 692.437 528.1 692.657 528.15C692.788 528.201 692.876 528.201 693.008 528.251C693.096 528.302 693.228 528.302 693.315 528.352C693.711 528.453 694.106 528.504 694.545 528.605C694.677 528.605 694.853 528.655 694.984 528.655C695.072 528.655 695.204 528.706 695.292 528.706C695.424 528.706 695.599 528.757 695.731 528.757C696.126 528.807 696.521 528.807 696.917 528.807C697.049 528.807 697.18 528.807 697.312 528.807C697.4 528.807 697.532 528.807 697.619 528.807C697.795 528.807 697.971 528.807 698.147 528.807C698.586 528.807 699.069 528.757 699.508 528.706C699.552 528.706 699.596 528.706 699.64 528.706C699.772 528.706 699.859 528.655 699.991 528.655C700.343 528.605 700.694 528.554 701.045 528.504C701.177 528.453 701.353 528.403 701.484 528.403C701.88 528.302 702.319 528.201 702.714 528.049C702.934 527.999 703.153 527.948 703.373 527.847C703.461 527.797 703.549 527.746 703.637 527.696C704.471 527.342 705.305 526.989 706.008 526.484L759.195 490.927C759.239 490.927 759.239 490.876 759.283 490.876C759.371 490.826 759.458 490.725 759.546 490.624C759.678 490.523 759.81 490.422 759.942 490.27C759.942 490.27 759.985 490.27 759.985 490.22C760.117 490.068 760.249 489.917 760.337 489.765C760.381 489.715 760.381 489.715 760.381 489.664C760.425 489.614 760.425 489.614 760.425 489.563C760.469 489.513 760.512 489.462 760.512 489.412C760.556 489.311 760.6 489.159 760.644 489.058V489.008V488.957C760.644 488.856 760.688 488.806 760.688 488.705C760.688 488.604 760.732 488.452 760.732 488.351V488.301L760.776 471.229C760.82 471.482 760.776 471.734 760.732 471.936Z" fill="url(#paint13_linear_1492_2324)"/>
<path d="M700.125 134.753L824.242 51.8204L822.661 50.7598L698.544 133.692L700.125 134.753Z" fill="url(#paint14_linear_1492_2324)"/>
<path fill-rule="evenodd" clip-rule="evenodd" d="M651.243 174.268C648.963 175.307 645.827 175.099 643.82 173.794C641.536 172.279 641.492 169.804 643.776 168.289C646.06 166.774 649.793 166.774 652.12 168.289C654.135 169.649 654.403 171.712 652.88 173.276L716.727 215.664L715.189 216.674L651.286 174.299L651.243 174.268ZM650.539 172.784C649.134 173.743 646.806 173.743 645.357 172.784C643.864 171.824 643.907 170.259 645.313 169.299C646.762 168.339 649.09 168.339 650.539 169.299C651.989 170.259 651.989 171.824 650.539 172.784Z" fill="url(#paint15_linear_1492_2324)"/>
<path d="M633.279 547.544L634.816 546.484L570.21 503.604L568.673 504.664L633.279 547.544Z" fill="url(#paint16_linear_1492_2324)"/>
<path d="M628.886 572.798L630.423 571.737L565.818 528.857L564.28 529.867L628.886 572.798Z" fill="url(#paint17_linear_1492_2324)"/>
<path fill-rule="evenodd" clip-rule="evenodd" d="M274.624 353.393C276.631 354.698 279.766 354.856 282.047 353.866L282.091 353.898L327.328 383.899L328.865 382.889L283.627 352.837C285.165 351.272 284.901 349.201 282.881 347.837C280.597 346.322 276.864 346.322 274.58 347.837C272.296 349.352 272.34 351.878 274.624 353.393ZM276.205 352.383C277.654 353.342 279.938 353.342 281.387 352.383C282.793 351.423 282.837 349.908 281.387 348.898C279.938 347.938 277.61 347.938 276.205 348.898C274.712 349.857 274.756 351.423 276.205 352.383Z" fill="url(#paint18_linear_1492_2324)"/>
<path fill-rule="evenodd" clip-rule="evenodd" d="M404.869 232.903L450.107 262.955L451.644 261.894L406.451 231.893C407.988 230.327 407.724 228.256 405.704 226.893C403.376 225.378 399.643 225.378 397.359 226.893C395.075 228.408 395.119 230.933 397.403 232.449C399.423 233.762 402.585 233.913 404.869 232.903ZM404.167 231.388C402.717 232.348 400.433 232.348 398.984 231.388C397.535 230.479 397.491 228.913 398.984 227.903C400.389 226.943 402.717 226.943 404.167 227.903C405.572 228.863 405.572 230.428 404.167 231.388Z" fill="url(#paint19_linear_1492_2324)"/>
<path fill-rule="evenodd" clip-rule="evenodd" d="M206.379 473.704L109.887 538.15C112.391 540.322 112.172 543.453 109.185 545.474C105.935 547.645 100.665 547.645 97.3707 545.474C94.1207 543.302 94.1207 539.766 97.3268 537.595C100.313 535.625 105.013 535.473 108.263 537.089L107.516 537.595L109.097 538.655L109.12 538.641L107.603 537.595L108.306 537.14L204.798 472.643L206.379 473.704ZM98.9518 544.413C101.367 546.029 105.232 546.029 107.604 544.413C110.02 542.797 109.976 540.221 107.56 538.655C105.144 537.039 101.28 537.039 98.9079 538.655C96.5362 540.271 96.5362 542.847 98.9518 544.413Z" fill="url(#paint20_linear_1492_2324)"/>
<path d="M835.09 582.394L741.936 644.619L740.399 643.609L833.552 581.334L835.09 582.394Z" fill="url(#paint21_linear_1492_2324)"/>
<path d="M678.735 677.802L677.198 678.862L676.935 678.688L626.954 712.096L625.416 711.086L675.405 677.672L612.592 635.982L614.13 634.921L676.967 676.628L693.799 665.377L695.337 666.388L678.497 677.643L678.735 677.802Z" fill="url(#paint22_linear_1492_2324)"/>
<path d="M835.09 506.584L741.936 568.859L740.399 567.849L833.552 505.574L835.09 506.584Z" fill="url(#paint23_linear_1492_2324)"/>
<path d="M321.451 418.032L414.605 355.808L413.023 354.747L319.87 417.022L321.451 418.032Z" fill="url(#paint24_linear_1492_2324)"/>
<path d="M457.381 546.959L364.227 609.184L362.69 608.173L455.843 545.899L457.381 546.959Z" fill="url(#paint25_linear_1492_2324)"/>
<path d="M636.006 333.363L704.433 287.705L702.852 286.644L634.469 332.353L636.006 333.363Z" fill="url(#paint26_linear_1492_2324)"/>
<path d="M717.399 367.232L648.972 412.89L647.435 411.88L715.818 366.171L717.399 367.232Z" fill="url(#paint27_linear_1492_2324)"/>
<path d="M831.883 437.794L956 354.811L954.463 353.801L830.302 436.784L831.883 437.794Z" fill="url(#paint28_linear_1492_2324)"/>
<path d="M926.57 414.4L802.453 497.383L800.872 496.373L925.033 413.39L926.57 414.4Z" fill="url(#paint29_linear_1492_2324)"/>
<path d="M863.769 51.8204L739.652 134.753L738.071 133.692L862.188 50.7598L863.769 51.8204Z" fill="url(#paint30_linear_1492_2324)"/>
<path d="M307.457 344.979L409.921 276.492L408.34 275.431L305.875 343.918L307.457 344.979Z" fill="url(#paint31_linear_1492_2324)"/>
<path d="M281.921 400.318L157.804 483.25L156.223 482.189L280.383 399.257L281.921 400.318Z" fill="url(#paint32_linear_1492_2324)"/>
<path fill-rule="evenodd" clip-rule="evenodd" d="M108.965 600.981C112.215 598.81 112.215 595.325 108.965 593.153C105.671 590.981 100.4 590.981 97.1502 593.153C94.1692 595.169 93.9449 598.293 96.4337 600.464L0 664.923L1.53719 665.933L98.0096 601.499C101.302 603.152 105.986 602.946 108.965 600.981ZM107.427 599.971C105.056 601.537 101.147 601.537 98.7753 599.971C96.3597 598.355 96.3597 595.729 98.6874 594.163C101.103 592.547 105.012 592.547 107.427 594.163C109.799 595.779 109.843 598.355 107.427 599.971Z" fill="url(#paint33_linear_1492_2324)"/>
<path fill-rule="evenodd" clip-rule="evenodd" d="M369.891 625.694L273.4 690.14C275.903 692.312 275.683 695.443 272.697 697.464C269.447 699.635 264.176 699.635 260.882 697.464C257.632 695.292 257.632 691.756 260.838 689.585C263.825 687.615 268.524 687.463 271.774 689.079L271.028 689.585L272.609 690.645L272.632 690.631L271.116 689.585L271.819 689.08L368.31 624.633L369.891 625.694ZM262.419 696.403C264.835 698.019 268.7 697.969 271.116 696.403C273.487 694.837 273.487 692.211 271.072 690.645C268.656 689.029 264.791 689.079 262.419 690.645C260.048 692.211 260.048 694.837 262.419 696.403Z" fill="url(#paint34_linear_1492_2324)"/>
<path fill-rule="evenodd" clip-rule="evenodd" d="M145.463 663.71L147 662.7L145.507 663.71L146.21 664.165L210.113 706.641L211.65 705.631L147.747 663.155L147.719 663.138C149.238 661.574 148.969 659.513 146.956 658.154C144.672 656.639 140.939 656.639 138.655 658.154C136.371 659.67 136.415 662.195 138.699 663.71C140.72 665.023 143.882 665.175 146.166 664.165L145.463 663.71ZM145.463 662.7C144.014 663.66 141.686 663.66 140.236 662.7C138.831 661.74 138.831 660.175 140.28 659.215C141.686 658.255 144.014 658.255 145.463 659.215C146.868 660.175 146.868 661.74 145.463 662.7Z" fill="url(#paint35_linear_1492_2324)"/>
<path fill-rule="evenodd" clip-rule="evenodd" d="M123.459 678.863L125.014 677.819L123.502 678.862L124.205 679.317L188.108 721.793L189.689 720.732L125.742 678.307L125.717 678.288C127.234 676.725 126.964 674.665 124.952 673.307C122.668 671.792 118.935 671.792 116.651 673.307C114.367 674.822 114.411 677.297 116.695 678.812C118.759 680.176 121.878 680.327 124.161 679.317L123.459 678.863ZM118.276 677.802C119.725 678.762 122.097 678.762 123.503 677.802C124.952 676.842 124.908 675.277 123.459 674.317C122.009 673.357 119.725 673.357 118.276 674.317C116.827 675.327 116.871 676.893 118.276 677.802Z" fill="url(#paint36_linear_1492_2324)"/>
<path fill-rule="evenodd" clip-rule="evenodd" d="M97.1505 689.015L97.1883 688.989L97.897 689.469L161.756 731.894L163.337 730.834L99.4644 688.428C100.968 686.866 100.695 684.814 98.6877 683.459C96.3599 681.944 92.6268 681.944 90.3429 683.459C88.0591 684.974 88.103 687.499 90.3869 689.015C92.4072 690.328 95.5694 690.479 97.8532 689.469L97.1505 689.015ZM91.968 687.954C93.4173 688.914 95.7451 688.914 97.1505 687.954C98.5559 686.994 98.5559 685.429 97.1505 684.469C95.7012 683.509 93.3734 683.509 91.968 684.469C90.5186 685.429 90.5186 686.994 91.968 687.954Z" fill="url(#paint37_linear_1492_2324)"/>
<path fill-rule="evenodd" clip-rule="evenodd" d="M404.018 675.731L307.482 740.178C309.985 742.35 309.765 745.481 306.823 747.451C303.573 749.622 298.302 749.622 295.008 747.451C291.758 745.279 291.714 741.794 294.965 739.571C297.951 737.602 302.607 737.45 305.901 739.117L305.198 739.571L305.258 739.612L305.945 739.168L402.436 674.671L404.018 675.731ZM296.546 746.44C298.961 748.057 302.826 748.006 305.242 746.44C307.613 744.875 307.613 742.248 305.198 740.683C302.782 739.066 298.917 739.117 296.546 740.683C294.174 742.248 294.174 744.875 296.546 746.44Z" fill="url(#paint38_linear_1492_2324)"/>
<path fill-rule="evenodd" clip-rule="evenodd" d="M424.967 703.258L365.632 742.906C368.135 745.078 367.916 748.21 364.929 750.23C361.679 752.402 356.409 752.402 353.115 750.23C349.865 748.058 349.865 744.523 353.071 742.351C356.057 740.381 360.757 740.229 364.007 741.846L363.26 742.351L364.841 743.411L364.864 743.397L363.304 742.35L364.051 741.896L423.386 702.248L424.967 703.258ZM363.348 749.169C360.976 750.785 357.111 750.785 354.696 749.169C352.28 747.603 352.28 745.028 354.652 743.411C357.024 741.795 360.888 741.795 363.304 743.411C365.72 744.977 365.764 747.553 363.348 749.169Z" fill="url(#paint39_linear_1492_2324)"/>
<path d="M661.739 723.511L537.622 806.494L536.04 805.433L660.201 722.501L661.739 723.511Z" fill="url(#paint40_linear_1492_2324)"/>
<path d="M529.979 774.018L405.818 857L404.281 855.94L528.442 773.007L529.979 774.018Z" fill="url(#paint41_linear_1492_2324)"/>
<path d="M554.32 613.014C553.303 603.988 546.427 601.192 537.805 600.658L537.451 588.099L530.797 588.353L531.151 600.582C529.404 600.658 527.613 600.76 525.845 600.861L525.491 588.556L518.837 588.811L519.19 601.37C517.753 601.446 516.338 601.548 514.968 601.599V601.548L505.793 601.878L506.014 610.039C506.014 610.039 510.922 609.76 510.834 609.861C513.531 609.76 514.459 611.539 514.747 613.065L515.145 627.378C515.321 627.378 515.565 627.378 515.852 627.404C515.631 627.404 515.388 627.429 515.145 627.429L515.697 647.488C515.609 648.48 515.145 650.03 513.265 650.107C513.354 650.183 508.424 650.285 508.424 650.285L507.363 659.463L516.029 659.132C517.643 659.081 519.235 659.056 520.782 659.005L521.136 671.717L527.79 671.463L527.437 658.878C529.271 658.852 531.018 658.802 532.742 658.751L533.096 671.259L539.751 671.005L539.397 658.319C550.561 657.175 558.299 653.641 558.918 641.514C559.427 631.751 555.337 627.581 548.925 626.056C552.772 623.692 555.071 619.624 554.32 613.014ZM545.764 640.548C546.029 650.056 531.858 649.497 527.348 649.675L526.884 632.844C531.394 632.666 545.499 630.632 545.764 640.548ZM542.006 616.904C542.249 625.548 530.421 624.963 526.663 625.115L526.243 609.836C530.001 609.709 541.762 607.878 542.006 616.904Z" fill="#FFB721"/>
<path d="M551.322 613.014C550.305 603.988 543.429 601.192 534.807 600.658L534.453 588.099L527.799 588.353L528.153 600.582C526.406 600.658 524.615 600.76 522.847 600.861L522.493 588.556L515.839 588.811L516.192 601.37C514.755 601.446 513.34 601.548 511.97 601.599V601.548L502.795 601.878L503.016 610.039C503.016 610.039 507.924 609.76 507.836 609.861C510.533 609.76 511.461 611.539 511.749 613.065L512.147 627.378C512.323 627.378 512.567 627.378 512.854 627.404C512.633 627.404 512.39 627.429 512.147 627.429L512.699 647.488C512.611 648.48 512.147 650.03 510.267 650.107C510.356 650.183 505.426 650.285 505.426 650.285L504.365 659.463L513.031 659.132C514.645 659.081 516.236 659.056 517.784 659.005L518.138 671.717L524.792 671.463L524.438 658.878C526.273 658.852 528.02 658.802 529.744 658.751L530.098 671.259L536.753 671.005L536.399 658.319C547.563 657.175 555.301 653.641 555.92 641.514C556.429 631.751 552.339 627.581 545.927 626.056C549.774 623.692 552.073 619.624 551.322 613.014ZM542.766 640.548C543.031 650.056 528.86 649.497 524.35 649.675L523.886 632.844C528.396 632.666 542.501 630.632 542.766 640.548ZM539.008 616.904C539.251 625.548 527.423 624.963 523.665 625.115L523.245 609.836C527.003 609.709 538.764 607.878 539.008 616.904Z" fill="#FFD06B"/>
<path d="M483.945 312.711L484.614 310.124L514.934 367.971L484.614 388.594L483.945 387.826V312.711Z" fill="#FFD06B"/>
<path d="M484.234 395.716L484.613 395.178L514.933 374.581L484.613 423.718L484.234 422.463V395.716Z" fill="#FFD06B"/>
<path d="M454.293 367.971L484.613 310.124V388.594L454.293 367.971Z" fill="#FFB721"/>
<path d="M484.613 395.178V423.718L454.293 374.581L484.613 395.178Z" fill="#FFB721"/>
<path d="M293.231 457.056H275.971V487.799H268.891V495.333H275.971V526.076H296.078C296.078 526.076 324.373 528.8 324.373 492.117C324.373 456.071 297.312 457.056 293.231 457.056ZM295.624 513.356H287.309V495.362H299.807V487.828H287.309V469.835H295.246C298.219 469.835 313.161 471.196 313.161 492.407C313.186 513.617 297.766 513.356 295.624 513.356Z" fill="#FFB721"/>
<path d="M289.232 457.056H271.973V487.799H264.893V495.333H271.973V526.076H292.08C292.08 526.076 320.375 528.8 320.375 492.117C320.375 456.071 293.314 457.056 289.232 457.056ZM291.626 513.356H283.311V495.362H295.809V487.828H283.311V469.835H291.248C294.221 469.835 309.163 471.196 309.163 492.407C309.188 513.617 293.768 513.356 291.626 513.356Z" fill="#FFD06B"/>
<path d="M833.407 174.513L823.67 168.004L818.075 171.645V193.193H832.497V198.679H818.075V225.988L814.215 223.045V168.952L823.67 162.442L835.641 170.523L833.407 174.513Z" fill="#FFB721"/>
<path d="M801.745 178.877C801.745 179.177 805.085 191.572 806.538 196.934L806.581 174.638L810.702 172.044V220.925L807.774 219.005L801.745 193.043V215.015L798.318 212.745V181.097L801.745 178.877Z" fill="#FFB721"/>
<path d="M835.424 175.76L840.564 179.626V219.229L844.836 216.486V182.319L850.128 186.459V181.272L837.549 172.119L835.424 175.76Z" fill="#FFB721"/>
<path fill-rule="evenodd" clip-rule="evenodd" d="M791.097 174.513L823.67 152.791L856.244 174.488V217.558L823.714 239.181L791.097 217.558V174.513ZM794.957 176.857V215.015L823.714 234.118L852.362 215.015V176.857L823.649 157.754L794.957 176.857Z" fill="#FFB721"/>
<path fill-rule="evenodd" clip-rule="evenodd" d="M823.67 152.25L856.651 174.218V217.829L823.714 239.722L790.689 217.829V174.243L823.67 152.25ZM833.407 174.513L823.67 168.004L818.075 171.645V193.193H832.497V198.679H818.075V225.988L814.215 223.045V168.952L823.67 162.442L835.641 170.523L833.407 174.513ZM818.482 199.148V226.86L813.807 223.296V168.686L823.668 161.898L836.213 170.366L833.539 175.143L823.667 168.544L818.482 171.918V192.724H832.904V199.148H818.482ZM801.849 179.348C802.37 181.475 804.727 190.24 806.133 195.44C806.279 195.98 806.415 196.482 806.538 196.934L806.581 174.638L810.702 172.044V220.925L807.774 219.005L801.745 193.043V215.015L798.318 212.745V181.097L801.745 178.877C801.745 178.909 801.782 179.073 801.849 179.348ZM802.152 196.612L807.424 219.315L811.109 221.732V171.254L806.174 174.36L806.136 193.873C805.476 191.428 804.688 188.498 803.986 185.869C803.478 183.967 803.015 182.223 802.68 180.936C802.512 180.293 802.376 179.766 802.283 179.39C802.236 179.202 802.2 179.055 802.177 178.952C802.165 178.901 802.157 178.864 802.152 178.839V178.076L797.911 180.823V213.016L802.152 215.825V196.612ZM840.564 179.626L835.424 175.76L837.549 172.119L850.128 181.272V186.459L844.836 182.319V216.486L840.564 219.229V179.626ZM845.244 183.204L850.535 187.344V181.014L837.432 171.479L834.856 175.893L840.157 179.879V220.027L845.244 216.761V183.204ZM791.097 174.513V217.558L823.714 239.181L856.244 217.558V174.488L823.67 152.791L791.097 174.513ZM795.364 214.744V177.127L823.649 158.295L851.955 177.127V214.745L823.713 233.577L795.364 214.744ZM823.714 234.118L794.957 215.015V176.857L823.649 157.754L852.362 176.857V215.015L823.714 234.118Z" fill="#FFB721"/>
<path d="M833.407 175.662L823.67 169.153L818.075 172.794V194.342H832.497V199.829H818.075V227.137L814.215 224.194V170.101L823.67 163.592L835.641 171.672L833.407 175.662Z" fill="#FFD06B"/>
<path d="M801.745 180.027C801.745 180.326 805.085 192.721 806.538 198.083L806.581 175.787L810.702 173.193V222.075L807.774 220.154L801.745 194.192V216.164L798.318 213.894V182.246L801.745 180.027Z" fill="#FFD06B"/>
<path d="M835.424 176.909L840.564 180.775V220.379L844.836 217.635V183.468L850.128 187.608V182.421L837.549 173.268L835.424 176.909Z" fill="#FFD06B"/>
<path fill-rule="evenodd" clip-rule="evenodd" d="M791.097 175.662L823.67 153.94L856.244 175.637V218.708L823.714 240.33L791.097 218.708V175.662ZM794.957 178.007V216.164L823.714 235.267L852.362 216.164V178.007L823.649 158.903L794.957 178.007Z" fill="#FFD06B"/>
<path fill-rule="evenodd" clip-rule="evenodd" d="M823.67 153.399L856.651 175.368V218.978L823.714 240.871L790.689 218.978V175.393L823.67 153.399ZM833.407 175.662L823.67 169.153L818.075 172.794V194.342H832.497V199.829H818.075V227.137L814.215 224.194V170.101L823.67 163.592L835.641 171.672L833.407 175.662ZM818.482 200.297V228.01L813.807 224.446V169.836L823.668 163.047L836.213 171.515L833.539 176.292L823.667 169.693L818.482 173.068V193.874H832.904V200.297H818.482ZM801.849 180.497C802.37 182.625 804.727 191.39 806.133 196.589C806.279 197.129 806.415 197.631 806.538 198.083L806.581 175.787L810.702 173.193V222.075L807.774 220.154L801.745 194.192V216.164L798.318 213.894V182.246L801.745 180.027C801.745 180.058 801.782 180.222 801.849 180.497ZM802.152 197.762L807.424 220.464L811.109 222.881V172.403L806.174 175.509L806.136 195.022C805.476 192.577 804.688 189.647 803.986 187.019C803.478 185.116 803.015 183.372 802.68 182.086C802.512 181.442 802.376 180.915 802.283 180.54C802.236 180.352 802.2 180.205 802.177 180.101C802.165 180.05 802.157 180.013 802.152 179.989V179.225L797.911 181.973V214.165L802.152 216.974V197.762ZM840.564 180.775L835.424 176.909L837.549 173.268L850.128 182.421V187.608L844.836 183.468V217.635L840.564 220.379V180.775ZM845.244 184.354L850.535 188.494V182.163L837.432 172.629L834.856 177.042L840.157 181.028V221.177L845.244 217.91V184.354ZM791.097 175.662V218.708L823.714 240.33L856.244 218.708V175.637L823.67 153.94L791.097 175.662ZM795.364 215.894V178.277L823.649 159.444L851.955 178.277V215.894L823.713 234.726L795.364 215.894ZM823.714 235.267L794.957 216.164V178.007L823.649 158.903L852.362 178.007V216.164L823.714 235.267Z" fill="#FFD06B"/>
</g>
<defs>
<linearGradient id="paint0_linear_1492_2324" x1="487.421" y1="651.912" x2="618.4" y2="655.977" gradientUnits="userSpaceOnUse">
<stop stop-color="#4A80FF"/>
<stop offset="1" stop-color="#6EBAFF"/>
</linearGradient>
<linearGradient id="paint1_linear_1492_2324" x1="459.35" y1="708.919" x2="569.861" y2="750.34" gradientUnits="userSpaceOnUse">
<stop stop-color="#1447C2"/>
<stop offset="0.921875" stop-color="#4A7BFD"/>
</linearGradient>
<linearGradient id="paint2_linear_1492_2324" x1="440.906" y1="401.591" x2="592.234" y2="406.293" gradientUnits="userSpaceOnUse">
<stop stop-color="#4A80FF"/>
<stop offset="1" stop-color="#6EBAFF"/>
</linearGradient>
<linearGradient id="paint3_linear_1492_2324" x1="408.51" y1="466.312" x2="535.239" y2="515.222" gradientUnits="userSpaceOnUse">
<stop stop-color="#1447C2"/>
<stop offset="0.921875" stop-color="#4A7BFD"/>
</linearGradient>
<linearGradient id="paint4_linear_1492_2324" x1="254.881" y1="509.606" x2="389.493" y2="513.786" gradientUnits="userSpaceOnUse">
<stop stop-color="#4A80FF"/>
<stop offset="1" stop-color="#6EBAFF"/>
</linearGradient>
<linearGradient id="paint5_linear_1492_2324" x1="225.983" y1="572.045" x2="341.943" y2="611.724" gradientUnits="userSpaceOnUse">
<stop stop-color="#1447C2"/>
<stop offset="0.921875" stop-color="#4A7BFD"/>
</linearGradient>
<linearGradient id="paint6_linear_1492_2324" x1="786.162" y1="295.465" x2="909.175" y2="299.285" gradientUnits="userSpaceOnUse">
<stop stop-color="#4A80FF"/>
<stop offset="1" stop-color="#6EBAFF"/>
</linearGradient>
<linearGradient id="paint7_linear_1492_2324" x1="759.811" y1="353.548" x2="866.345" y2="389.027" gradientUnits="userSpaceOnUse">
<stop stop-color="#1447C2"/>
<stop offset="0.921875" stop-color="#4A7BFD"/>
</linearGradient>
<linearGradient id="paint8_linear_1492_2324" x1="786.162" y1="260.11" x2="909.175" y2="263.93" gradientUnits="userSpaceOnUse">
<stop stop-color="#4A80FF"/>
<stop offset="1" stop-color="#6EBAFF"/>
</linearGradient>
<linearGradient id="paint9_linear_1492_2324" x1="759.811" y1="318.193" x2="866.345" y2="353.672" gradientUnits="userSpaceOnUse">
<stop stop-color="#1447C2"/>
<stop offset="0.921875" stop-color="#4A7BFD"/>
</linearGradient>
<linearGradient id="paint10_linear_1492_2324" x1="786.162" y1="224.755" x2="909.175" y2="228.576" gradientUnits="userSpaceOnUse">
<stop stop-color="#4A80FF"/>
<stop offset="1" stop-color="#6EBAFF"/>
</linearGradient>
<linearGradient id="paint11_linear_1492_2324" x1="759.811" y1="282.839" x2="866.345" y2="318.318" gradientUnits="userSpaceOnUse">
<stop stop-color="#1447C2"/>
<stop offset="0.921875" stop-color="#4A7BFD"/>
</linearGradient>
<linearGradient id="paint12_linear_1492_2324" x1="674.486" y1="458.926" x2="759.414" y2="461.563" gradientUnits="userSpaceOnUse">
<stop stop-color="#4A80FF"/>
<stop offset="1" stop-color="#6EBAFF"/>
</linearGradient>
<linearGradient id="paint13_linear_1492_2324" x1="656.353" y1="498.966" x2="729.85" y2="523.463" gradientUnits="userSpaceOnUse">
<stop stop-color="#1447C2"/>
<stop offset="0.921875" stop-color="#4A7BFD"/>
</linearGradient>
<linearGradient id="paint14_linear_1492_2324" x1="20.9914" y1="720.867" x2="875.845" y2="596.979" gradientUnits="userSpaceOnUse">
<stop stop-color="#67AFFF" stop-opacity="0.5"/>
<stop offset="0.580902" stop-color="#75A1FD"/>
<stop offset="0.919479" stop-color="#67AFFF" stop-opacity="0.5"/>
</linearGradient>
<linearGradient id="paint15_linear_1492_2324" x1="20.9914" y1="720.867" x2="875.845" y2="596.979" gradientUnits="userSpaceOnUse">
<stop stop-color="#67AFFF" stop-opacity="0.5"/>
<stop offset="0.580902" stop-color="#75A1FD"/>
<stop offset="0.919479" stop-color="#67AFFF" stop-opacity="0.5"/>
</linearGradient>
<linearGradient id="paint16_linear_1492_2324" x1="20.9914" y1="720.867" x2="875.845" y2="596.979" gradientUnits="userSpaceOnUse">
<stop stop-color="#67AFFF" stop-opacity="0.5"/>
<stop offset="0.580902" stop-color="#75A1FD"/>
<stop offset="0.919479" stop-color="#67AFFF" stop-opacity="0.5"/>
</linearGradient>
<linearGradient id="paint17_linear_1492_2324" x1="20.9914" y1="720.867" x2="875.845" y2="596.979" gradientUnits="userSpaceOnUse">
<stop stop-color="#67AFFF" stop-opacity="0.5"/>
<stop offset="0.580902" stop-color="#75A1FD"/>
<stop offset="0.919479" stop-color="#67AFFF" stop-opacity="0.5"/>
</linearGradient>
<linearGradient id="paint18_linear_1492_2324" x1="20.9914" y1="720.867" x2="875.845" y2="596.979" gradientUnits="userSpaceOnUse">
<stop stop-color="#67AFFF" stop-opacity="0.5"/>
<stop offset="0.580902" stop-color="#75A1FD"/>
<stop offset="0.919479" stop-color="#67AFFF" stop-opacity="0.5"/>
</linearGradient>
<linearGradient id="paint19_linear_1492_2324" x1="20.9914" y1="720.867" x2="875.845" y2="596.979" gradientUnits="userSpaceOnUse">
<stop stop-color="#67AFFF" stop-opacity="0.5"/>
<stop offset="0.580902" stop-color="#75A1FD"/>
<stop offset="0.919479" stop-color="#67AFFF" stop-opacity="0.5"/>
</linearGradient>
<linearGradient id="paint20_linear_1492_2324" x1="20.9914" y1="720.867" x2="875.845" y2="596.979" gradientUnits="userSpaceOnUse">
<stop stop-color="#67AFFF" stop-opacity="0.5"/>
<stop offset="0.580902" stop-color="#75A1FD"/>
<stop offset="0.919479" stop-color="#67AFFF" stop-opacity="0.5"/>
</linearGradient>
<linearGradient id="paint21_linear_1492_2324" x1="20.9914" y1="720.867" x2="875.845" y2="596.979" gradientUnits="userSpaceOnUse">
<stop stop-color="#67AFFF" stop-opacity="0.5"/>
<stop offset="0.580902" stop-color="#75A1FD"/>
<stop offset="0.919479" stop-color="#67AFFF" stop-opacity="0.5"/>
</linearGradient>
<linearGradient id="paint22_linear_1492_2324" x1="20.9914" y1="720.867" x2="875.845" y2="596.979" gradientUnits="userSpaceOnUse">
<stop stop-color="#67AFFF" stop-opacity="0.5"/>
<stop offset="0.580902" stop-color="#75A1FD"/>
<stop offset="0.919479" stop-color="#67AFFF" stop-opacity="0.5"/>
</linearGradient>
<linearGradient id="paint23_linear_1492_2324" x1="20.9914" y1="720.867" x2="875.845" y2="596.979" gradientUnits="userSpaceOnUse">
<stop stop-color="#67AFFF" stop-opacity="0.5"/>
<stop offset="0.580902" stop-color="#75A1FD"/>
<stop offset="0.919479" stop-color="#67AFFF" stop-opacity="0.5"/>
</linearGradient>
<linearGradient id="paint24_linear_1492_2324" x1="20.9914" y1="720.867" x2="875.845" y2="596.979" gradientUnits="userSpaceOnUse">
<stop stop-color="#67AFFF" stop-opacity="0.5"/>
<stop offset="0.580902" stop-color="#75A1FD"/>
<stop offset="0.919479" stop-color="#67AFFF" stop-opacity="0.5"/>
</linearGradient>
<linearGradient id="paint25_linear_1492_2324" x1="20.9914" y1="720.867" x2="875.845" y2="596.979" gradientUnits="userSpaceOnUse">
<stop stop-color="#67AFFF" stop-opacity="0.5"/>
<stop offset="0.580902" stop-color="#75A1FD"/>
<stop offset="0.919479" stop-color="#67AFFF" stop-opacity="0.5"/>
</linearGradient>
<linearGradient id="paint26_linear_1492_2324" x1="20.9914" y1="720.867" x2="875.845" y2="596.979" gradientUnits="userSpaceOnUse">
<stop stop-color="#67AFFF" stop-opacity="0.5"/>
<stop offset="0.580902" stop-color="#75A1FD"/>
<stop offset="0.919479" stop-color="#67AFFF" stop-opacity="0.5"/>
</linearGradient>
<linearGradient id="paint27_linear_1492_2324" x1="20.9914" y1="720.867" x2="875.845" y2="596.979" gradientUnits="userSpaceOnUse">
<stop stop-color="#67AFFF" stop-opacity="0.5"/>
<stop offset="0.580902" stop-color="#75A1FD"/>
<stop offset="0.919479" stop-color="#67AFFF" stop-opacity="0.5"/>
</linearGradient>
<linearGradient id="paint28_linear_1492_2324" x1="20.9914" y1="720.867" x2="875.845" y2="596.979" gradientUnits="userSpaceOnUse">
<stop stop-color="#67AFFF" stop-opacity="0.5"/>
<stop offset="0.580902" stop-color="#75A1FD"/>
<stop offset="0.919479" stop-color="#67AFFF" stop-opacity="0.5"/>
</linearGradient>
<linearGradient id="paint29_linear_1492_2324" x1="20.9914" y1="720.867" x2="875.845" y2="596.979" gradientUnits="userSpaceOnUse">
<stop stop-color="#67AFFF" stop-opacity="0.5"/>
<stop offset="0.580902" stop-color="#75A1FD"/>
<stop offset="0.919479" stop-color="#67AFFF" stop-opacity="0.5"/>
</linearGradient>
<linearGradient id="paint30_linear_1492_2324" x1="20.9914" y1="720.867" x2="875.845" y2="596.979" gradientUnits="userSpaceOnUse">
<stop stop-color="#67AFFF" stop-opacity="0.5"/>
<stop offset="0.580902" stop-color="#75A1FD"/>
<stop offset="0.919479" stop-color="#67AFFF" stop-opacity="0.5"/>
</linearGradient>
<linearGradient id="paint31_linear_1492_2324" x1="20.9914" y1="720.867" x2="875.845" y2="596.979" gradientUnits="userSpaceOnUse">
<stop stop-color="#67AFFF" stop-opacity="0.5"/>
<stop offset="0.580902" stop-color="#75A1FD"/>
<stop offset="0.919479" stop-color="#67AFFF" stop-opacity="0.5"/>
</linearGradient>
<linearGradient id="paint32_linear_1492_2324" x1="20.9914" y1="720.867" x2="875.845" y2="596.979" gradientUnits="userSpaceOnUse">
<stop stop-color="#67AFFF" stop-opacity="0.5"/>
<stop offset="0.580902" stop-color="#75A1FD"/>
<stop offset="0.919479" stop-color="#67AFFF" stop-opacity="0.5"/>
</linearGradient>
<linearGradient id="paint33_linear_1492_2324" x1="20.9914" y1="720.867" x2="875.845" y2="596.979" gradientUnits="userSpaceOnUse">
<stop stop-color="#67AFFF" stop-opacity="0.5"/>
<stop offset="0.580902" stop-color="#75A1FD"/>
<stop offset="0.919479" stop-color="#67AFFF" stop-opacity="0.5"/>
</linearGradient>
<linearGradient id="paint34_linear_1492_2324" x1="20.9914" y1="720.867" x2="875.845" y2="596.979" gradientUnits="userSpaceOnUse">
<stop stop-color="#67AFFF" stop-opacity="0.5"/>
<stop offset="0.580902" stop-color="#75A1FD"/>
<stop offset="0.919479" stop-color="#67AFFF" stop-opacity="0.5"/>
</linearGradient>
<linearGradient id="paint35_linear_1492_2324" x1="20.9914" y1="720.867" x2="875.845" y2="596.979" gradientUnits="userSpaceOnUse">
<stop stop-color="#67AFFF" stop-opacity="0.5"/>
<stop offset="0.580902" stop-color="#75A1FD"/>
<stop offset="0.919479" stop-color="#67AFFF" stop-opacity="0.5"/>
</linearGradient>
<linearGradient id="paint36_linear_1492_2324" x1="20.9914" y1="720.867" x2="875.845" y2="596.979" gradientUnits="userSpaceOnUse">
<stop stop-color="#67AFFF" stop-opacity="0.5"/>
<stop offset="0.580902" stop-color="#75A1FD"/>
<stop offset="0.919479" stop-color="#67AFFF" stop-opacity="0.5"/>
</linearGradient>
<linearGradient id="paint37_linear_1492_2324" x1="20.9914" y1="720.867" x2="875.845" y2="596.979" gradientUnits="userSpaceOnUse">
<stop stop-color="#67AFFF" stop-opacity="0.5"/>
<stop offset="0.580902" stop-color="#75A1FD"/>
<stop offset="0.919479" stop-color="#67AFFF" stop-opacity="0.5"/>
</linearGradient>
<linearGradient id="paint38_linear_1492_2324" x1="20.9914" y1="720.867" x2="875.845" y2="596.979" gradientUnits="userSpaceOnUse">
<stop stop-color="#67AFFF" stop-opacity="0.5"/>
<stop offset="0.580902" stop-color="#75A1FD"/>
<stop offset="0.919479" stop-color="#67AFFF" stop-opacity="0.5"/>
</linearGradient>
<linearGradient id="paint39_linear_1492_2324" x1="20.9914" y1="720.867" x2="875.845" y2="596.979" gradientUnits="userSpaceOnUse">
<stop stop-color="#67AFFF" stop-opacity="0.5"/>
<stop offset="0.580902" stop-color="#75A1FD"/>
<stop offset="0.919479" stop-color="#67AFFF" stop-opacity="0.5"/>
</linearGradient>
<linearGradient id="paint40_linear_1492_2324" x1="20.9914" y1="720.867" x2="875.845" y2="596.979" gradientUnits="userSpaceOnUse">
<stop stop-color="#67AFFF" stop-opacity="0.5"/>
<stop offset="0.580902" stop-color="#75A1FD"/>
<stop offset="0.919479" stop-color="#67AFFF" stop-opacity="0.5"/>
</linearGradient>
<linearGradient id="paint41_linear_1492_2324" x1="20.9914" y1="720.867" x2="875.845" y2="596.979" gradientUnits="userSpaceOnUse">
<stop stop-color="#67AFFF" stop-opacity="0.5"/>
<stop offset="0.580902" stop-color="#75A1FD"/>
<stop offset="0.919479" stop-color="#67AFFF" stop-opacity="0.5"/>
</linearGradient>
<clipPath id="clip0_1492_2324">
<rect width="956" height="857" fill="white"/>
</clipPath>
</defs>
</svg>
