<svg version="1.1" id="Capa_1" xmlns="http://www.w3.org/2000/svg" x="0" y="0" viewBox="0 0 393 350.8" style="enable-background:new 0 0 393 350.8" xml:space="preserve"><style>.st0{fill:#0e4fdf}</style><path class="st0" d="M165.3 169.1h-27.2c-37.5 0-68-30.5-68-67.9s30.5-67.9 68-67.9h163.2c4 0 7.2 3.2 7.2 7.2s-3.2 7.2-7.2 7.2H138.1c-29.6 0-53.6 24.1-53.6 53.6s24.1 53.6 53.6 53.6h27.2c4 0 7.2 3.2 7.2 7.2 0 3.8-3.2 7-7.2 7zM254.8 290.7H91.6c-4 0-7.2-3.2-7.2-7.2s3.2-7.2 7.2-7.2h163.2c29.6 0 53.6-24.1 53.6-53.6s-24.1-53.6-53.6-53.6h-27.2c-4 0-7.2-3.2-7.2-7.2s3.2-7.2 7.2-7.2h27.2c37.5 0 68 30.5 68 67.9s-30.5 68.1-68 68.1z"/><path d="M250.3 215.6h-150c-3.2-11.5-13.7-20.1-26.3-20.1-15 0-27.2 12.2-27.2 27.2S59 249.9 74 249.9c12.5 0 23.1-8.5 26.3-20.1h150c4 0 7.2-3.2 7.2-7.2s-3.3-7-7.2-7zM74.1 235.7c-7.1 0-12.9-5.8-12.9-12.9s5.8-12.9 12.9-12.9S87 215.7 87 222.8s-5.8 12.9-12.9 12.9zM321.3 74c-12.5 0-23.1 8.5-26.3 20.1H145c-4 0-7.2 3.2-7.2 7.2s3.2 7.2 7.2 7.2h150c3.2 11.5 13.7 20.1 26.3 20.1 15 0 27.2-12.2 27.2-27.2S336.3 74 321.3 74zm0 40.1c-7.1 0-12.9-5.8-12.9-12.9s5.8-12.9 12.9-12.9 12.9 5.8 12.9 12.9-5.8 12.9-12.9 12.9z"/></svg>
