<svg width="657" height="431" viewBox="0 0 657 431" fill="none" xmlns="http://www.w3.org/2000/svg">
<g clip-path="url(#clip0_1495_2800)">
<path d="M395.36 69.1856C395.325 69.1856 395.325 69.1856 395.36 69.1856C395.291 69.1511 395.222 69.1166 395.153 69.082C395.084 69.0475 395.015 69.0129 394.945 69.0129C394.911 69.0129 394.842 68.9784 394.807 68.9784H394.773H394.738C394.669 68.9784 394.6 68.9438 394.496 68.9438C394.427 68.9438 394.324 68.9438 394.255 68.9438C394.22 68.9438 394.185 68.9438 394.185 68.9438C394.151 68.9438 394.151 68.9438 394.116 68.9438C394.082 68.9438 394.013 68.9438 393.978 68.9438C393.875 68.9438 393.736 68.9784 393.633 69.0129C393.598 69.0129 393.529 69.0475 393.495 69.0475C393.46 69.0475 393.391 69.082 393.356 69.082C393.287 69.1166 393.253 69.1166 393.184 69.1511C393.011 69.2202 392.838 69.3238 392.631 69.4274L376.913 78.5116C374.564 79.8587 372.215 81.1367 369.866 82.2766C369.072 82.6565 368.312 83.002 367.552 83.3474C365.997 84.0727 364.443 84.8326 362.888 85.4543C361.437 86.0415 360.021 86.5942 358.605 87.1123C357.914 87.3541 357.257 87.665 356.567 87.8722C354.459 88.5976 352.352 89.2538 350.245 89.8065C350.21 89.8065 350.141 89.841 350.107 89.841C348.207 90.3591 346.341 90.7736 344.476 91.119C343.958 91.2227 343.405 91.3263 342.887 91.3954C341.16 91.7062 339.433 91.9826 337.74 92.1553C337.636 92.1553 337.498 92.1898 337.394 92.1898C335.736 92.3625 334.113 92.4316 332.489 92.4661C331.107 92.5007 329.795 92.4661 328.447 92.4316C327.411 92.397 326.34 92.397 325.338 92.328L317.221 91.6372C317.186 91.6372 317.186 91.6372 317.151 91.6372C317.082 91.6372 316.979 91.6372 316.91 91.6372C316.806 91.6372 316.702 91.6372 316.633 91.6717C316.53 91.6717 316.426 91.7062 316.288 91.7408C316.15 91.7753 315.977 91.8444 315.839 91.8789C315.666 91.948 315.493 92.0516 315.286 92.1553C314.906 92.397 314.526 92.7079 314.146 93.0533C314.112 93.0879 314.077 93.1224 314.042 93.1569C313.904 93.2951 313.766 93.4333 313.628 93.606C313.524 93.7096 313.421 93.8478 313.352 93.9514L306.857 102.103C304.819 104.694 302.712 107.181 300.605 109.633C298.947 111.533 297.288 113.398 295.596 115.229C295.319 115.505 295.078 115.816 294.801 116.092C292.798 118.199 290.794 120.271 288.756 122.275C288.549 122.482 288.307 122.689 288.065 122.931C286.372 124.589 284.645 126.212 282.883 127.801C282.503 128.147 282.089 128.527 281.709 128.872C279.843 130.565 277.944 132.188 276.044 133.742C275.664 134.053 275.284 134.364 274.904 134.64C273.142 136.057 271.415 137.438 269.618 138.751C269.342 138.958 269.066 139.2 268.755 139.407C266.82 140.858 264.851 142.205 262.882 143.517C262.433 143.828 261.984 144.105 261.569 144.381C259.566 145.693 257.562 146.972 255.559 148.18L237.907 158.612C237.458 158.888 237.043 159.199 236.663 159.579C236.594 159.648 236.525 159.717 236.456 159.786C236.421 159.821 236.421 159.821 236.387 159.855C236.352 159.924 236.283 159.959 236.248 160.028C236.145 160.166 236.041 160.27 235.938 160.408C235.834 160.511 235.765 160.65 235.696 160.753C235.627 160.857 235.558 160.961 235.488 161.099C235.419 161.202 235.35 161.306 235.281 161.41C235.281 161.444 235.247 161.444 235.247 161.479C235.247 161.479 235.247 161.479 235.247 161.513C235.212 161.582 235.143 161.686 235.108 161.755C235.039 161.859 235.005 161.962 234.936 162.066C234.867 162.169 234.832 162.273 234.798 162.411C234.763 162.515 234.694 162.653 234.659 162.757C234.625 162.895 234.556 162.998 234.521 163.137C234.487 163.206 234.487 163.275 234.452 163.344V163.378C234.452 163.413 234.418 163.482 234.418 163.517C234.383 163.655 234.349 163.827 234.314 163.966C234.279 164.138 234.245 164.311 234.21 164.518C234.176 164.76 234.176 165.036 234.176 165.278L234.383 235.5C234.487 268.486 245.955 293.494 266.095 305.203L290.449 319.365C270.309 307.655 258.84 282.648 258.737 249.661L258.53 179.44C258.53 178.853 258.633 178.196 258.806 177.575V177.54C258.979 176.918 259.255 176.297 259.6 175.709C259.6 175.709 259.6 175.709 259.6 175.675C259.946 175.088 260.326 174.535 260.775 174.051C260.81 174.017 260.81 174.017 260.844 173.982C261.293 173.499 261.777 173.084 262.295 172.773L279.947 162.342C281.951 161.168 283.954 159.89 285.958 158.543C286.407 158.266 286.856 157.955 287.271 157.679C289.24 156.367 291.174 154.985 293.143 153.569C293.419 153.362 293.73 153.12 294.007 152.913C295.768 151.6 297.53 150.218 299.257 148.802C299.637 148.491 300.017 148.18 300.397 147.87C302.297 146.315 304.197 144.657 306.063 142.999C306.443 142.654 306.857 142.274 307.237 141.929C308.964 140.34 310.692 138.751 312.384 137.093C312.626 136.886 312.833 136.644 313.075 136.437C313.179 136.333 313.282 136.264 313.352 136.16C315.286 134.26 317.221 132.292 319.086 130.254C319.362 129.977 319.604 129.667 319.88 129.39C321.469 127.663 323.059 125.936 324.613 124.175C324.717 124.071 324.82 123.933 324.924 123.829C327.031 121.377 329.138 118.855 331.176 116.299L337.671 108.148C337.913 107.837 338.189 107.526 338.465 107.284C338.845 106.939 339.225 106.628 339.605 106.386C339.951 106.179 340.262 106.041 340.607 105.972C340.918 105.868 341.263 105.868 341.54 105.868L349.658 106.559C350.072 106.593 350.521 106.628 350.936 106.662C351.523 106.697 352.145 106.662 352.767 106.662C354.114 106.697 355.461 106.731 356.808 106.697C357.119 106.697 357.43 106.731 357.776 106.697C359.088 106.628 360.401 106.524 361.748 106.421C361.852 106.421 361.99 106.386 362.094 106.386C363.234 106.282 364.339 106.144 365.514 105.972C366.101 105.868 366.688 105.764 367.275 105.661C367.794 105.557 368.346 105.488 368.864 105.384C370.73 105.004 372.595 104.59 374.495 104.106C374.53 104.106 374.564 104.072 374.599 104.072H374.633C376.706 103.519 378.813 102.863 380.92 102.138C381.577 101.896 382.268 101.619 382.959 101.378C384.237 100.894 385.48 100.48 386.758 99.9269C386.931 99.8579 387.104 99.7542 387.277 99.6852C388.831 99.0289 390.386 98.3035 391.94 97.5782C392.735 97.1982 393.495 96.8874 394.289 96.5074C396.638 95.333 398.987 94.0895 401.336 92.7425L417.054 83.6582C417.296 83.5201 417.537 83.4164 417.779 83.3128C417.814 83.3128 417.883 83.2783 417.917 83.2783C418.125 83.2092 418.367 83.1747 418.539 83.1401C418.574 83.1401 418.574 83.1401 418.608 83.1401C418.816 83.1401 419.023 83.1401 419.23 83.1747H419.265C419.472 83.2092 419.645 83.2783 419.817 83.3819L395.36 69.1856Z" fill="url(#paint0_linear_1495_2800)"/>
<path d="M339.537 106.42C340.193 106.04 340.884 105.833 341.471 105.902L349.589 106.593C365.307 107.94 383.097 103.139 401.233 92.6731L416.951 83.5888C419.093 82.3454 420.854 83.3471 420.854 85.7995L421.062 156.643C421.165 191.563 408.522 232.287 386.172 268.831L385.584 269.66L342.922 325.858C342.3 326.687 341.575 327.343 340.849 327.758C340.124 328.172 339.433 328.345 338.777 328.276L295.251 321.92L294.664 321.748C271.795 311.247 258.668 285.1 258.565 249.765L258.357 179.543C258.357 177.125 260.05 174.155 262.157 172.911L279.809 162.48C297.876 151.807 315.528 135.918 331.073 116.368L337.568 108.216C338.19 107.422 338.846 106.835 339.537 106.42Z" fill="url(#paint1_linear_1495_2800)"/>
<path d="M407.866 110.048C408.177 109.944 408.488 109.875 408.764 109.841C408.798 109.841 408.833 109.841 408.833 109.841C409.144 109.806 409.42 109.841 409.697 109.875H409.731C410.008 109.944 410.284 110.048 410.526 110.186L403.237 105.938H403.202C403.099 105.903 403.03 105.834 402.926 105.799C402.822 105.765 402.753 105.73 402.65 105.696C402.58 105.661 402.511 105.661 402.442 105.661H402.408C402.373 105.661 402.373 105.661 402.339 105.661C402.235 105.627 402.131 105.627 401.993 105.627C401.89 105.627 401.751 105.627 401.648 105.627C401.613 105.627 401.579 105.627 401.51 105.627C401.475 105.627 401.441 105.627 401.441 105.627C401.371 105.627 401.302 105.627 401.233 105.661C401.061 105.696 400.922 105.73 400.75 105.765C400.681 105.799 400.611 105.799 400.542 105.834C400.473 105.868 400.404 105.868 400.335 105.903C400.266 105.938 400.162 105.938 400.093 105.972C399.851 106.076 399.575 106.214 399.333 106.352L389.315 112.155C387.312 113.295 385.343 114.366 383.374 115.367C382.717 115.678 382.061 115.954 381.405 116.265C380.092 116.887 378.779 117.509 377.467 118.061C376.258 118.58 375.049 119.029 373.874 119.443C373.287 119.65 372.7 119.892 372.112 120.099C370.316 120.721 368.554 121.274 366.792 121.757H366.758C365.134 122.206 363.545 122.552 361.956 122.863C361.507 122.966 361.058 123.035 360.609 123.104C359.711 123.277 358.813 123.381 357.915 123.484C356.567 123.657 355.22 123.795 353.873 123.899C353.182 123.933 352.491 124.002 351.8 124.002C350.66 124.037 349.52 124.002 348.38 123.968C347.517 123.933 346.619 123.933 345.755 123.864L340.746 123.415H340.711C340.608 123.415 340.47 123.415 340.366 123.415C340.228 123.415 340.09 123.45 339.952 123.45C339.779 123.484 339.641 123.519 339.468 123.553C339.468 123.553 339.468 123.553 339.433 123.553C339.226 123.622 339.019 123.692 338.812 123.761C338.535 123.864 338.293 124.002 338.017 124.141C337.464 124.451 336.912 124.9 336.359 125.419C336.29 125.488 336.221 125.488 336.186 125.557C335.979 125.764 335.806 125.971 335.599 126.178C335.495 126.317 335.357 126.455 335.253 126.593L331.592 131.256C329.865 133.432 328.103 135.539 326.306 137.611C324.925 139.2 323.543 140.755 322.127 142.24C321.885 142.516 321.643 142.793 321.401 143.034C319.743 144.796 318.085 146.523 316.392 148.181C314.354 150.219 312.247 152.153 310.174 154.018C309.587 154.536 309 155.02 308.412 155.538C306.858 156.885 305.303 158.163 303.749 159.407C303.024 159.994 302.298 160.547 301.538 161.134C300.018 162.308 298.498 163.413 296.944 164.519C296.253 165.002 295.597 165.486 294.906 165.935C292.729 167.42 290.518 168.836 288.342 170.149L276.666 177.023C276.113 177.368 275.561 177.782 275.077 178.266C275.008 178.301 274.973 178.335 274.904 178.404C274.835 178.473 274.766 178.577 274.663 178.646C274.594 178.715 274.559 178.784 274.49 178.819C274.421 178.888 274.352 178.957 274.317 179.026C274.179 179.199 274.006 179.371 273.868 179.544C273.799 179.613 273.764 179.717 273.695 179.786C273.661 179.82 273.661 179.855 273.626 179.889C273.592 179.958 273.557 179.993 273.523 180.062C273.419 180.2 273.315 180.373 273.212 180.546C273.108 180.684 273.039 180.857 272.935 180.995C272.935 181.029 272.901 181.029 272.901 181.064C272.901 181.098 272.866 181.098 272.866 181.133C272.797 181.236 272.728 181.34 272.694 181.478C272.624 181.616 272.521 181.789 272.452 181.927C272.383 182.065 272.314 182.238 272.244 182.411C272.175 182.584 272.106 182.722 272.037 182.894C271.968 183.067 271.899 183.24 271.864 183.413C271.83 183.516 271.795 183.585 271.795 183.689C271.795 183.723 271.761 183.758 271.761 183.793C271.761 183.862 271.726 183.896 271.726 183.965C271.657 184.172 271.623 184.38 271.588 184.587C271.554 184.725 271.554 184.829 271.519 184.967C271.519 185.036 271.484 185.105 271.484 185.174C271.484 185.243 271.45 185.278 271.45 185.347C271.415 185.727 271.381 186.072 271.381 186.418L271.554 241.545C271.588 250.042 272.521 257.883 274.283 264.929C275.008 267.761 275.837 270.455 276.839 273.011C279.292 279.436 282.573 285.032 286.58 289.66C289.793 293.356 293.489 296.465 297.635 298.848L304.923 303.096C288.342 293.46 278.912 272.942 278.842 245.793L278.67 190.666C278.67 190.252 278.704 189.837 278.773 189.423C278.773 189.354 278.808 189.285 278.808 189.215C278.877 188.835 278.946 188.421 279.084 188.041C279.084 188.006 279.119 187.972 279.119 187.937C279.257 187.523 279.395 187.074 279.602 186.659C279.775 186.21 280.017 185.796 280.224 185.381C280.224 185.347 280.259 185.347 280.259 185.312C280.501 184.898 280.742 184.518 281.019 184.172C281.053 184.138 281.088 184.103 281.088 184.069C281.33 183.723 281.606 183.413 281.882 183.102C281.951 183.033 281.986 182.964 282.055 182.894C282.193 182.756 282.331 182.653 282.47 182.515C282.988 182.031 283.506 181.582 284.059 181.271L295.735 174.397C297.946 173.085 300.122 171.669 302.298 170.183C302.989 169.734 303.645 169.251 304.302 168.767C305.822 167.697 307.376 166.557 308.896 165.382C309.622 164.83 310.381 164.242 311.107 163.655C312.661 162.412 314.216 161.099 315.77 159.787C316.358 159.269 316.945 158.785 317.567 158.267C319.674 156.402 321.747 154.467 323.785 152.429C323.854 152.36 323.888 152.326 323.957 152.257C325.581 150.633 327.205 148.975 328.828 147.283C329.07 147.007 329.312 146.73 329.554 146.488C330.866 145.072 332.179 143.622 333.457 142.136C333.526 142.033 333.63 141.929 333.699 141.825C335.495 139.753 337.257 137.646 338.984 135.47L342.646 130.841C342.991 130.392 343.371 130.047 343.751 129.667C344.304 129.149 344.857 128.7 345.41 128.389C345.893 128.113 346.342 127.906 346.791 127.802H346.826C347.275 127.664 347.724 127.629 348.139 127.664L353.147 128.113C353.493 128.147 353.873 128.182 354.218 128.182C354.737 128.216 355.255 128.182 355.773 128.182C356.913 128.216 358.018 128.251 359.193 128.216C359.469 128.216 359.711 128.251 359.987 128.216C360.402 128.182 360.851 128.113 361.265 128.078C362.578 127.975 363.925 127.871 365.307 127.664C365.722 127.595 366.102 127.595 366.516 127.56C367 127.491 367.518 127.387 368.002 127.284C368.451 127.215 368.9 127.111 369.349 127.042C370.938 126.731 372.527 126.386 374.15 125.937C374.185 125.937 374.185 125.937 374.22 125.937C375.981 125.453 377.743 124.9 379.539 124.279C380.127 124.071 380.714 123.83 381.301 123.622C382.337 123.243 383.408 122.863 384.479 122.414C384.617 122.344 384.756 122.275 384.928 122.206C386.241 121.654 387.554 121.032 388.901 120.41C389.557 120.099 390.214 119.823 390.87 119.512C392.839 118.51 394.843 117.474 396.812 116.3L406.829 110.497C407.175 110.29 407.52 110.152 407.831 110.048C407.728 110.082 407.797 110.048 407.866 110.048Z" fill="url(#paint2_linear_1495_2800)"/>
<path d="M345.306 128.424C346.239 127.871 347.206 127.595 348.035 127.664L353.044 128.113C366.309 129.253 381.336 125.177 396.605 116.369L406.623 110.567C409.628 108.839 412.081 110.221 412.081 113.675L412.253 169.286C412.322 197.92 401.994 231.252 383.754 261.233C383.512 261.648 383.236 262.062 382.925 262.442L349.279 306.758C348.381 307.933 347.379 308.865 346.343 309.452C345.341 310.04 344.339 310.281 343.441 310.178L309.069 305.169C308.793 305.135 308.516 305.031 308.24 304.928C289.552 296.223 278.808 274.808 278.739 245.828L278.566 190.701C278.566 187.247 280.95 183.068 283.921 181.341L295.597 174.467C310.831 165.452 325.754 152.015 338.846 135.54L342.508 130.911C343.406 129.806 344.374 128.977 345.306 128.424Z" fill="url(#paint3_linear_1495_2800)"/>
<path d="M360.096 208.674C363.999 206.429 367.177 208.225 367.212 212.715C367.212 215.133 366.314 217.896 364.725 220.383L364.759 229.157C364.759 231.851 362.825 235.167 360.476 236.514C358.127 237.861 356.227 236.756 356.192 234.096L356.158 225.772C354.223 225.392 353.049 223.561 353.049 220.901C353.049 216.411 356.192 210.919 360.096 208.674Z" fill="#FFA11D"/>
<path d="M379.027 187.465C383.207 185.048 386.627 187.016 386.627 191.818L386.73 227.913C386.73 232.714 383.345 238.62 379.165 241.038L341.27 262.937C337.09 265.355 333.67 263.386 333.67 258.585L333.566 222.49C333.566 217.689 336.952 211.782 341.132 209.364L379.027 187.465ZM364.725 220.383C366.315 217.93 367.213 215.133 367.213 212.715C367.213 208.225 364 206.428 360.097 208.674C356.193 210.919 353.015 216.411 353.049 220.901C353.049 223.595 354.224 225.391 356.158 225.771L356.193 234.096C356.193 236.79 358.127 237.895 360.477 236.513C362.826 235.166 364.76 231.816 364.76 229.156L364.725 220.383Z" fill="#FFD06C"/>
<path d="M381.201 183.701C381.754 183.528 382.307 183.39 382.86 183.355C382.894 183.355 382.963 183.355 382.998 183.355C383.55 183.321 384.103 183.355 384.621 183.425C384.656 183.425 384.69 183.425 384.69 183.459C385.209 183.563 385.692 183.735 386.141 184.012L376.4 178.347C376.365 178.347 376.365 178.313 376.331 178.313C376.158 178.209 375.985 178.14 375.812 178.071C375.64 178.002 375.467 177.933 375.294 177.898C375.191 177.863 375.052 177.829 374.949 177.829C374.914 177.829 374.88 177.829 374.88 177.794C374.845 177.794 374.811 177.76 374.742 177.76C374.534 177.725 374.327 177.691 374.12 177.691C373.913 177.691 373.671 177.691 373.463 177.691C373.394 177.691 373.325 177.691 373.256 177.725C373.222 177.725 373.153 177.725 373.118 177.725C372.98 177.725 372.876 177.76 372.738 177.76C372.462 177.794 372.151 177.863 371.874 177.933C371.736 177.967 371.633 178.036 371.494 178.071C371.391 178.105 371.253 178.14 371.149 178.174C371.011 178.243 370.838 178.278 370.7 178.347C370.251 178.52 369.767 178.762 369.318 179.038L331.388 200.937C330.732 201.317 330.11 201.766 329.488 202.249C329.281 202.422 329.108 202.595 328.901 202.767C328.625 203.009 328.314 203.251 328.038 203.527C327.899 203.665 327.796 203.804 327.658 203.942C327.554 204.045 327.45 204.184 327.312 204.287C327.174 204.425 327.07 204.564 326.932 204.702C326.656 205.013 326.379 205.358 326.103 205.703C325.999 205.842 325.93 205.945 325.827 206.083C325.792 206.152 325.723 206.221 325.689 206.291C325.619 206.394 325.516 206.532 325.447 206.636C325.239 206.912 325.067 207.223 324.859 207.499C324.687 207.776 324.514 208.052 324.341 208.363C324.341 208.398 324.307 208.398 324.307 208.432C324.307 208.467 324.272 208.467 324.272 208.501C324.134 208.743 323.996 208.985 323.892 209.227C323.754 209.503 323.581 209.814 323.443 210.09C323.305 210.332 323.201 210.608 323.098 210.85C323.098 210.85 323.098 210.885 323.063 210.885C323.063 210.919 323.063 210.919 323.029 210.954C322.89 211.264 322.787 211.541 322.649 211.852C322.51 212.163 322.407 212.473 322.303 212.819C322.269 212.957 322.2 213.13 322.165 213.268C322.13 213.337 322.13 213.406 322.096 213.475C322.061 213.579 322.027 213.717 321.992 213.82C321.889 214.2 321.785 214.58 321.716 214.96C321.681 215.202 321.647 215.409 321.612 215.651C321.578 215.789 321.578 215.893 321.543 216.031C321.543 216.135 321.509 216.273 321.474 216.376C321.405 217.033 321.336 217.689 321.336 218.345L321.44 254.44C321.44 257.584 322.58 259.829 324.376 260.865L334.117 266.53C332.321 265.493 331.181 263.248 331.181 260.105L331.077 224.01C331.077 223.25 331.147 222.49 331.25 221.73C331.285 221.627 331.285 221.489 331.319 221.35C331.457 220.625 331.596 219.9 331.837 219.174C331.872 219.105 331.872 219.036 331.907 218.967C332.148 218.173 332.459 217.378 332.77 216.584C332.77 216.584 332.77 216.549 332.805 216.549C333.15 215.755 333.565 214.96 333.979 214.2C333.979 214.166 334.014 214.166 334.014 214.131C334.428 213.371 334.912 212.681 335.43 211.99C335.465 211.921 335.534 211.852 335.568 211.817C336.017 211.195 336.535 210.608 337.054 210.056C337.157 209.952 337.261 209.814 337.399 209.71C337.814 209.296 338.228 208.916 338.677 208.536C338.885 208.363 339.057 208.19 339.264 208.018C339.886 207.534 340.508 207.085 341.164 206.705L379.094 184.806C379.716 184.426 380.338 184.184 380.925 183.943C380.96 183.77 381.098 183.735 381.201 183.701Z" fill="#FFCA50"/>
<path d="M379.026 184.668C384.553 181.455 389.078 184.08 389.078 190.436L389.182 226.531C389.217 232.887 384.726 240.693 379.164 243.871L341.269 265.735C335.742 268.947 331.182 266.357 331.182 260.001L331.078 223.906C331.044 217.55 335.569 209.744 341.096 206.532L379.026 184.668ZM386.729 227.913L386.626 191.818C386.626 187.016 383.206 185.048 379.026 187.465L341.096 209.364C336.916 211.782 333.531 217.689 333.531 222.49L333.635 258.585C333.635 263.386 337.055 265.355 341.234 262.937L379.164 241.038C383.379 238.62 386.764 232.748 386.729 227.913Z" fill="#FFDE9B"/>
<path d="M369.389 167.64C369.389 165.049 368.456 163.253 367.006 162.39L362.135 159.557C363.586 160.421 364.518 162.217 364.518 164.807L364.587 187.363L369.458 190.195L369.389 167.64Z" fill="#FFA11D"/>
<path d="M361.167 154.514C369.734 149.574 376.712 153.547 376.746 163.391L376.815 185.946L369.457 190.194L369.388 167.639C369.388 162.458 365.692 160.351 361.167 162.976L356.538 165.636C352.013 168.261 348.351 174.582 348.385 179.763L348.455 202.318L341.097 206.567L341.027 184.012C340.993 174.167 347.936 162.147 356.503 157.208L361.167 154.514Z" fill="#FFD06C"/>
<path d="M363.724 153.305C364.104 153.167 364.449 153.029 364.829 152.925C365.071 152.856 365.278 152.787 365.52 152.718C365.727 152.683 365.935 152.614 366.142 152.58C366.418 152.511 366.695 152.476 366.971 152.441C367.144 152.407 367.282 152.407 367.455 152.407C367.8 152.372 368.146 152.372 368.456 152.372C368.526 152.372 368.595 152.372 368.664 152.372C369.044 152.407 369.424 152.441 369.804 152.511C369.907 152.545 369.976 152.545 370.08 152.58C370.356 152.649 370.667 152.718 370.944 152.821C371.047 152.856 371.116 152.89 371.22 152.925C371.565 153.063 371.911 153.236 372.222 153.409L367.351 150.576C367.317 150.576 367.282 150.542 367.282 150.542C367.04 150.404 366.764 150.265 366.487 150.162C366.453 150.127 366.384 150.127 366.349 150.093C366.28 150.058 366.177 150.024 366.073 149.989C365.935 149.955 365.797 149.885 365.658 149.851C365.52 149.816 365.347 149.782 365.209 149.747C365.106 149.713 365.037 149.713 364.933 149.678C364.898 149.678 364.829 149.644 364.795 149.644C364.484 149.575 364.173 149.54 363.862 149.54C363.828 149.54 363.828 149.54 363.793 149.54C363.724 149.54 363.655 149.54 363.586 149.54C363.344 149.54 363.102 149.505 362.826 149.54C362.757 149.54 362.653 149.575 362.584 149.575C362.446 149.575 362.273 149.609 362.135 149.609C361.997 149.609 361.858 149.644 361.686 149.644C361.548 149.678 361.444 149.713 361.306 149.713C361.099 149.747 360.891 149.782 360.684 149.851C360.58 149.885 360.442 149.885 360.339 149.92C360.235 149.955 360.097 149.989 359.993 150.024C359.648 150.127 359.268 150.265 358.888 150.404C358.75 150.438 358.646 150.473 358.508 150.542C358.439 150.576 358.37 150.611 358.3 150.645C357.679 150.922 357.022 151.233 356.366 151.612L351.737 154.272C350.735 154.859 349.768 155.55 348.835 156.275C348.524 156.517 348.248 156.794 347.937 157.07C347.488 157.45 347.004 157.83 346.59 158.279C346.383 158.486 346.21 158.693 346.003 158.901C345.83 159.073 345.657 159.281 345.484 159.453C345.277 159.66 345.104 159.868 344.897 160.075C344.448 160.559 344.034 161.077 343.619 161.595C343.481 161.767 343.343 161.975 343.205 162.182C343.135 162.286 343.066 162.389 342.997 162.458C342.859 162.631 342.721 162.804 342.583 163.011C342.272 163.46 341.961 163.909 341.685 164.358C341.408 164.807 341.132 165.222 340.89 165.671C340.856 165.705 340.855 165.74 340.821 165.774C340.786 165.809 340.786 165.843 340.752 165.878C340.545 166.258 340.337 166.603 340.13 166.983C339.888 167.432 339.681 167.847 339.474 168.296C339.266 168.71 339.094 169.09 338.921 169.505C338.921 169.539 338.886 169.539 338.886 169.574C338.886 169.608 338.852 169.608 338.852 169.643C338.645 170.092 338.472 170.575 338.265 171.024C338.092 171.508 337.885 171.992 337.746 172.475C337.677 172.717 337.608 172.959 337.539 173.2C337.505 173.304 337.47 173.408 337.436 173.511C337.367 173.684 337.332 173.891 337.263 174.064C337.09 174.651 336.952 175.238 336.814 175.86C336.745 176.205 336.676 176.551 336.641 176.931C336.607 177.104 336.572 177.311 336.537 177.484C336.503 177.656 336.468 177.829 336.434 178.002C336.296 179.038 336.227 180.04 336.227 181.041L336.296 203.596L341.166 206.429L341.097 183.874C341.097 182.734 341.201 181.525 341.374 180.316C341.408 180.143 341.443 179.936 341.477 179.763C341.685 178.658 341.926 177.518 342.272 176.378C342.306 176.275 342.341 176.171 342.375 176.067C342.755 174.824 343.205 173.615 343.723 172.406C343.723 172.371 343.757 172.371 343.757 172.337C344.31 171.093 344.897 169.885 345.588 168.71C345.623 168.676 345.623 168.641 345.657 168.607C346.314 167.467 347.039 166.361 347.833 165.291C347.903 165.187 347.972 165.083 348.041 165.014C348.766 164.047 349.526 163.149 350.321 162.286C350.493 162.113 350.666 161.906 350.839 161.733C351.461 161.077 352.117 160.489 352.808 159.902C353.119 159.626 353.395 159.35 353.706 159.108C354.639 158.348 355.606 157.657 356.608 157.07L361.237 154.41C361.893 154.03 362.549 153.719 363.171 153.443C363.309 153.443 363.517 153.374 363.724 153.305Z" fill="#FFA11D"/>
<path d="M115.344 249.178L183.707 209.732V212.53L114.342 252.563L94.8591 241.475L61.3856 260.818C61.4892 260.265 61.5237 259.747 61.5237 259.229C61.5237 258.78 61.4892 258.365 61.4201 257.985L95.8954 238.09L115.344 249.178Z" fill="url(#paint4_linear_1495_2800)"/>
<path d="M58.8637 259.436L58.7946 259.47V262.303C58.9674 261.75 59.0365 261.163 59.0365 260.645C59.0365 260.196 58.9674 259.781 58.8637 259.436Z" fill="url(#paint5_linear_1495_2800)"/>
<path fill-rule="evenodd" clip-rule="evenodd" d="M61.4887 259.229C61.4887 258.78 61.4541 258.365 61.385 257.985C60.8669 254.911 58.276 253.84 55.2016 255.637C51.7126 257.64 48.9491 262.51 48.9491 266.482C48.9491 270.455 51.7817 272.078 55.2361 270.075C58.2415 268.313 60.7632 264.41 61.3505 260.818C61.4541 260.3 61.4887 259.747 61.4887 259.229ZM59.0706 260.61C59.0706 261.163 58.9669 261.716 58.8288 262.268C58.276 264.272 56.8943 266.31 55.2707 267.208C53.1635 268.417 51.4363 267.415 51.4363 264.997C51.4363 262.579 53.1289 259.609 55.2361 258.4C56.9288 257.398 58.4142 257.882 58.8978 259.401C59.0015 259.747 59.0706 260.161 59.0706 260.61Z" fill="url(#paint6_linear_1495_2800)"/>
<path d="M103.668 420.707C103.668 420.154 103.599 419.705 103.426 419.325V422.123L103.495 422.089C103.599 421.64 103.668 421.156 103.668 420.707Z" fill="url(#paint7_linear_1495_2800)"/>
<path fill-rule="evenodd" clip-rule="evenodd" d="M228.2 324.96L158.835 364.993L139.421 398.463L105.972 417.792C105.332 414.928 102.822 413.981 99.8336 415.699C96.3446 417.702 93.581 422.572 93.581 426.545C93.581 430.517 96.4137 432.14 99.8681 430.137C102.943 428.375 105.499 424.299 106.017 420.638L106.026 420.578L140.457 400.708L159.837 367.204L228.2 327.758V324.96ZM103.53 422.089C103.633 421.605 103.703 421.156 103.703 420.707C103.703 420.155 103.599 419.706 103.461 419.326C102.908 417.944 101.492 417.599 99.8681 418.531C97.7609 419.74 96.0682 422.676 96.0682 425.128C96.0682 427.546 97.7954 428.548 99.9026 427.339C101.595 426.337 103.046 424.161 103.53 422.089Z" fill="url(#paint8_linear_1495_2800)"/>
<path fill-rule="evenodd" clip-rule="evenodd" d="M134.24 351.004L203.64 310.937V313.734L135.276 353.215L115.931 386.719L81.4611 406.612L81.4554 406.649C80.9373 410.31 78.381 414.386 75.3065 416.148C71.8521 418.151 69.0195 416.528 68.9849 412.555C68.9849 408.583 71.783 403.713 75.2374 401.71C78.2428 399.948 80.7991 400.95 81.4209 403.851L81.4324 403.902L81.4395 403.936L81.4214 403.817L114.895 384.474L134.24 351.004ZM81.5573 405.104C81.558 405.14 81.5585 405.175 81.5587 405.211L81.5591 405.302L81.5589 405.361L81.5584 405.411C81.5592 405.363 81.5596 405.315 81.5596 405.268L81.5595 405.23L81.5588 405.172L81.5573 405.104ZM78.8305 405.336C78.9901 405.687 79.0907 406.097 79.1051 406.594C79.0946 406.123 79.0234 405.686 78.8646 405.336C78.3119 403.955 76.8956 403.575 75.2374 404.542C73.1302 405.751 71.4376 408.721 71.4376 411.139C71.4376 413.557 73.1648 414.559 75.272 413.35C76.9992 412.314 78.4501 410.172 78.9337 408.1L78.8305 408.168V405.336Z" fill="url(#paint9_linear_1495_2800)"/>
<path fill-rule="evenodd" clip-rule="evenodd" d="M12.5735 315.56C12.5739 315.596 12.5742 315.633 12.5742 315.669C12.5742 316.187 12.5396 316.74 12.436 317.258C11.8487 320.85 9.32699 324.753 6.32163 326.515C2.83264 328.518 0 326.895 0 322.923C0 318.95 2.7981 314.08 6.25254 312.077C9.32699 310.281 11.9178 311.351 12.4705 314.426C12.4724 314.436 12.4742 314.446 12.476 314.456L46.9464 294.564L66.3949 305.617L183.777 237.848V240.646L65.3931 309.036L45.91 297.949L12.4365 317.292C12.5401 316.739 12.5747 316.221 12.5747 315.703C12.5747 315.655 12.5743 315.607 12.5735 315.56ZM9.84559 315.945L9.9487 315.876C9.46498 314.356 7.97965 313.907 6.28708 314.909C4.17987 316.118 2.45265 319.089 2.45265 321.506C2.45265 323.924 4.17987 324.926 6.28708 323.717C7.94521 322.75 9.36153 320.712 9.8797 318.743L9.84559 318.742V315.945Z" fill="url(#paint10_linear_1495_2800)"/>
<path fill-rule="evenodd" clip-rule="evenodd" d="M92.2679 344.234C95.2564 342.483 97.8009 343.463 98.4407 346.327L176.591 301.23V304.028L98.4943 349.114L98.4859 349.174C97.9677 352.835 95.4114 356.876 92.337 358.638C88.8825 360.641 86.0499 359.018 86.0154 355.046C86.0154 351.073 88.8135 346.203 92.2679 344.234ZM96.1369 349.208C96.1369 351.661 94.4097 354.631 92.3024 355.84C90.1952 357.049 88.468 356.082 88.468 353.629C88.468 351.212 90.1952 348.241 92.3024 347.032C94.4097 345.823 96.1369 346.79 96.1369 349.208Z" fill="url(#paint11_linear_1495_2800)"/>
<path d="M183.88 271.663V268.831L66.498 336.565C66.5671 337.014 66.6362 337.498 66.6362 338.016C66.6362 338.465 66.6017 338.914 66.5326 339.398L183.88 271.663Z" fill="url(#paint12_linear_1495_2800)"/>
<path fill-rule="evenodd" clip-rule="evenodd" d="M66.4642 336.599C66.5678 337.048 66.6024 337.532 66.6024 338.05C66.6024 338.499 66.5678 338.948 66.4988 339.432C65.9806 343.093 63.4243 347.134 60.3498 348.896C56.8954 350.899 54.0628 349.276 54.0628 345.304C54.0628 341.331 56.8609 336.461 60.3153 334.492C63.3207 332.731 65.877 333.698 66.4642 336.599ZM60.3498 346.063C62.4571 344.855 64.1843 341.884 64.1843 339.432C64.1843 337.014 62.4571 336.047 60.3498 337.256C58.2426 338.464 56.55 341.4 56.55 343.853C56.55 346.305 58.2426 347.272 60.3498 346.063Z" fill="url(#paint13_linear_1495_2800)"/>
<path fill-rule="evenodd" clip-rule="evenodd" d="M657.035 4.45656C657.001 0.484373 654.168 -1.13904 650.714 0.864322C647.639 2.6259 645.083 6.66718 644.599 10.3285C644.53 10.7775 644.496 11.2266 644.496 11.6756C644.496 12.1937 644.53 12.6773 644.634 13.1263C645.256 16.0277 647.778 16.9949 650.783 15.2678C654.237 13.299 657.035 8.42876 657.035 4.45656ZM654.583 5.87274C654.583 8.29059 652.856 11.2611 650.748 12.47C649.125 13.4026 647.708 13.0227 647.19 11.641C647.178 11.6085 647.167 11.5752 647.156 11.5411V8.8423L647.126 8.85726C647.58 6.79121 649.061 4.6605 650.748 3.66213C652.856 2.4532 654.583 3.45488 654.583 5.87274Z" fill="url(#paint14_linear_1495_2800)"/>
<path fill-rule="evenodd" clip-rule="evenodd" d="M596.962 85.4544C600.417 83.451 603.249 85.0744 603.284 89.0466C603.284 93.0188 600.486 97.8891 597.031 99.8579C593.957 101.619 591.366 100.583 590.848 97.5091C590.779 97.1292 590.744 96.7147 590.744 96.2657C590.744 95.7476 590.779 95.1949 590.882 94.6768C591.435 91.1191 593.957 87.216 596.962 85.4544ZM596.997 97.0601C599.104 95.8512 600.831 92.8807 600.831 90.4628C600.831 88.045 599.104 87.0433 596.997 88.2522C594.89 89.4611 593.162 92.4316 593.162 94.884C593.162 97.3364 594.855 98.3036 596.997 97.0601Z" fill="url(#paint15_linear_1495_2800)"/>
<path fill-rule="evenodd" clip-rule="evenodd" d="M571.469 135.608C571.469 131.636 568.636 130.012 565.181 132.015C562.176 133.743 559.654 137.646 559.067 141.272L480.893 186.417V189.215L559.032 144.105C558.963 143.725 558.929 143.31 558.929 142.861C558.929 142.712 558.932 142.562 558.938 142.411C558.932 142.563 558.929 142.713 558.929 142.861C558.929 143.31 558.963 143.725 559.032 144.105C559.551 147.144 562.142 148.215 565.216 146.454C568.705 144.45 571.469 139.58 571.469 135.608ZM569.016 137.024C569.016 139.476 567.323 142.412 565.216 143.621C563.109 144.83 561.382 143.863 561.347 141.445C561.347 138.993 563.074 136.022 565.181 134.813C567.289 133.604 569.016 134.606 569.016 137.024Z" fill="url(#paint16_linear_1495_2800)"/>
<path fill-rule="evenodd" clip-rule="evenodd" d="M601.626 1.00232C605.081 -1.00105 607.913 0.622371 607.948 4.59456C607.982 8.56675 605.15 13.437 601.695 15.4058C598.69 17.1329 596.168 16.1657 595.546 13.2643C595.443 12.8153 595.408 12.3317 595.408 11.8136C595.408 11.3646 595.443 10.9155 595.512 10.4665C595.995 6.80517 598.552 2.7639 601.626 1.00232ZM598.068 8.98112L598.038 8.99633C598.492 6.92995 599.973 4.79867 601.661 3.80012C603.768 2.5912 605.495 3.59288 605.495 6.01074C605.495 8.42859 603.768 11.3991 601.661 12.608C600.037 13.5406 598.621 13.1607 598.103 11.779C598.095 11.757 598.087 11.7345 598.079 11.7117L598.068 11.68V8.98112Z" fill="url(#paint17_linear_1495_2800)"/>
<path d="M590.814 94.7113C590.71 95.264 590.675 95.7821 590.675 96.3002C590.675 96.7492 590.71 97.1637 590.779 97.5437L473.432 165.278V162.48L590.814 94.7113Z" fill="url(#paint18_linear_1495_2800)"/>
<path d="M644.461 11.6755C644.461 11.2265 644.495 10.7774 644.565 10.3284L610.089 30.2584L590.744 63.763L473.362 131.532V134.33L591.746 65.9736L611.091 32.469L644.599 13.1262C644.53 12.6772 644.461 12.1936 644.461 11.6755Z" fill="url(#paint19_linear_1495_2800)"/>
<path d="M595.477 10.4667C595.408 10.9157 595.373 11.3648 595.373 11.8138C595.373 12.3319 595.442 12.8155 595.511 13.2645L562.003 32.6073L542.658 66.1119L473.259 106.179V103.381L541.657 63.9013L561.001 30.3967L595.477 10.4667Z" fill="url(#paint20_linear_1495_2800)"/>
<path fill-rule="evenodd" clip-rule="evenodd" d="M588.776 173.291C588.741 169.319 585.908 167.696 582.454 169.699C579.449 171.426 576.961 175.329 576.374 178.921C576.271 179.439 576.236 179.992 576.236 180.51C576.236 180.959 576.271 181.374 576.34 181.754C576.892 184.793 579.449 185.864 582.523 184.102C585.978 182.134 588.776 177.263 588.776 173.291ZM586.323 174.707C586.323 177.125 584.596 180.096 582.489 181.305C580.796 182.306 579.345 181.823 578.861 180.303L578.857 180.288L578.896 180.269V177.576C578.907 177.53 578.919 177.483 578.93 177.436C579.449 175.467 580.865 173.429 582.489 172.497C584.596 171.288 586.323 172.29 586.323 174.707Z" fill="url(#paint21_linear_1495_2800)"/>
<path d="M518.409 240.578L551.917 221.235C551.813 221.787 551.779 222.305 551.779 222.824C551.779 223.273 551.813 223.687 551.882 224.067L517.407 243.963L497.924 232.875L429.561 272.355V269.557L498.96 229.49L518.409 240.578Z" fill="url(#paint22_linear_1495_2800)"/>
<path d="M576.34 178.956L542.832 198.299L523.383 187.177L454.018 227.21V230.042L522.347 190.596L541.83 201.684L576.305 181.788C576.236 181.408 576.202 180.994 576.202 180.545C576.202 180.027 576.236 179.509 576.34 178.956Z" fill="url(#paint23_linear_1495_2800)"/>
<path fill-rule="evenodd" clip-rule="evenodd" d="M558.031 212.012C561.485 210.008 564.318 211.632 564.352 215.604C564.352 219.576 561.554 224.446 558.1 226.415C555.025 228.177 552.469 227.106 551.916 224.066C551.847 223.687 551.813 223.272 551.813 222.823C551.813 222.305 551.847 221.752 551.951 221.234C552.538 217.642 555.025 213.739 558.031 212.012ZM554.473 222.581V219.888C554.484 219.841 554.496 219.795 554.507 219.749C555.025 217.78 556.442 215.742 558.065 214.81C560.173 213.601 561.9 214.602 561.9 217.02C561.9 219.438 560.173 222.409 558.065 223.617C556.373 224.585 554.922 224.136 554.438 222.616L554.434 222.601L554.473 222.581Z" fill="url(#paint24_linear_1495_2800)"/>
</g>
<defs>
<linearGradient id="paint0_linear_1495_2800" x1="264.014" y1="189.69" x2="384.263" y2="203.45" gradientUnits="userSpaceOnUse">
<stop stop-color="#1447C2"/>
<stop offset="0.921875" stop-color="#4A7BFD"/>
</linearGradient>
<linearGradient id="paint1_linear_1495_2800" x1="240.467" y1="205.169" x2="418.709" y2="175.998" gradientUnits="userSpaceOnUse">
<stop stop-color="#3C76FF"/>
<stop offset="1" stop-color="#69B2FF"/>
</linearGradient>
<linearGradient id="paint2_linear_1495_2800" x1="293.745" y1="200.841" x2="383.989" y2="210.657" gradientUnits="userSpaceOnUse">
<stop stop-color="#1447C2"/>
<stop offset="0.921875" stop-color="#4A7BFD"/>
</linearGradient>
<linearGradient id="paint3_linear_1495_2800" x1="263.866" y1="209.601" x2="410.277" y2="185.505" gradientUnits="userSpaceOnUse">
<stop stop-color="#3C76FF"/>
<stop offset="1" stop-color="#69B2FF"/>
</linearGradient>
<linearGradient id="paint4_linear_1495_2800" x1="191.145" y1="288.434" x2="73.5386" y2="302.679" gradientUnits="userSpaceOnUse">
<stop stop-color="#67AFFF" stop-opacity="0"/>
<stop offset="1" stop-color="#75A1FD"/>
</linearGradient>
<linearGradient id="paint5_linear_1495_2800" x1="191.145" y1="288.434" x2="73.5386" y2="302.679" gradientUnits="userSpaceOnUse">
<stop stop-color="#67AFFF" stop-opacity="0"/>
<stop offset="1" stop-color="#75A1FD"/>
</linearGradient>
<linearGradient id="paint6_linear_1495_2800" x1="191.145" y1="288.434" x2="73.5386" y2="302.679" gradientUnits="userSpaceOnUse">
<stop stop-color="#67AFFF" stop-opacity="0"/>
<stop offset="1" stop-color="#75A1FD"/>
</linearGradient>
<linearGradient id="paint7_linear_1495_2800" x1="191.145" y1="288.434" x2="73.5386" y2="302.679" gradientUnits="userSpaceOnUse">
<stop stop-color="#67AFFF" stop-opacity="0"/>
<stop offset="1" stop-color="#75A1FD"/>
</linearGradient>
<linearGradient id="paint8_linear_1495_2800" x1="191.145" y1="288.434" x2="73.5386" y2="302.679" gradientUnits="userSpaceOnUse">
<stop stop-color="#67AFFF" stop-opacity="0"/>
<stop offset="1" stop-color="#75A1FD"/>
</linearGradient>
<linearGradient id="paint9_linear_1495_2800" x1="191.145" y1="288.434" x2="73.5386" y2="302.679" gradientUnits="userSpaceOnUse">
<stop stop-color="#67AFFF" stop-opacity="0"/>
<stop offset="1" stop-color="#75A1FD"/>
</linearGradient>
<linearGradient id="paint10_linear_1495_2800" x1="191.145" y1="288.434" x2="73.5386" y2="302.679" gradientUnits="userSpaceOnUse">
<stop stop-color="#67AFFF" stop-opacity="0"/>
<stop offset="1" stop-color="#75A1FD"/>
</linearGradient>
<linearGradient id="paint11_linear_1495_2800" x1="191.145" y1="288.434" x2="73.5386" y2="302.679" gradientUnits="userSpaceOnUse">
<stop stop-color="#67AFFF" stop-opacity="0"/>
<stop offset="1" stop-color="#75A1FD"/>
</linearGradient>
<linearGradient id="paint12_linear_1495_2800" x1="191.145" y1="288.434" x2="73.5386" y2="302.679" gradientUnits="userSpaceOnUse">
<stop stop-color="#67AFFF" stop-opacity="0"/>
<stop offset="1" stop-color="#75A1FD"/>
</linearGradient>
<linearGradient id="paint13_linear_1495_2800" x1="191.145" y1="288.434" x2="73.5386" y2="302.679" gradientUnits="userSpaceOnUse">
<stop stop-color="#67AFFF" stop-opacity="0"/>
<stop offset="1" stop-color="#75A1FD"/>
</linearGradient>
<linearGradient id="paint14_linear_1495_2800" x1="471.267" y1="196.49" x2="583.68" y2="201.091" gradientUnits="userSpaceOnUse">
<stop stop-color="#67AFFF" stop-opacity="0"/>
<stop offset="1" stop-color="#75A1FD"/>
</linearGradient>
<linearGradient id="paint15_linear_1495_2800" x1="471.267" y1="196.49" x2="583.68" y2="201.091" gradientUnits="userSpaceOnUse">
<stop stop-color="#67AFFF" stop-opacity="0"/>
<stop offset="1" stop-color="#75A1FD"/>
</linearGradient>
<linearGradient id="paint16_linear_1495_2800" x1="471.267" y1="196.49" x2="583.68" y2="201.091" gradientUnits="userSpaceOnUse">
<stop stop-color="#67AFFF" stop-opacity="0"/>
<stop offset="1" stop-color="#75A1FD"/>
</linearGradient>
<linearGradient id="paint17_linear_1495_2800" x1="471.267" y1="196.49" x2="583.68" y2="201.091" gradientUnits="userSpaceOnUse">
<stop stop-color="#67AFFF" stop-opacity="0"/>
<stop offset="1" stop-color="#75A1FD"/>
</linearGradient>
<linearGradient id="paint18_linear_1495_2800" x1="471.267" y1="196.49" x2="583.68" y2="201.091" gradientUnits="userSpaceOnUse">
<stop stop-color="#67AFFF" stop-opacity="0"/>
<stop offset="1" stop-color="#75A1FD"/>
</linearGradient>
<linearGradient id="paint19_linear_1495_2800" x1="471.267" y1="196.49" x2="583.68" y2="201.091" gradientUnits="userSpaceOnUse">
<stop stop-color="#67AFFF" stop-opacity="0"/>
<stop offset="1" stop-color="#75A1FD"/>
</linearGradient>
<linearGradient id="paint20_linear_1495_2800" x1="471.267" y1="196.49" x2="583.68" y2="201.091" gradientUnits="userSpaceOnUse">
<stop stop-color="#67AFFF" stop-opacity="0"/>
<stop offset="1" stop-color="#75A1FD"/>
</linearGradient>
<linearGradient id="paint21_linear_1495_2800" x1="471.267" y1="196.49" x2="583.68" y2="201.091" gradientUnits="userSpaceOnUse">
<stop stop-color="#67AFFF" stop-opacity="0"/>
<stop offset="1" stop-color="#75A1FD"/>
</linearGradient>
<linearGradient id="paint22_linear_1495_2800" x1="471.267" y1="196.49" x2="583.68" y2="201.091" gradientUnits="userSpaceOnUse">
<stop stop-color="#67AFFF" stop-opacity="0"/>
<stop offset="1" stop-color="#75A1FD"/>
</linearGradient>
<linearGradient id="paint23_linear_1495_2800" x1="471.267" y1="196.49" x2="583.68" y2="201.091" gradientUnits="userSpaceOnUse">
<stop stop-color="#67AFFF" stop-opacity="0"/>
<stop offset="1" stop-color="#75A1FD"/>
</linearGradient>
<linearGradient id="paint24_linear_1495_2800" x1="471.267" y1="196.49" x2="583.68" y2="201.091" gradientUnits="userSpaceOnUse">
<stop stop-color="#67AFFF" stop-opacity="0"/>
<stop offset="1" stop-color="#75A1FD"/>
</linearGradient>
<clipPath id="clip0_1495_2800">
<rect width="657" height="431" fill="white" transform="translate(0 0.000244141)"/>
</clipPath>
</defs>
</svg>
