<svg width="336" height="209" fill="none" xmlns="http://www.w3.org/2000/svg"><g filter="url(#a)"><rect x="32" y="8" width="124" height="145" rx="30" fill="#fff"/></g><g filter="url(#b)"><rect x="180" y="8" width="124" height="145" rx="30" fill="#fff"/></g><path d="M242.226 70.235h-11.335v2.48h11.335c7.583 0 13.752 6.169 13.752 13.753 0 7.583-6.169 13.752-13.752 13.752h-14.993c-7.583 0-13.753-6.169-13.753-13.752 0-6.091 3.909-11.378 9.729-13.155l-.726-2.373C215.615 73.04 211 79.28 211 86.468c0 8.95 7.282 16.232 16.233 16.232h14.993c8.951 0 16.233-7.282 16.233-16.233 0-8.95-7.282-16.232-16.233-16.232Z" fill="#0F4FE1"/><path d="M256.767 57h-14.993c-8.951 0-16.232 7.282-16.232 16.233s7.281 16.233 16.232 16.233h11.345v-2.48h-11.345c-7.583 0-13.752-6.17-13.752-13.753 0-7.584 6.169-13.753 13.752-13.753h14.993c7.584 0 13.753 6.17 13.753 13.753 0 6.09-3.909 11.377-9.728 13.155l.724 2.372C268.385 86.66 273 80.42 273 73.233 273 64.282 265.718 57 256.767 57ZM113.813 181.764a1.25 1.25 0 0 0-1.049 1.423l1.685 11.123a1.25 1.25 0 1 0 2.472-.374l-1.498-9.887 9.887-1.498a1.25 1.25 0 1 0-.374-2.472l-11.123 1.685Zm108.422 1.427a1.25 1.25 0 0 0-1.044-1.426l-11.117-1.721a1.25 1.25 0 1 0-.383 2.471l9.883 1.529-1.53 9.882a1.25 1.25 0 1 0 2.471.383l1.72-11.118Zm-108.977.815c20.937 15.429 37.521 23.271 54.244 23.244 16.721-.027 33.303-7.92 54.236-23.241l-1.476-2.018c-20.823 15.241-36.863 22.734-52.764 22.759-15.899.025-31.937-7.414-52.756-22.756l-1.484 2.012Z" fill="#0F4FE1"/><path d="M88.257 82.214h-4.65c-6.41 0-11.624-5.214-11.624-11.607C71.983 64.214 77.197 59 83.607 59h27.897c.684 0 1.231.547 1.231 1.23 0 .684-.547 1.232-1.231 1.232H83.607c-5.06 0-9.162 4.12-9.162 9.162 0 5.043 4.12 9.162 9.162 9.162h4.65c.683 0 1.23.547 1.23 1.231 0 .65-.547 1.197-1.23 1.197ZM103.556 103H75.658c-.684 0-1.23-.547-1.23-1.231s.546-1.231 1.23-1.231h27.898c5.06 0 9.162-4.12 9.162-9.162 0-5.043-4.12-9.163-9.162-9.163h-4.65c-.684 0-1.23-.546-1.23-1.23 0-.684.546-1.231 1.23-1.231h4.65c6.41 0 11.624 5.214 11.624 11.607 0 6.393-5.214 11.641-11.624 11.641Z" fill="#0E4FDF"/><path d="M102.786 90.162h-25.64c-.548-1.965-2.343-3.435-4.496-3.435a4.654 4.654 0 0 0-4.65 4.65 4.654 4.654 0 0 0 4.65 4.649c2.136 0 3.948-1.453 4.495-3.436h25.641c.684 0 1.231-.547 1.231-1.23 0-.685-.564-1.198-1.231-1.198Zm-30.12 3.436a2.21 2.21 0 0 1-2.204-2.205 2.21 2.21 0 0 1 2.205-2.205 2.21 2.21 0 0 1 2.205 2.205 2.21 2.21 0 0 1-2.205 2.205ZM114.923 65.957c-2.136 0-3.948 1.453-4.495 3.436H84.786c-.683 0-1.23.547-1.23 1.23 0 .684.547 1.231 1.23 1.231h25.642c.547 1.966 2.341 3.436 4.495 3.436a4.655 4.655 0 0 0 4.65-4.65c0-2.563-2.086-4.683-4.65-4.683Zm0 6.855a2.21 2.21 0 0 1-2.205-2.205 2.21 2.21 0 0 1 2.205-2.206 2.21 2.21 0 0 1 2.205 2.206 2.21 2.21 0 0 1-2.205 2.205Z" fill="#000"/><defs><filter id="a" x="0" y="0" width="188" height="209" filterUnits="userSpaceOnUse" color-interpolation-filters="sRGB"><feFlood flood-opacity="0" result="BackgroundImageFix"/><feColorMatrix in="SourceAlpha" values="0 0 0 0 0 0 0 0 0 0 0 0 0 0 0 0 0 0 127 0" result="hardAlpha"/><feOffset/><feGaussianBlur stdDeviation=".5"/><feColorMatrix values="0 0 0 0 0 0 0 0 0 0 0 0 0 0 0 0 0 0 0.04 0"/><feBlend in2="BackgroundImageFix" result="effect1_dropShadow_101_2"/><feColorMatrix in="SourceAlpha" values="0 0 0 0 0 0 0 0 0 0 0 0 0 0 0 0 0 0 127 0" result="hardAlpha"/><feOffset dy="4"/><feGaussianBlur stdDeviation="4"/><feColorMatrix values="0 0 0 0 0 0 0 0 0 0 0 0 0 0 0 0 0 0 0.04 0"/><feBlend in2="effect1_dropShadow_101_2" result="effect2_dropShadow_101_2"/><feColorMatrix in="SourceAlpha" values="0 0 0 0 0 0 0 0 0 0 0 0 0 0 0 0 0 0 127 0" result="hardAlpha"/><feOffset dy="16"/><feGaussianBlur stdDeviation="12"/><feColorMatrix values="0 0 0 0 0 0 0 0 0 0 0 0 0 0 0 0 0 0 0.04 0"/><feBlend in2="effect2_dropShadow_101_2" result="effect3_dropShadow_101_2"/><feColorMatrix in="SourceAlpha" values="0 0 0 0 0 0 0 0 0 0 0 0 0 0 0 0 0 0 127 0" result="hardAlpha"/><feOffset dy="24"/><feGaussianBlur stdDeviation="16"/><feColorMatrix values="0 0 0 0 0 0 0 0 0 0 0 0 0 0 0 0 0 0 0.04 0"/><feBlend in2="effect3_dropShadow_101_2" result="effect4_dropShadow_101_2"/><feBlend in="SourceGraphic" in2="effect4_dropShadow_101_2" result="shape"/></filter><filter id="b" x="148" y="0" width="188" height="209" filterUnits="userSpaceOnUse" color-interpolation-filters="sRGB"><feFlood flood-opacity="0" result="BackgroundImageFix"/><feColorMatrix in="SourceAlpha" values="0 0 0 0 0 0 0 0 0 0 0 0 0 0 0 0 0 0 127 0" result="hardAlpha"/><feOffset/><feGaussianBlur stdDeviation=".5"/><feColorMatrix values="0 0 0 0 0 0 0 0 0 0 0 0 0 0 0 0 0 0 0.04 0"/><feBlend in2="BackgroundImageFix" result="effect1_dropShadow_101_2"/><feColorMatrix in="SourceAlpha" values="0 0 0 0 0 0 0 0 0 0 0 0 0 0 0 0 0 0 127 0" result="hardAlpha"/><feOffset dy="4"/><feGaussianBlur stdDeviation="4"/><feColorMatrix values="0 0 0 0 0 0 0 0 0 0 0 0 0 0 0 0 0 0 0.04 0"/><feBlend in2="effect1_dropShadow_101_2" result="effect2_dropShadow_101_2"/><feColorMatrix in="SourceAlpha" values="0 0 0 0 0 0 0 0 0 0 0 0 0 0 0 0 0 0 127 0" result="hardAlpha"/><feOffset dy="16"/><feGaussianBlur stdDeviation="12"/><feColorMatrix values="0 0 0 0 0 0 0 0 0 0 0 0 0 0 0 0 0 0 0.04 0"/><feBlend in2="effect2_dropShadow_101_2" result="effect3_dropShadow_101_2"/><feColorMatrix in="SourceAlpha" values="0 0 0 0 0 0 0 0 0 0 0 0 0 0 0 0 0 0 127 0" result="hardAlpha"/><feOffset dy="24"/><feGaussianBlur stdDeviation="16"/><feColorMatrix values="0 0 0 0 0 0 0 0 0 0 0 0 0 0 0 0 0 0 0.04 0"/><feBlend in2="effect3_dropShadow_101_2" result="effect4_dropShadow_101_2"/><feBlend in="SourceGraphic" in2="effect4_dropShadow_101_2" result="shape"/></filter></defs></svg>
