<svg width="23" height="19" viewBox="0 0 23 19" fill="none" xmlns="http://www.w3.org/2000/svg">
<path d="M15.1569 11.0054C14.3312 11.0054 13.6619 11.9334 13.6619 13.0742C13.6619 14.2173 14.3312 15.1454 15.1569 15.1454C15.9826 15.1454 16.6519 14.2173 16.6519 13.0742C16.6508 11.9334 15.9826 11.0054 15.1569 11.0054ZM20.3618 5.61993C20.5332 5.20018 20.5401 2.81508 19.6316 0.530029C19.6316 0.530029 17.5489 0.758879 14.3979 2.92203C13.7367 2.73803 12.6177 2.64833 11.5011 2.64833C10.3821 2.64833 9.26432 2.73803 8.60307 2.92203C5.45092 0.758879 3.36827 0.530029 3.36827 0.530029C2.46092 2.81508 2.47012 5.20018 2.63917 5.61993C1.57197 6.77913 0.919922 8.17178 0.919922 10.0716C0.919922 18.3355 7.77737 18.4677 9.50697 18.4677L11.5011 18.47L13.4929 18.4677C15.2248 18.4677 22.0799 18.3355 22.0799 10.0716C22.0799 8.17178 21.429 6.77913 20.3618 5.61993ZM11.5321 17.4523H11.4677C7.13107 17.4523 3.75237 16.9359 3.75237 12.72C3.75237 11.7092 4.10887 10.7731 4.95642 9.99568C6.36747 8.69963 8.75717 9.38503 11.4677 9.38503H11.5321C14.2427 9.38503 16.6335 8.69963 18.0457 9.99568C18.891 10.7731 19.2475 11.7092 19.2475 12.72C19.2475 16.9359 15.8699 17.4523 11.5321 17.4523ZM7.84407 11.0054C7.01837 11.0054 6.34907 11.9334 6.34907 13.0742C6.34907 14.2173 7.01837 15.1454 7.84407 15.1454C8.67092 15.1454 9.34022 14.2173 9.34022 13.0742C9.34022 11.9334 8.67092 11.0054 7.84407 11.0054Z" fill="black"/>
</svg>
