<svg width="19" height="14" viewBox="0 0 19 14" fill="none" xmlns="http://www.w3.org/2000/svg">
<path d="M19 0.96923C19 0.433957 18.566 0 18.0308 0H0.96923C0.433956 0 0 0.433957 0 0.96923V12.6824C0 13.2177 0.433956 13.6517 0.96923 13.6517H18.0308C18.566 13.6517 19 13.2177 19 12.6824V0.96923ZM17.0615 2.94323C17.0615 3.22851 16.9364 3.49937 16.7192 3.6843L13.0025 6.8489L16.7228 10.0165C16.9377 10.1995 17.0615 10.4677 17.0615 10.75C17.0615 11.282 16.6303 11.7133 16.0983 11.7133H16.09C15.8546 11.7133 15.6268 11.6295 15.4476 11.4768L11.5074 8.12189L10.1283 9.29608C9.9472 9.45025 9.72357 9.52734 9.49994 9.52734C9.2763 9.52734 9.05267 9.45025 8.87155 9.29608L7.49247 8.12189L3.55869 11.4714C3.37537 11.6275 3.14244 11.7132 2.90168 11.7132C2.3697 11.7132 1.93839 11.282 1.93839 10.7499C1.93839 10.4676 2.06226 10.1995 2.27717 10.0165L5.99746 6.84884L2.33222 3.72805C2.08242 3.51533 1.93846 3.20369 1.93846 2.87558C1.93846 2.35801 2.35801 1.9384 2.87564 1.9384C3.0983 1.9384 3.31367 2.01768 3.48322 2.16203L9.19366 7.0242C9.37025 7.17456 9.62988 7.17456 9.80654 7.0242L15.5169 2.16203C15.6865 2.01768 15.9018 1.9384 16.1244 1.9384C16.642 1.9384 17.0615 2.35794 17.0615 2.87551V2.94323Z" fill="white"/>
</svg>
