<svg width="56" height="62" viewBox="0 0 56 62" fill="none" xmlns="http://www.w3.org/2000/svg">
<path d="M28.0009 0C13.0451 0 0.922852 12.1223 0.922852 27.078C0.922852 37.3092 6.59407 46.2016 14.9601 50.8092L14.6417 62L27.4181 54.1257C27.6109 54.13 27.8037 54.156 28.0009 54.156C42.9566 54.156 55.0789 42.0338 55.0789 27.078C55.0789 12.1223 42.9566 0 28.0009 0ZM26.7856 43.3638C24.3681 43.3638 22.7217 41.5832 22.7217 39.209C22.7217 36.785 24.4092 35.0498 26.7856 35.0498C29.2551 35.0498 30.8538 36.785 30.8971 39.209C30.8993 41.5767 29.2573 43.3638 26.7856 43.3638ZM32.3117 26.3697C30.6242 28.2435 29.9375 30.0219 29.9851 32.0842V32.9009H23.9088L23.8612 31.7159C23.7247 29.3894 24.5002 27.0087 26.5603 24.5457C28.0182 22.8062 29.2096 21.3461 29.2096 19.7929C29.2096 18.1964 28.1547 17.1458 25.8693 17.057C24.3681 17.057 22.5354 17.6007 21.3548 18.4261L19.7995 13.4415C21.4437 12.4841 24.1796 11.5764 27.4247 11.5764C33.4576 11.5764 36.1936 14.9081 36.1936 18.7012C36.1958 22.1672 34.0512 24.4504 32.3117 26.3697Z" fill="#0F4FE1"/>
</svg>
