<svg width="22" height="20" viewBox="0 0 22 20" fill="none" xmlns="http://www.w3.org/2000/svg">
<path d="M21.5015 3.07273C21.1558 3.22603 20.8005 3.3554 20.4374 3.46043C20.8673 2.9743 21.195 2.4023 21.3951 1.77637C21.4399 1.63606 21.3934 1.48249 21.2781 1.39073C21.1629 1.2989 21.0029 1.2879 20.8761 1.36305C20.105 1.82037 19.2731 2.14902 18.4009 2.3412C17.5222 1.48263 16.3288 0.994019 15.0951 0.994019C12.491 0.994019 10.3723 3.11262 10.3723 5.71671C10.3723 5.92181 10.3853 6.12577 10.411 6.32689C7.17946 6.04316 4.17519 4.45483 2.11216 1.92419C2.03863 1.83399 1.92537 1.78538 1.80941 1.79468C1.69338 1.80376 1.58912 1.86919 1.5305 1.96975C1.11208 2.68773 0.890873 3.5089 0.890873 4.34441C0.890873 5.48237 1.29716 6.56208 2.01486 7.40574C1.79663 7.33016 1.58487 7.2357 1.38275 7.1235C1.27424 7.06311 1.14181 7.06403 1.03401 7.12584C0.926144 7.18766 0.858512 7.30135 0.855673 7.42561C0.855176 7.44655 0.855176 7.46748 0.855176 7.4887C0.855176 9.18732 1.76938 10.7166 3.16709 11.5501C3.04701 11.5381 2.92701 11.5207 2.80778 11.498C2.68487 11.4745 2.55847 11.5175 2.47558 11.6113C2.39255 11.705 2.36508 11.8355 2.40334 11.9548C2.92069 13.57 4.25268 14.7581 5.86294 15.1203C4.5274 15.9568 3.0001 16.3949 1.3968 16.3949C1.06226 16.3949 0.725802 16.3753 0.396512 16.3363C0.232931 16.3169 0.0765182 16.4135 0.0208086 16.569C-0.0349011 16.7247 0.0241441 16.8982 0.163312 16.9874C2.22301 18.308 4.60461 19.0061 7.05052 19.0061C11.8589 19.0061 14.8668 16.7386 16.5434 14.8365C18.6341 12.4647 19.8332 9.32528 19.8332 6.22335C19.8332 6.09376 19.8312 5.9629 19.8273 5.83246C20.6521 5.21099 21.3623 4.45888 21.9402 3.59442C22.028 3.46313 22.0185 3.28961 21.9168 3.16875C21.8152 3.04783 21.6459 3.00872 21.5015 3.07273Z" fill="black"/>
</svg>
